<?xml version="1.0" encoding="UTF-8"?>
<svg width="300px" height="338px" viewBox="0 0 300 338" version="1.1" xmlns="http://www.w3.org/2000/svg" xmlns:xlink="http://www.w3.org/1999/xlink">
    <!-- Generator: sketchtool 55.1 (78136) - https://sketchapp.com -->
    <title>47F5D19B-AF08-421E-885B-82B29252F264</title>
    <desc>Created with sketchtool.</desc>
    <g id="Visual-Design" stroke="none" stroke-width="1" fill="none" fill-rule="evenodd">
        <g id="KnowledgeCentre_Article8" transform="translate(-265.000000, -1270.000000)" fill-rule="nonzero">
            <g id="Keeping-Fit-(1)" transform="translate(265.000000, 1270.000000)">
                <rect id="Rectangle" fill="#FFFFFF" x="0" y="0" width="300" height="338"></rect>
                <g id="Group" transform="translate(0.428571, 37.317259)">
                    <path d="M68.6533457,256.307774 C28.5376445,245.383474 117.698047,215.118946 118.782266,213.952417 C125.494031,206.730294 311.974136,224.415008 260.007496,249.068654 C224.51474,265.908019 104.496774,266.068906 68.6533457,256.307774 M29.4226274,170.35722 C28.0282203,169.912447 26.651972,169.407097 25.2977054,168.830008 C16.3218268,165.006878 9.74641834,157.251896 5.6348766,148.320738 C4.26276978,145.343791 3.16208973,142.236123 2.31531474,139.09976 C-2.44516632,119.697159 -0.132941762,99.1990469 11.7598186,82.006918 C26.2951669,61.5088059 50.0803689,51.9208509 73.8337136,55.685316 C84.0775247,57.1238916 93.7380231,61.1010184 104.06785,62.5258844 C109.331043,63.2521868 114.775507,63.6258591 119.884829,62.1678343 C135.554945,57.6971538 135.014959,38.2441777 138.614549,25.4713968 C146.930019,-4.03439342 186.295181,-8.27073149 202.893945,16.2692301 C207.570323,23.1824926 209.81246,31.4061599 213.11673,39.071869 C223.255093,62.591564 247.420675,64.4070006 269.433639,70.1045517 C298.504654,77.7090451 303.790148,115.068656 294.971965,139.935422 C293.954115,143.241085 292.686501,146.555995 291.145867,149.74656 C286.523648,159.319849 279.446164,167.78009 269.305253,171.553482 C253.212705,177.541172 235.338362,172.466621 218.73896,172.89035 C199.579162,173.379441 180.416179,173.736215 161.251603,173.959717 C138.255832,174.228494 115.257831,174.30597 92.2607863,174.192147 C72.0232461,174.092352 48.9022749,176.85568 29.4226274,170.35722" id="Shape" fill="#EAF6FF"></path>
                    <g transform="translate(29.571429, 83.213198)">
                        <path d="M120.056515,93.3451863 C123.510733,93.7940109 124.205945,95.0467174 127.177438,97.1474097 C134.672621,102.44658 141.164597,106.659084 150.886086,106.394088 C159.763919,106.152256 168.560126,102.859084 175.456716,98.153652 C177.869597,96.5071583 178.085786,96.312581 180.107564,94.5997458 C180.611389,94.1727879 181.131318,93.5744168 181.617929,93.2655024 C181.319743,93.771959 181.074494,93.9240997 180.85997,94.4268503 C180.063512,95.114727 179.168584,96.4322922 177.079802,98.0811947 C169.063581,104.407918 162.190312,107.239665 152.742946,111.237392 C147.253623,113.560087 145.445258,113.516725 141.455749,114.994399 C138.97827,115.540327 136.643684,116.271752 134.031827,116.715759 C132.460197,116.982978 127.165407,117.753874 125.892888,117.283924 C124.397146,114.150305 123.104267,109.747857 122.302256,105.995853 C121.859697,103.92444 121.483217,101.805773 121.089337,99.7069336 C120.723592,97.7574555 120.21588,95.2824338 120.056515,93.3451863 L120.056515,93.3451863 Z M135.781888,87.3336779 C135.076311,87.6653859 127.325513,88.4551838 126.355808,88.2824735 C127.090074,88.8749146 129.386346,90.1172434 130.354386,90.5703303 C135.67842,93.0614744 138.743201,94.3942354 145.088768,94.8187844 C150.632323,95.1899633 153.341724,94.122383 157.130406,91.1325659 C157.757689,90.6375987 158.254851,90.1811761 158.834564,89.7253097 C159.206047,89.4334437 159.25121,89.3550569 159.651937,88.9881399 L168.272675,80.1971429 C170.287975,77.98304 172.299573,75.8287927 174.56697,73.8993283 C177.034454,71.798636 178.582022,70.4143583 182.814004,69.5689671 C184.726207,69.1868542 186.629525,69.2402244 188.349045,69.8851086 C190.850956,70.8235266 190.787284,71.181919 191.88563,72.6014062 C192.099043,71.181919 192.100338,68.9609596 192.088492,67.4645684 C192.077202,65.9761455 191.862863,64.0583558 191.634273,62.621079 C191.297772,60.5042648 190.265505,56.1878015 189.353919,54.5700314 C188.233362,54.8798723 187.396923,55.6289017 184.707882,56.302139 C182.837141,56.7707918 181.188326,56.9090343 179.17099,56.9440584 C173.96375,57.0341196 169.218504,54.8129749 166.239421,51.1022955 C164.085856,48.4204658 162.360043,45.7245529 164.378304,42.3166725 C165.254908,40.8364034 166.456906,40.3065976 167.811051,39.5597919 C164.252441,37.8780891 163.790817,38.92232 160.447285,40.2245045 C158.176371,41.1089968 157.617943,41.2889344 156.187539,42.7519695 C152.056063,46.979483 150.203646,49.1615269 146.969134,54.1988525 C146.493999,54.9389867 146.058103,55.433213 145.53873,56.1651936 C143.511214,59.0243665 142.527812,60.1964622 139.845064,62.4985883 L136.864315,64.6937894 L135.781888,87.3336779 Z" id="Shape" fill="#FFFFFF"></path>
                        <path d="M65.8674557,61.1261333 L69.3807184,63.2553639 C72.5095419,65.1377588 77.6173869,67.617784 81.030699,68.7757961 C81.3083396,68.9008814 81.6124483,68.9635169 81.931365,69.1012034 C82.5925196,69.3873247 83.3682471,70.3956049 84.7136927,69.5172278 L86.3926774,66.6070945 C86.9277836,66.8231679 88.1525481,68.4205538 88.221588,68.5765862 C88.6410103,68.8619663 88.7396653,69.0739627 89.0926389,69.4347644 C89.3129006,69.6595472 89.3214146,69.63138 89.5538923,69.8231774 C90.0045956,70.1950979 89.6997463,69.6923474 89.9507331,70.2846032 C90.4153183,70.49382 90.6366904,70.8553629 90.9469071,71.2598983 C91.3791009,71.823431 91.5614181,71.8530806 92.0102704,72.3202511 C92.896314,73.2419912 92.6399593,73.9039243 94.1564314,74.4218699 C93.6851829,73.5670276 94.7019026,71.6731432 95.0702391,70.7704902 C96.6775924,66.8302097 103.525873,46.8336056 104.376934,45.6994989 L104.912965,45.7195125 C104.581462,45.2402967 104.214606,45.0957537 103.641742,44.6719459 C103.188633,44.3367172 102.80771,44.0691272 102.307587,43.742979 C99.6487161,42.0051267 97.2104773,40.2298416 94.3306046,38.4200885 C91.0988691,36.388888 86.5009573,33.6286717 81.8502939,33.1709521 C76.471842,32.873527 70.8216729,37.1872104 68.4617284,42.1505963 C67.2582493,44.681026 66.1432453,47.2644552 64.9780804,49.8465869 C64.4070664,51.1117093 61.4542671,56.9104798 61.3789341,57.5850141 C62.0771074,58.1081489 62.7195673,58.7406172 63.5136193,59.360855 C64.2138287,59.9077098 65.2072264,60.4944062 65.8674557,61.1261333 L65.8674557,61.1261333 Z M122.032093,59.9405099 C121.437387,59.4638883 121.449974,59.3245341 120.996864,58.8733002 L115.893647,54.2121576 C113.564984,52.1244371 110.935543,50.0257835 108.366443,48.1565453 L105.047343,45.7617634 L112.996561,54.9912077 C113.660307,55.7200382 114.026052,56.1284649 114.67388,56.8485859 L117.931343,60.5294299 L122.032093,59.9405099 Z M89.6971547,81.1731424 C85.509966,81.9203188 81.4617823,82.6658271 77.4187813,83.6817054 C75.4849226,84.1677777 73.5438454,84.7620718 71.7815683,85.3952818 C70.0962904,86.00088 68.0674787,86.9702451 66.5291653,87.4109161 C66.1835957,87.7505923 62.6903229,89.2649584 61.9070061,89.6772768 C60.2219134,90.5652899 59.1311567,91.5513328 58.1362779,92.8394341 C56.6477546,94.7661186 54.1573196,99.0762813 53.1554074,101.764041 C51.9724736,104.082659 49.7948469,110.91028 48.9680331,113.674017 C48.3394551,115.775451 47.7838041,117.861689 47.2114946,119.985916 C46.657509,122.043801 45.8640124,124.372241 45.5017843,126.411966 C46.8853594,126.389728 50.8678346,128.356811 51.8973257,129.029492 C54.7736811,130.035734 57.5537884,131.115174 60.40275,132.139947 C63.3340783,133.194555 63.7573877,133.546092 67.0285483,134.295492 C67.8842361,134.491552 68.826363,134.39241 68.982582,135.219085 L70.7008063,135.278941 C70.9617887,134.893492 70.8218576,134.924439 71.2270277,134.711516 C71.4683901,134.363316 71.6584813,134.207284 71.9696237,133.878356 C72.3016817,133.526819 72.2977946,133.409702 72.7062964,133.027961 C72.9295196,132.57858 73.4361206,131.904972 73.7500397,131.597355 L75.0190419,129.750169 L76.5257044,127.405607 L77.6123893,125.399609 L78.7860681,123.097112 L79.8790461,121.02922 L80.4628316,119.702574 L81.4467896,117.609109 C81.7283173,117.254422 81.7196177,117.094128 81.9254417,116.808748 C81.9383983,116.333238 82.1258983,116.0158 82.3378307,115.662596 C83.1522429,115.818072 84.008301,115.991153 84.8171601,116.18221 C85.8549806,116.427562 86.2355331,116.81542 87.0971443,117.136565 C90.2857526,117.207724 93.374781,117.366536 96.5756057,117.444181 C99.830478,117.523309 103.199738,117.414902 106.475711,117.415644 C113.001558,117.416941 119.395989,117.721779 125.892777,117.283887 C124.397035,114.150268 123.104156,109.74782 122.30233,105.995816 C121.859586,103.924403 121.483291,101.805921 121.089226,99.7068967 C120.723666,97.7574186 120.215769,95.2823969 120.056589,93.3451495 C118.625259,93.2806609 116.494276,93.3281006 115.242302,92.9680401 C114.242796,92.6804364 114.246869,92.3313094 113.654569,91.9940425 C112.842563,91.5315045 112.60009,92.0225803 111.873968,91.2296319 C111.508408,90.8302858 111.679989,90.9935453 111.159136,90.6714734 C109.738727,89.7917992 110.039134,89.075014 109.324117,88.6836362 C107.968862,87.9418338 105.935422,88.870986 105.956338,87.0406632 C106.609719,86.6557713 107.395997,86.6857915 108.344232,86.5482903 L107.289198,85.7670166 C106.040741,84.9168072 105.512113,84.3415998 104.292346,83.3839094 C103.494777,82.7582976 100.876998,80.3483203 100.341707,80.0786919 C99.957267,80.2504757 95.7315789,80.4359725 94.8757054,80.5143593 C93.123609,80.6759512 91.412418,80.9298282 89.6971547,81.1731424 L89.6971547,81.1731424 Z" id="Shape" fill="#74ADDD"></path>
                        <path d="M14.2632294,64.0660093 C14.9190163,63.8907044 16.4286403,62.8535153 16.8117842,62.3700376 L18.5644362,60.0184335 C20.8864362,56.4699015 20.2835862,50.8319813 21.0106341,45.9004691 C21.3202958,43.8023714 21.5644344,39.3269108 21.8744662,36.4288227 C21.9873734,35.3725465 21.9129657,35.5465541 22.2631629,34.6937502 C23.9501067,30.588357 23.8510815,30.2036501 26.5662206,26.6836563 C27.1611116,25.9122041 27.875203,25.3045674 28.5830012,24.5959358 C29.896611,23.2805941 31.5785571,21.8403523 33.2614288,21.067603 C33.5834918,20.9193537 33.7808016,20.8722845 34.0552955,20.7294093 C36.6417945,19.3820086 35.2491497,20.1838519 37.7586497,19.3392017 C39.5829329,18.7256349 39.3750727,18.9533829 41.3342892,18.6713387 L47.222304,18.4775027 C48.3937616,18.463419 49.7588276,18.1472774 50.9008556,18.054807 C52.239453,17.9454731 53.6872556,18.102988 54.8933259,17.9451025 L58.6749746,17.6250694 C59.8469876,17.5970873 61.2551803,17.3306093 62.4877191,17.3357979 C67.2014996,17.3556263 73.2660939,16.579356 78.0485439,16.3482724 L89.7499804,15.7447126 C91.0832104,15.5718169 91.8855913,15.3097863 93.4078016,15.6963462 C94.8045184,16.051218 95.1143653,16.9434933 95.5856139,17.622475 L96.2273336,17.622475 C96.0757419,17.7006765 96.3187697,17.6667645 95.8606629,17.7303263 L94.4493236,17.761644 C92.4808526,17.9336132 87.5479213,21.7436197 86.4432823,22.7719137 C83.4399523,25.5671539 82.4095359,28.993936 81.850368,33.1710448 C76.471731,32.8734343 70.8217466,37.1871177 68.4618026,42.1506889 C67.2581383,44.6809333 66.143319,47.2645478 64.9781546,49.8464942 C64.4071406,51.1116167 61.4543413,56.9103871 61.3788231,57.5849215 C62.0771816,58.1080562 62.7196414,58.7407099 63.5135083,59.3609476 C64.2139029,59.9076171 65.2071154,60.4944988 65.8675294,61.1260406 C63.9786489,67.0083868 63.026712,68.8244406 60.6867579,74.2970625 C58.9866724,78.2723672 55.8926464,86.9694113 52.8769153,89.5543225 C49.8200936,92.1735166 48.5320269,93.2314605 44.8262661,95.513573 C41.5010586,97.5612662 39.5847838,99.0930518 36.5640551,101.118322 C35.9599094,101.523228 33.9484965,102.492408 34.3532963,103.263304 C34.5395006,103.490126 35.2213856,103.424711 35.4723726,103.408589 C35.9217801,103.379309 36.3073302,103.372638 36.7559973,103.369488 C37.6079834,103.364114 38.4405347,103.310373 39.2962227,103.269975 C45.1425913,102.993305 43.7164449,102.291715 48.362481,101.898484 C49.1383937,101.832884 49.8926503,101.65795 50.6143303,101.632377 C51.4661314,101.602356 52.2968319,101.769693 53.1554816,101.764133 C51.9725477,104.082567 49.7949206,110.910372 48.9681073,113.673924 C48.3393441,115.775358 47.7838779,117.861596 47.2115683,119.985823 C46.6575831,122.043893 45.8639014,124.372149 45.5016733,126.412058 C46.8854336,126.389821 50.2030521,127.966267 51.2323581,128.638762 C51.1696114,129.277347 51.26586,129.167086 51.1039033,130.146087 C51.0368991,130.55192 50.7557421,131.214038 50.6165516,131.62543 C50.2817173,132.614067 49.9489187,133.475395 49.5802123,134.410663 C48.2364321,137.820396 44.6252546,150.087468 43.256487,151.451547 L43.0660256,150.629505 C43.0317831,150.40324 42.9736637,150.128608 42.9736637,149.732411 C42.5031557,150.077462 42.6695549,150.120268 42.8205913,150.720678 C42.8938886,151.011061 42.958116,151.455809 43.0706529,151.714504 C42.8122621,152.511715 41.0207405,154.244749 40.2864739,154.588131 C40.2357582,153.901737 40.000134,153.383235 39.8315136,152.736498 L38.871803,147.324843 C38.871803,148.808819 38.836265,150.336898 39.0683724,151.659467 C39.1777628,152.280075 39.4109808,152.942935 39.5546135,153.440682 C39.9040704,154.652249 39.6516026,154.335922 39.4378194,155.254697 L39.2964078,155.395904 L39.1549963,155.537853 C38.9465808,155.537853 39.0135847,155.492823 39.0135847,155.728168 L38.7303914,155.835093 C37.6640668,156.03282 36.9170287,155.856774 36.5201879,154.918912 C35.2687696,151.960413 35.6189668,148.964665 35.6189668,145.626092 L35.1949173,145.626092 L35.6611682,154.020707 C35.3185598,155.791359 32.8520016,156.000576 32.4014836,154.086308 C32.0414764,152.554707 31.9420811,147.387108 31.9420811,145.626092 L30.95183,145.626092 C30.9864425,147.17752 31.4750898,148.718016 31.5119234,151.720249 C31.5228439,152.607335 32.1728929,156.400849 29.956026,156.539833 C27.2336683,156.710505 28.4264119,153.3534 28.2259555,151.894998 L27.8405905,145.767484 L26.8505244,145.767484 C26.8505244,146.887137 27.1901713,148.531221 27.3798924,149.485206 L27.9910716,155.120717 C28.0675153,157.368732 25.2592742,157.562012 24.8702073,156.104165 L24.5875692,156.104165 C24.4185787,156.828919 23.7618664,157.419507 22.9183945,157.347236 C21.6144096,157.236234 21.3090051,155.920522 20.9775023,154.903902 C20.589546,153.712719 20.3446671,152.563232 20.3446671,151.289956 L20.5538229,156.444212 C20.1473572,158.073101 18.0276645,158.216903 17.4233337,156.762948 C16.7762462,155.205219 16.8043804,150.854658 16.8090078,148.882572 C16.8115991,147.832782 16.6675962,147.196422 16.6675962,146.333797 L16.2429913,146.333797 C16.2429913,148.697632 16.5341437,151.683372 16.5226679,154.549957 C16.5195213,155.329934 16.6333539,155.558608 16.6685217,156.120102 C16.7338598,157.163221 16.0823301,157.829787 15.2336756,157.941159 C12.9988546,158.234878 13.1313817,155.307325 13.1317518,153.272048 C13.1319369,151.053869 13.1317518,148.835503 13.1317518,146.617138 C12.5820237,146.66291 12.7632304,146.744818 12.1418709,146.758901 L12.3858244,149.912349 C12.5057651,150.787761 12.4243239,152.19372 12.4243239,153.13047 C12.4243239,155.329748 12.91075,158.021585 10.9400577,158.292325 C9.97294329,158.425193 9.21739093,157.735093 9.06117189,156.922872 L9.03026126,147.18345 C8.5991781,147.193272 8.51440517,147.247568 8.18142167,147.324843 C8.20067143,148.176906 8.44258886,149.038234 8.31579969,150.574467 L8.03445729,155.390345 C8.0285343,155.9107 8.08443261,156.582084 8.02779394,157.082425 C7.97541244,157.542925 7.8090132,157.980075 7.50694033,158.260636 C7.18284133,158.561768 6.76749116,158.679997 6.34677321,158.66999 C3.96794939,158.615137 4.79550317,155.755965 4.78754417,153.697338 C4.77884477,151.306819 5.07018219,149.743159 5.07018219,147.324843 L4.64576241,147.324843 C4.64576241,150.087468 4.61022441,152.585284 4.05290739,154.802537 C3.81765333,155.737619 3.59998317,157.115967 3.23590393,157.949128 C2.631388,159.334332 1.35479697,159.301902 0.669765296,158.810641 C-0.413032668,158.034371 0.0987513279,156.903415 0.375096176,155.792842 C1.14249453,152.706477 1.24429605,151.983762 1.2515147,148.740809 C1.25669732,146.446651 0.871332304,145.604781 0.965174794,142.930178 C1.09585092,139.197262 0.52502205,135.389108 0.546307821,131.74755 C0.55130535,130.884925 0.439138586,130.58824 0.402490039,129.909444 C0.169827297,125.603359 0.544641977,118.668257 0.544641977,114.1915 C0.544641977,113.046089 0.576848276,85.4770967 0.722516991,84.3513289 C1.4590047,78.6657837 0.768050036,75.4474773 4.6254021,70.275801 C8.32116741,65.320754 12.7413893,65.3902461 14.2632294,64.0660093 L14.2632294,64.0660093 Z M13.2057893,71.2199637 C14.240463,70.9308776 22.705907,65.9515547 23.7418763,65.3415089 C25.5433929,64.2815267 27.1363091,63.2960397 28.8152937,62.2110404 C31.9635519,60.1755774 33.2388474,58.8142785 35.7740753,56.8590557 C40.2368688,53.4172635 39.8030092,52.0774607 41.2341535,54.338262 C42.6016255,56.4976981 46.6740566,64.0409921 47.6900357,66.2828921 C49.1648619,69.5373341 52.1400574,77.533159 53.1280877,79.3868312 C53.7044691,80.46868 55.1193253,82.0199237 54.4979657,83.6712352 C54.2919566,84.2184606 52.2283474,86.6666117 51.745623,87.1484222 L49.6849753,89.1914825 C48.155361,90.4599403 48.0352354,90.5763161 46.1824474,91.7776912 L36.2593909,98.2656355 C35.3740879,98.840287 31.8739666,100.79551 30.8106035,100.900952 C29.1369865,98.3071452 27.4650354,96.924165 25.5687508,94.2352935 C20.7270706,87.3683868 18.4185823,83.0517386 14.9936091,75.3677929 L13.2057893,71.2199637 Z M42.9736637,149.307492 L42.5490589,149.307492 C42.2608681,148.068869 41.9832276,147.038907 41.9832276,145.484513 C43.106376,145.222483 42.7559936,145.330149 42.82781,148.037366 C42.8459492,148.72969 42.959967,148.691146 42.9736637,149.307492 L42.9736637,149.307492 Z M81.9255159,116.808656 C82.7017989,116.79031 83.6144957,118.774997 87.3994761,119.824231 C88.5446507,120.14204 90.22308,120.414449 89.971908,118.731078 C89.7947734,117.545454 88.1492906,117.741699 87.1930967,117.201145 C87.170145,117.187988 87.1264629,117.161674 87.097218,117.136657 C86.2356073,116.815512 85.8548696,116.427655 84.8170491,116.182302 C84.00819,115.991246 83.1521319,115.818165 82.3377197,115.662689 C82.1257873,116.015707 81.9384724,116.333331 81.9255159,116.808656 L81.9255159,116.808656 Z M80.4629057,119.702667 L81.4466786,117.609201 L84.8727626,119.961547 C86.4203306,121.00096 88.5714891,121.127157 87.7317193,122.73733 C86.6030181,124.901584 81.069828,120.179473 80.4629057,119.702667 L80.4629057,119.702667 Z M78.7859571,123.097204 C79.6033307,123.964834 80.4416199,125.148048 81.2038359,126.183384 C81.4738873,126.550301 82.1043163,127.503359 82.3632626,127.717208 C83.0197899,128.25943 83.8778841,128.036685 84.2058699,127.428307 C84.9734533,126.003446 80.2067361,121.21796 79.8791203,121.029127 L78.7859571,123.097204 Z M76.5255934,127.405699 L77.6122783,125.399701 C78.4013323,125.811834 79.5459519,127.217608 80.2369063,127.999623 C83.5341651,131.731242 80.7527623,132.316272 79.8935576,131.603748 C79.7180889,131.458464 77.4606866,128.08431 76.5255934,127.405699 L76.5255934,127.405699 Z M73.7499287,131.597448 C75.8755444,132.958932 77.8549359,136.288611 79.1022823,134.643785 C80.127516,133.292122 77.5952494,131.766081 76.4234216,130.826366 C75.9654999,130.459264 75.5647719,129.986349 75.019116,129.750262 L73.7499287,131.597448 Z M71.2269167,134.711609 C74.1003107,136.172791 75.9640191,140.229633 77.6233839,138.406352 C78.1479394,137.830032 78.0429913,136.901251 77.5275051,136.375707 C77.0244206,135.863506 76.5594651,136.088659 75.8470397,135.3665 C75.2828743,134.794629 73.551138,133.260619 72.7063706,133.027868 C72.2976836,133.40961 72.3015707,133.526727 71.9696974,133.878263 C71.658555,134.207191 71.4684639,134.363223 71.2269167,134.711609 L71.2269167,134.711609 Z M68.4009064,135.957829 L68.982471,135.219178 L70.7006953,135.278848 L75.2428941,139.661467 C75.7398707,140.50797 75.167376,141.496793 74.4771617,141.650602 C73.4872804,141.871493 73.0632309,141.02184 72.6528784,140.548554 C72.1570123,139.976682 71.6291254,139.673142 71.1006827,139.13055 L68.4009064,135.957829 Z M66.2717743,137.981247 C66.4379884,137.690122 66.7050784,137.606732 67.028067,137.285773 C67.3369881,136.977785 67.486914,136.734285 67.7956504,136.531925 C68.1104944,136.677024 69.2999066,137.722737 69.5651456,137.979023 C70.1826184,138.5748 70.5070873,138.938937 71.0347894,139.480974 C71.563602,140.023566 74.037009,142.032158 72.529236,143.079169 C71.221179,143.987566 69.877584,141.606683 69.1285097,140.962911 L66.2717743,137.981247 Z M60.1346233,144.20994 L61.2181616,144.20994 L63.0146807,146.800411 C63.4170746,147.341521 63.7021187,147.54907 64.0669384,148.01272 C65.2589417,149.526901 66.3060163,149.100869 66.6495501,148.220083 C67.0773017,147.123224 65.4640251,145.976145 64.1881749,144.068548 C65.0431221,143.869152 64.7203191,144.131553 66.493146,145.58384 C67.546329,146.446466 68.9160223,146.748153 69.3371104,145.67594 C69.786888,144.530344 68.9859879,144.237366 68.5723033,143.852289 C67.3445769,143.526141 64.816938,140.299125 64.0001194,139.923868 C63.5024027,140.277628 62.5541679,141.520884 62.0651503,142.086084 C61.713102,142.491917 61.36272,142.763213 61.021407,143.163301 C60.7080437,143.531515 60.406896,143.864334 60.1346233,144.20994 L60.1346233,144.20994 Z M58.0412139,146.47556 C58.3675341,145.863476 59.1695451,145.05737 59.8038609,144.56963 C59.9423109,145.207473 62.4723566,148.801591 62.9478621,149.559701 C63.3089799,150.134538 63.4453937,150.776457 62.9358309,151.309042 C62.4068331,151.861827 61.5907551,151.768615 61.1034034,151.263085 C60.7061927,150.850582 60.3915334,150.228305 60.0787251,149.740009 L59.0148064,148.114826 C58.6808979,147.571678 58.3190396,147.038907 58.0412139,146.47556 L58.0412139,146.47556 Z M55.7799244,149.02415 C56.0562694,148.546788 57.179418,147.227925 57.5409056,147.052991 C58.5935336,148.950396 59.786277,150.181607 60.599949,151.484347 C61.6807106,153.215158 59.8477281,154.177666 58.8724697,153.356735 C58.5735433,153.105082 58.1720751,152.343637 57.8574159,151.963934 L55.7799244,149.02415 Z M53.3788894,151.714504 L55.0506557,154.207687 C55.6279629,155.089399 56.5761977,156.019107 57.4648324,154.891672 C58.3095999,153.820015 56.9300966,152.598441 55.9768641,151.014397 C55.8510004,150.804995 55.7427206,150.646554 55.5902036,150.410096 L55.1363537,149.750016 C54.7650561,150.020571 54.5892171,150.337454 54.2345777,150.670459 C53.7701777,151.106312 53.6017423,151.077218 53.3788894,151.714504 L53.3788894,151.714504 Z M23.031857,146.050641 L23.7390999,146.050641 C23.7390999,147.540546 24.5875692,153.212934 24.5875692,154.829778 L23.91716,152.952386 C23.7655683,152.212622 23.6774637,151.460442 23.5976883,150.723272 C23.4323997,149.19927 23.031857,147.650065 23.031857,146.050641 L23.031857,146.050641 Z M181.737647,4.31191344 C181.569027,5.36615114 181.365609,6.31012843 181.274173,7.42144207 C181.184217,8.5207105 181.342842,9.91814525 181.198284,10.8398851 L178.039476,11.0429867 C177.611169,11.5957712 177.726852,11.5451811 177.10938,12.0184669 C176.705876,12.3273814 176.453593,12.6205443 176.136898,12.9496577 C176.240921,13.0078455 179.08618,13.2150239 179.740487,13.3656822 C182.972777,14.1089671 187.031511,16.1746355 189.065321,18.6192661 C189.287063,18.8864854 189.340925,18.9759909 189.502142,19.174089 C189.74591,19.472626 189.801068,19.4620632 190.056682,19.7498521 C191.882261,21.8040312 193.057421,26.1581126 193.44112,28.9735517 L195.88121,28.3929705 C195.737577,24.500315 193.960308,19.2534024 191.911506,16.1944638 C190.743195,14.450311 188.463766,12.8547782 186.225798,12.0811023 C186.9199,11.7225243 188.049897,11.7234509 188.877636,11.4788395 C192.060876,10.5380125 193.133124,9.21155213 195.576546,7.95124793 C196.289341,7.17460701 196.708393,7.62806451 196.708393,6.43632562 C196.154593,6.14260676 196.075743,6.07126178 195.215983,6.20894831 C194.550571,6.31531716 194.035456,6.29437695 193.317292,6.29437695 C192.653547,6.612001 191.493194,6.63479433 190.726351,6.81287877 C187.05761,7.66457091 186.02997,8.6611767 184.308043,9.24101668 C185.031574,7.24335763 185.223146,6.11221562 185.2796,3.74597182 C185.19131,2.55627135 185.124491,1.88359025 184.70692,0.893655683 C184.506463,0.41833143 184.515348,0.583999999 184.262325,0.205964337 L183.413856,0.205964337 C182.843397,1.05876832 181.926443,3.14426506 181.737647,4.31191344 L181.737647,4.31191344 Z M84.7137669,69.5173204 C83.3681361,70.3949563 82.5925937,69.387232 81.931254,69.1011108 C81.6125224,68.9634242 81.3084137,68.900974 81.0307731,68.7757034 C80.9991223,69.3655503 79.8495051,70.7589081 79.4406334,71.265921 L75.833343,75.8681346 C73.3480903,79.0117606 71.3716599,80.6163736 68.3455637,84.9365429 C67.7391969,85.8021334 67.0704531,86.5461594 66.5292394,87.4108234 C68.0675529,86.9703378 70.0963646,86.0009726 71.7816424,85.3953744 C73.5439191,84.7621645 75.4849967,84.1678704 77.4188554,83.6817981 C81.4618564,82.6657345 85.5100397,81.9202262 89.6970437,81.1730497 L89.4060767,80.6330514 C89.87751,80.3473011 90.0996227,80.3949261 90.2724999,79.8388059 C90.4305699,79.3308669 90.2860119,78.8423857 90.0124436,78.5686803 C89.3427746,77.8978524 86.265222,77.7444142 84.5842016,77.2040457 C82.8311794,76.6403277 82.6240594,76.6240205 82.601478,75.7862266 C83.7340663,75.8868511 91.7501027,77.7336664 91.6183161,74.9756739 C91.532988,73.1905672 88.9004006,74.0505983 87.5214527,74.090255 C85.9089167,74.1365829 83.7101893,73.5750885 82.527996,73.7064744 L82.4944937,72.0470094 C84.583461,71.8893092 88.7123456,71.5177593 89.9506221,70.2846958 C89.6996353,69.6922547 90.0046693,70.1950053 89.5537813,69.8232701 C89.3214887,69.6314726 89.3129743,69.6594546 89.092713,69.4346717 C88.7397394,69.0740553 88.6408993,68.8618737 88.2216621,68.5764936 C86.968578,68.8930057 86.189889,69.3733333 84.7137669,69.5173204 L84.7137669,69.5173204 Z" id="Shape" fill="#B4D3E2"></path>
                        <path d="M210.127907,57.1297037 C209.74865,57.7195501 208.578487,63.6574899 208.229031,64.9806145 C207.557511,67.5247577 206.692568,69.8989701 205.852058,72.3734355 C206.168013,72.6691927 205.909437,72.3002374 206.04363,72.7190417 C206.285917,73.4775223 205.475392,84.2383816 205.44152,85.1664219 C205.298442,89.1002165 204.978231,93.5919842 204.176405,97.3202684 C203.121371,102.225652 204.233414,102.748786 200.231318,106.815264 C197.577445,109.510992 195.806284,110.662703 192.14254,112.168731 C191.555052,112.410192 190.152598,113.015234 189.636927,113.08102 C188.657967,113.205735 187.434312,113.207032 186.427218,113.24428 C181.547408,113.426441 143.061252,115.136682 141.455564,114.994362 C138.978456,115.540475 136.643684,116.271715 134.031827,116.715722 C132.460197,116.982756 127.165222,117.753837 125.892703,117.284072 C119.396286,117.721779 113.001669,117.416941 106.475637,117.415458 C103.199664,117.414902 99.830589,117.523309 96.5755316,117.444181 C93.374892,117.366536 90.285864,117.207724 87.0972553,117.136565 C87.1261299,117.161767 87.1701819,117.188081 87.1931336,117.201053 C88.1493274,117.741792 89.7946251,117.545362 89.9717597,118.730985 C90.222747,120.414356 88.5445024,120.142133 87.399513,119.824324 C83.6143474,118.774719 82.7018357,116.790217 81.9255531,116.808934 C81.7199139,117.094128 81.7286134,117.254237 81.4467154,117.609109 L84.8727994,119.96164 C86.4203674,121.000867 88.5715264,121.127249 87.7317561,122.737237 C86.603055,124.901306 81.0698649,120.179566 80.4627579,119.702759 L79.8791571,121.02922 C80.2071433,121.217867 84.9734906,126.003168 84.2059071,127.428215 C83.877921,128.036593 83.0198267,128.259152 82.3631143,127.717301 C82.1041684,127.503451 81.4741093,126.550208 81.2038727,126.183662 C80.4416571,125.148141 79.6031829,123.964926 78.785994,123.097112 L77.6125003,125.399423 C78.4013696,125.811742 79.5461739,127.217515 80.2371283,127.99953 C83.5343871,131.73115 80.7527996,132.316179 79.8935944,131.603841 C79.7181257,131.458186 77.4605383,128.084032 76.5256303,127.405421 L75.0191529,129.750169 C75.5648091,129.986071 75.9655367,130.459357 76.4234584,130.826274 C77.5954714,131.765803 80.127738,133.292215 79.1025043,134.643507 C77.8549731,136.288518 75.8755813,132.959025 73.7499656,131.59717 C73.4360469,131.904787 72.9296306,132.57858 72.7064074,133.027775 C73.5509897,133.260526 75.2829111,134.794536 75.8467067,135.366408 C76.5595024,136.088567 77.0244579,135.863413 77.5275424,136.375615 C78.0430281,136.901158 78.1479763,137.82994 77.623791,138.406259 C75.9644263,140.22954 74.1001629,136.172513 71.2271387,134.711516 C70.821969,134.924439 70.9618997,134.893307 70.7007326,135.27857 L75.242931,139.66156 C75.7399076,140.507878 75.1674129,141.496515 74.4771986,141.650694 C73.4873177,141.871771 73.0632681,141.021747 72.6531004,140.548647 C72.1570496,139.976775 71.6291623,139.673049 71.10072,139.130457 L68.4009437,135.957552 L67.795317,136.531832 C68.1107169,136.676931 69.2997583,137.72283 69.5649977,137.979116 C70.1826553,138.574893 70.5071246,138.938659 71.0348267,139.480881 C71.5636393,140.023474 74.0368607,142.032066 72.5292729,143.079076 C71.2210307,143.987474 69.8776209,141.606591 69.128547,140.963003 L66.2718111,137.981339 C65.6297211,138.340844 64.3714543,139.433256 64.0003414,139.923776 C64.8167897,140.298846 67.3446141,143.525863 68.5723406,143.852196 C69.6840129,143.647613 71.479977,143.791599 72.6788284,143.789932 C73.553211,143.78882 73.7745831,143.639644 74.6491504,143.638717 L83.0031681,143.50659 C83.7550187,143.484168 84.067272,143.353338 84.9766371,143.358526 C87.8781651,143.375019 90.2810516,143.210277 93.1846157,143.221952 C94.0897239,143.225658 94.3386746,143.081671 95.1556783,143.071479 L101.383895,142.93546 C102.044494,142.936942 102.704909,142.933236 103.365323,142.936386 C104.263953,142.941019 104.641173,142.831129 105.343604,142.79314 C106.667209,142.721796 108.289185,142.917114 109.566516,142.773312 L121.749196,142.368036 C123.197554,142.375819 124.633881,142.387308 125.872343,142.248139 C127.16985,142.102484 128.766653,142.329676 130.087111,142.220157 C132.477596,142.021688 137.541758,141.983699 140.283366,141.949788 C141.099814,141.939966 141.349135,141.795793 142.254243,141.7995 C145.194826,141.811545 147.655091,141.670152 150.606595,141.66589 C151.456545,141.664778 151.632384,141.523941 152.43495,141.51412 L160.789893,141.382734 C161.664276,141.381622 161.885833,141.232817 162.760215,141.23152 C164.127687,141.229481 165.620468,141.377916 166.948145,141.176482 L179.17062,140.811419 C179.878603,140.813086 180.586587,140.80938 181.2942,140.813457 C182.20338,140.818646 182.515818,140.687816 183.267669,140.665207 C184.571653,140.626292 186.098306,140.7675 187.366383,140.662428 L199.678258,140.245106 C200.01809,140.954479 201.021668,144.679613 202.269015,146.996934 C203.452133,149.196027 205.415052,152.244773 207.643024,153.369244 C211.440591,155.285922 214.458913,152.298514 212.522834,148.76666 C211.897402,147.624955 211.209594,146.995266 210.445157,146.032387 C209.668874,145.054869 209.15561,144.403313 209.148021,142.656566 C209.141727,141.144979 209.362544,139.681203 209.857299,138.68367 C210.822748,136.738455 210.689296,136.977877 212.077498,136.233851 C213.0485,135.713311 214.210332,135.024508 214.987541,134.33274 C220.119078,129.76592 220.415413,123.156411 221.380676,117.086901 C221.929849,113.633249 222.311327,107.158091 222.30707,103.854912 C222.303738,100.934586 221.887648,97.3943929 222.268386,94.6124955 L222.449037,87.7122328 C222.452739,86.7300811 222.326135,86.2425264 222.302628,85.4518016 C222.209896,82.3515386 222.307995,79.0802331 222.30707,75.9603271 C222.306515,72.9988624 222.618398,69.7518324 222.449222,66.6141364 L222.252468,62.1383052 C221.952986,60.1400904 221.317004,58.5810641 220.168313,57.145455 C219.333725,56.1027065 218.736058,55.6229348 217.457431,55.044948 C216.789428,54.7428901 216.590452,54.4015461 215.801583,54.2662685 L213.510123,57.8073881 C212.392898,59.4323853 210.507163,58.5793959 210.127907,57.1297037" id="Path" fill="#D5EAF5"></path>
                        <path d="M53.1554074,101.764115 C54.1573196,99.0763551 56.6477546,94.7660075 58.1362779,92.8393226 C59.1311567,91.5512217 60.2219134,90.5651788 61.9070061,89.677351 C62.6903229,89.2648473 66.1835957,87.7506661 66.5291653,87.410805 C67.0703794,86.5461409 67.7393079,85.8023003 68.3456747,84.9365244 C71.3717709,80.6163551 73.3480161,79.0117417 75.833454,75.8683014 L79.4405593,71.2659025 C79.8494314,70.7588897 80.9990481,69.3655318 81.030699,68.775685 C77.6173869,67.6178582 72.5095419,65.137833 69.3807184,63.2552523 L65.8674557,61.1262075 C63.9785747,67.0083683 63.026823,68.8246075 60.6866837,74.2972294 C58.9867834,78.2723487 55.8927579,86.9693924 52.8770267,89.554304 C49.8200194,92.1734982 48.5319527,93.231442 44.8261924,95.5135546 C41.5011696,97.5612478 39.5847098,99.0930333 36.5641662,101.118304 C35.9598354,101.52321 33.9484224,102.492389 34.3532223,103.263285 C34.5396116,103.490107 35.2213116,103.424692 35.4722986,103.408755 C35.9218911,103.379291 36.3072561,103.372619 36.7561083,103.369469 C37.6080945,103.364095 38.4404607,103.310355 39.2961487,103.269957 C45.1425176,102.993287 43.7165559,102.291697 48.3624069,101.898466 C49.1385047,101.832865 49.8925761,101.657931 50.6142566,101.632358 C51.4662424,101.602338 52.2969429,101.769674 53.1554074,101.764115 M169.872884,33.3346564 C169.872884,33.0483499 169.280029,32.823011 168.812667,32.5222503 C166.316679,30.9168959 167.111657,30.691557 163.820136,29.4544168 C163.259487,29.2439028 162.403984,28.6913036 161.945507,28.722436 C161.165708,28.775991 160.886401,29.4494134 160.10401,29.4470043 C158.891832,29.4425568 159.081368,29.2768883 157.941561,29.7835302 C156.76381,30.3066648 156.845436,29.964209 155.575694,30.1359928 C154.79904,30.7710557 152.244378,35.747784 151.276708,37.1309498 C150.742528,37.8944336 150.130423,38.5213427 149.482965,39.155479 C146.37117,42.2034842 139.821076,45.3189426 135.561515,47.8727218 C132.817317,49.5184742 131.478349,50.7861909 129.26685,53.0427303 C126.923009,55.4343617 127.833484,54.3649284 125.694727,57.1140261 C125.085769,57.8973381 124.413324,58.3552432 124.321332,59.5097345 C124.957869,59.5499471 129.268515,58.6248715 130.426461,58.4436366 C131.496118,58.2764858 132.555409,58.1441733 133.610443,57.9533024 C137.035786,57.3341761 136.798496,56.210076 136.869017,60.5259834 C136.887711,61.6602754 136.893634,62.7026532 136.86513,63.840652 L136.864019,64.7021656 L139.845138,62.4986252 C142.527885,60.196499 143.511103,59.0244034 145.538619,56.1652305 C146.058177,55.4332499 146.494073,54.939024 146.969023,54.1987041 C150.203535,49.1615643 152.055952,46.9795199 156.187613,42.7520065 C157.617832,41.2889715 158.17626,41.1090339 160.447174,40.2245416 C163.542681,37.268451 164.756525,37.6073859 168.421935,36.0531775 C168.769911,35.9056695 168.939827,35.4327543 168.887445,34.9674369 C168.428598,34.9709578 168.011027,35.0784385 167.849995,34.7124481 C167.897379,34.4746933 167.894232,34.1572545 168.660705,34.1133357 C169.506028,34.0645988 169.872884,34.0729378 169.872884,33.3346564 M171.839504,22.4103523 C171.613505,23.65787 170.897007,25.3973899 170.561617,27.6941419 C170.03262,31.3156865 170.654349,36.2331151 170.748747,39.9167391 C169.674834,40.0262582 168.85635,39.6109749 167.811126,39.5598289 C166.456795,40.3066346 165.254797,40.8364405 164.378193,42.3167096 C162.359932,45.7245898 164.08593,48.4203178 166.239495,51.1023324 C169.218578,54.8130118 173.963824,57.0341569 179.171064,56.9440953 C181.188215,56.9090716 182.837215,56.7708292 184.707771,56.3021759 C187.396997,55.628939 188.233436,54.8799096 189.353808,54.5700683 C188.970108,52.0261108 185.190495,46.8195961 185.641569,41.9714741 C185.758363,40.7152467 186.470789,38.6141838 187.083449,37.8303158 C187.450489,35.5900838 190.200056,35.7952238 191.181237,35.1683146 C192.996081,34.0095612 193.204311,31.268988 192.04692,30.6428201 C191.271933,30.2236452 190.161186,30.5842616 189.5563,29.737017 C188.509595,28.2708316 189.833385,25.5964146 187.878426,24.6242699 C182.378553,21.8885148 183.157427,15.8164096 179.341906,16.2481857 C176.054827,16.6202914 172.88843,19.21836 171.839504,22.4103523 M159.431195,35.2719038 C159.378258,34.5356608 159.812303,34.5254687 160.49937,34.4676515 C163.624862,34.2052502 162.701244,34.0547772 165.97148,34.4035337 C165.446924,34.8115898 165.676995,34.9133259 164.74727,34.9939364 C163.592471,35.093634 159.909477,35.5218892 159.431195,35.2719038 M43.256598,151.451529 L43.0707639,151.714671 C42.8123732,152.511696 41.0208516,154.244545 40.2863999,154.588113 C39.923061,155.027672 39.9486039,154.983938 39.4377454,155.254678 L39.2963338,155.396071 L39.1549223,155.537834 L39.0135107,155.728335 L38.7303174,155.835075 L32.8261995,160.953937 C32.2040997,161.589926 31.4655759,162.165504 30.6966969,162.645276 L26.1176646,165.423838 C25.3376799,165.898606 24.5201211,166.256258 23.7621625,166.747148 C23.1326589,167.155019 22.2275509,168.048777 22.041902,168.847655 C22.8829676,170.105735 25.7408139,169.402848 27.2854205,169.283508 C30.3124424,169.049274 32.6555432,168.528734 35.7688187,168.289682 C36.3481619,168.245392 36.6683739,168.283567 37.2380922,168.196284 L41.4982081,168.178865 C42.389064,168.1431 43.9545861,168.296168 44.4502671,168.213704 C46.2081017,167.921653 46.9817931,166.386717 47.5157884,164.899591 C47.7936141,164.126101 48.0612596,163.494188 48.2922561,162.5617 C49.0100494,159.6625 49.082421,157.609433 50.58168,155.225029 L53.3788153,151.714671 C54.5032594,148.4997 66.012384,138.990806 68.982582,135.219159 C68.826363,134.392299 67.8842361,134.49144 67.0285483,134.295566 C63.7573877,133.545795 63.3340783,133.194259 60.40275,132.140022 C57.5537884,131.115248 54.2659693,129.732453 51.389799,128.726026 C51.2087773,128.994542 51.2659714,129.167068 51.1040143,130.146069 C51.0368254,130.551901 50.755668,131.21402 50.6164774,131.625411 C50.2818283,132.614049 49.9490297,133.475377 49.5801381,134.410644 C48.236358,137.820378 44.6253656,150.08745 43.256598,151.451529 M126.355881,88.2825104 C125.743962,87.9748935 124.511238,86.8693242 123.925416,86.3843637 C120.179491,83.284842 118.549556,84.4871436 116.397472,83.3028173 C115.745017,82.9438686 115.660984,82.5172813 114.868968,82.6634924 C114.39846,83.8787659 115.27784,84.6453996 115.872732,85.10349 C116.255875,85.3983208 116.564612,85.5841882 116.9472,85.8686418 C117.425112,86.2236988 117.822878,86.3276586 117.915425,86.8630236 C117.068992,87.3876408 114.321646,87.0572304 113.189984,86.9458581 C111.402719,86.7701826 110.253843,86.4966625 108.344232,86.5483645 C107.395997,86.6858657 106.609719,86.6558455 105.95602,87.0405521 C105.935422,88.8710602 107.968862,87.941908 109.324117,88.6837104 C110.039134,89.0749029 109.738727,89.7916881 111.159136,90.6713623 C111.679989,90.9936191 111.508408,90.8303595 111.873968,91.2295208 C112.60009,92.0224692 112.842563,91.5315787 113.654569,91.9941167 C114.246869,92.3313836 114.242796,92.6805106 115.242302,92.9681143 C116.494091,93.3281748 118.625259,93.2805498 120.056589,93.3452237 C123.510622,93.7940482 124.206018,95.0465694 127.177512,97.147447 C134.672695,102.446432 141.164671,106.65912 150.885975,106.394125 C159.763808,106.152293 168.560015,102.859121 175.45679,98.1535036 C177.869671,96.5071952 178.08586,96.3126183 180.107638,94.5997831 C180.611463,94.1728252 181.131391,93.5742684 181.617818,93.2655393 C182.240473,92.3211917 183.615534,90.905411 184.276318,89.9908984 C187.508424,85.5178467 191.592886,78.3344279 191.885519,72.601443 C190.787358,71.1819563 190.85103,70.8235635 188.349119,69.8851455 C186.629414,69.2400759 184.726095,69.1868916 182.814078,69.569004 C178.582096,70.4143956 177.034528,71.798488 174.567045,73.8993656 C172.299647,75.82883 170.288049,77.9830773 168.272749,80.1969949 L159.652011,88.9881772 C159.251284,89.3550942 159.205936,89.433481 158.834453,89.7253466 C158.254925,90.1812134 157.757763,90.6376356 157.130481,91.1326032 C153.341798,94.1224203 150.632397,95.1900006 145.088657,94.8188213 C138.743275,94.394087 135.678495,93.0615113 130.354275,90.5701823 C129.386235,90.1172808 127.089963,88.8749519 126.355881,88.2825104" id="Shape" fill="#DFEAF3"></path>
                        <path d="M96.2271484,17.6224565 C96.0757419,17.700658 96.3187697,17.6669313 95.8606629,17.7304932 L94.4493236,17.7616255 C92.4806674,17.9334093 87.5479213,21.7436011 86.4432823,22.7717099 C83.4399523,25.5671354 82.4095359,28.9939174 81.850368,33.1710262 C86.5008463,33.6285606 91.0987581,36.3885915 94.3304936,38.419792 C97.2103659,40.2297303 99.6486051,42.0050155 102.307661,43.7428675 C102.807599,44.0693867 103.188522,44.3366061 103.641631,44.6718348 C104.214681,45.0956422 104.581536,45.2403705 104.912669,45.719401 L105.047602,45.7620229 L108.366517,48.1564342 C110.935432,50.0258573 113.564872,52.124326 115.893351,54.2120465 L120.997124,58.8731892 C121.450048,59.3247936 121.437276,59.4635919 122.032353,59.9405837 L124.321221,59.5097345 C124.413398,58.3554285 125.085843,57.8973381 125.694801,57.1142114 C127.833558,54.3651137 126.922897,55.4343617 129.266924,53.0427303 C131.478608,50.7861909 132.81702,49.5184742 135.561589,47.8729071 C139.820965,45.3189426 146.371245,42.2034842 149.48304,39.155479 C150.130497,38.5213427 150.742602,37.8944336 151.276782,37.1311351 C152.244267,35.747784 155.345511,30.2688612 155.575398,30.1361781 C156.845325,29.964209 156.763884,30.3062942 157.941635,29.7835302 C159.081442,29.2768883 158.891906,29.4425568 160.104084,29.446819 C160.886475,29.4494134 161.165967,28.775991 161.945396,28.722436 C162.403873,28.6913036 163.259561,29.2439028 163.820025,29.4546021 C167.111546,30.691557 166.316568,30.9167106 168.812556,32.5222503 C169.879621,33.2877725 169.576623,32.820046 170.426018,33.3001884 C170.547995,32.3499105 170.31126,29.409386 170.561691,27.6941419 C170.896896,25.3973899 171.613579,23.65787 171.839578,22.4099816 C170.604263,22.5435913 169.771712,21.5151119 169.360434,20.650448 C168.781831,19.4329508 169.218652,18.2973613 169.543121,17.1973517 L162.340386,16.6314101 C161.6672,16.5976833 161.363832,16.4827901 160.504072,16.4876083 C158.553555,16.4990976 156.042204,16.2450354 154.710825,16.3552958 C152.329965,16.5526526 149.691825,16.3510336 147.328364,16.0852968 C145.235325,15.8503217 141.673567,16.0647272 139.422273,16.0647272 C139.935168,16.3258312 149.302388,17.1617718 152.016231,17.8907877 C151.901103,18.5267771 149.440098,20.8094453 148.907398,21.3055245 L142.345087,27.6224263 C141.627479,28.3179007 141.586018,28.7639458 140.071767,28.4526223 L118.656059,24.2595767 C117.697644,24.0731532 116.739414,24.0574017 115.91186,23.9095231 C115.988119,23.3161553 115.928148,23.4805268 117.11756,22.6123419 L121.244964,19.6634784 C122.535622,18.7384029 126.623601,16.367341 126.955289,15.9231491 L119.325357,16.327499 C117.455171,16.537457 110.139344,16.5456108 107.594861,16.7603869 C105.022244,16.9775721 100.654959,17.4452986 98.1254691,17.4749484 C97.3173501,17.4845846 97.1098603,17.6224565 96.2271484,17.6224565 L96.2271484,17.6224565 Z M84.7137669,69.5171167 C86.189889,69.3731296 86.968578,68.8929873 88.2216621,68.5764751 C88.1526223,68.4204427 86.9278573,66.8228715 86.3927516,66.6073541 L84.7137669,69.5171167 Z M89.6970437,81.1730313 C91.412307,80.929902 93.1236827,80.6760254 94.8755944,80.5144335 C95.7314674,80.4358614 99.9573411,80.2501793 100.341596,80.0787661 C99.799086,79.1981655 98.0912267,78.0562754 97.2799611,77.2357156 C96.9112547,76.8630539 94.5590841,74.5596306 94.1566907,74.4221294 C92.9928219,73.7146096 92.896203,73.2420654 92.0101594,72.32014 C91.5614923,71.8529695 91.379175,71.8235047 90.9469813,71.2599725 C90.6365794,70.8554371 90.4152073,70.4938942 89.9508073,70.2846774 C88.7123456,71.5177408 84.583461,71.8892903 82.4944937,72.0469905 L82.5278109,73.706456 C83.710374,73.5750701 85.9089167,74.1365644 87.5212676,74.0902365 C88.9005857,74.0505799 91.532988,73.1905487 91.6183161,74.9758407 C91.8807789,76.2439279 83.7579433,75.6149803 82.601478,75.7862082 C82.6240594,76.6241874 82.8311794,76.6403093 84.5842016,77.2038419 C86.265222,77.7443957 89.3424043,77.897834 90.0124436,78.5686619 C90.2860119,78.8423673 90.4305699,79.3308485 90.2724999,79.8386021 C90.0996227,80.3949076 89.87751,80.3472827 89.4062619,80.6330329 L89.6970437,81.1730313 Z M180.860118,94.4267018 C180.063475,95.1147639 179.168547,96.4323295 177.079765,98.0810467 C169.063543,104.40777 162.190275,107.239517 152.743094,111.237244 C147.253586,113.560125 145.445221,113.516576 141.455712,114.994436 C143.061215,115.136756 181.547371,113.426515 186.42718,113.244353 C187.43446,113.206921 188.658114,113.205809 189.63689,113.081094 C190.152561,113.015309 191.555016,112.410266 192.142503,112.168805 C195.806247,110.662778 197.577593,109.511066 200.231281,106.815338 C204.233562,102.749046 203.121334,102.225726 204.176368,97.3203426 C204.978193,93.5920585 205.298406,89.1001054 205.441483,85.1663108 C205.475355,84.23827 206.28588,73.4775961 206.043593,72.7191159 C205.909585,72.3001263 206.167976,72.669267 205.852021,72.3735097 C205.706352,73.6041642 204.686116,75.5023109 204.22949,76.6923819 C202.348383,81.5922057 201.585797,83.9721628 198.742203,88.7593173 C197.966845,90.0648376 197.039156,91.0190069 196.166994,92.1258732 C195.298905,93.2271802 194.634789,94.2977252 193.75726,95.5204111 C193.199388,96.2977931 188.75714,101.658487 188.222404,101.733353 C187.062052,101.473176 184.50054,99.2540693 183.994494,98.602884 C183.035524,97.3696357 181.678047,95.7867036 180.860118,94.4267018 L180.860118,94.4267018 Z" id="Shape" fill="#D5EAF5"></path>
                        <path d="M193.317274,6.29430283 C192.653528,6.61211222 191.493176,6.63490551 190.726332,6.81280465 C187.057591,7.66468209 186.029951,8.66110258 184.308024,9.24094256 C185.031556,7.24328351 185.223128,6.1121415 185.279581,3.746083 C186.661676,3.746083 188.377124,4.42339691 189.607256,4.7667793 C190.175679,4.9252207 191.074124,5.20226154 191.616818,5.44483445 C192.092139,5.65775746 192.88545,6.18033618 193.317274,6.29430283 L193.317274,6.29430283 Z M178.039457,11.0429125 C177.396257,9.43922597 177.532486,7.90113969 178.376513,6.49073311 C178.948267,5.53619306 180.416985,4.41579911 181.737629,4.31202462 C181.569009,5.36607702 181.365591,6.31005431 181.274154,7.42155329 C181.184199,8.52063638 181.342824,9.91825643 181.198266,10.839811 L178.039457,11.0429125 Z M176.136879,12.9495836 C174.976712,13.3735765 174.512868,13.4104536 173.191669,14.0432926 C171.851406,14.6848414 170.293287,15.8875137 169.543103,17.1974814 C169.218633,18.2971204 168.781812,19.4328952 169.360415,20.6503924 C169.771693,21.5150563 170.604245,22.5435357 171.83956,22.4102967 C172.888485,19.2183044 176.054883,16.6202358 179.341962,16.2481301 C183.157482,15.816354 182.378423,21.8884592 187.878481,24.6242144 C189.833256,25.596359 188.509466,28.270776 189.556356,29.7369614 C190.161242,30.5843913 191.271989,30.2235896 192.046976,30.6427645 C193.204367,31.2689324 192.996136,34.0096909 191.181108,35.168259 C190.200111,35.7951682 187.450545,35.5902136 187.083319,37.8302602 C189.54599,38.9163715 192.660376,39.7471233 195.40365,40.5915883 C199.466085,41.842071 203.46707,43.4355655 207.149139,45.4013507 C210.216141,47.0383937 211.275987,48.7690184 210.884144,52.4756212 C210.652777,54.6597039 209.942943,56.0817848 210.127851,57.1297221 C210.507478,58.5796001 212.393027,59.4324037 213.510068,57.8070359 L215.801712,54.2664726 C215.925355,53.8495213 216.210584,53.5161457 216.42048,52.7919481 C216.603908,52.1583679 216.656845,51.671554 216.653638,50.9010285 C216.644814,49.0451327 216.679427,48.4686287 216.244271,47.0558127 C214.99711,43.0058276 210.973914,40.2472794 211.274877,34.8965922 C211.441831,31.9277151 211.61804,30.3447834 210.240203,27.5795637 C209.364525,25.8222539 207.743475,24.2004067 206.103729,23.2252971 C204.110086,22.0407853 202.839603,21.774122 201.258903,19.4380839 C200.6803,18.5825003 200.1861,17.6311105 199.977684,16.472913 L199.332078,12.8717527 C199.290987,12.7344368 197.907412,10.2835056 197.802093,10.1548994 C197.326032,9.57265031 196.171418,8.46615477 195.576712,7.95117381 C193.133106,9.21166331 192.060858,10.5379384 188.877617,11.4787654 C188.049878,11.7233767 186.919881,11.7226355 186.22578,12.0810281 C188.463747,12.854704 190.743176,14.4504223 191.911488,16.194575 C193.960289,19.2535136 195.737559,24.5002409 195.881191,28.3930816 L193.441101,28.9738482 C193.057402,26.1582238 191.882428,21.8039571 190.056664,19.7499634 C189.801049,19.4623598 189.745891,19.4725519 189.502123,19.1740149 C189.340907,18.9761021 189.287229,18.8864113 189.065302,18.6193773 C187.031493,16.1745614 182.972759,14.1088929 179.740468,13.3656081 C179.086162,13.2151351 176.240902,13.0077714 176.136879,12.9495836 L176.136879,12.9495836 Z" id="Shape" fill="#60A7DF"></path>
                        <path d="M181.617873,93.265484 C182.240343,92.3213213 183.615589,90.9053552 184.276374,89.9910279 C187.508479,85.5177913 191.592941,78.3343726 191.885574,72.6013873 C192.098987,71.1820858 192.100283,68.9609411 192.088437,67.4645499 C192.077146,65.976127 191.862808,64.0583373 191.634217,62.6210605 C191.297717,60.5042463 190.265449,56.187783 189.353863,54.5700129 C188.970164,52.0260551 185.190551,46.8195404 185.641624,41.9716038 C185.758419,40.7151912 186.470844,38.6143136 187.083319,37.8302602 C189.54599,38.9163715 192.660376,39.7471233 195.403835,40.5915883 C199.466085,41.842071 203.46707,43.4355655 207.149139,45.4013507 C210.216141,47.0383937 211.275987,48.7690184 210.884144,52.4756212 C210.652777,54.6597039 209.942943,56.0817848 210.127851,57.1297221 C209.748594,57.719569 208.578432,63.6575084 208.22916,64.981004 C207.557455,67.5247761 206.692698,69.8989885 205.852002,72.373269 C205.706334,73.6042938 204.686097,75.5022551 204.229841,76.6923261 C202.348549,81.5919651 201.585778,83.9719218 198.742184,88.7592615 C197.966827,90.0649671 197.038952,91.0189515 196.166976,92.1258175 C195.298887,93.2271244 194.634771,94.2976695 193.757241,95.5203553 C193.199369,96.2977377 188.756751,101.658617 188.222385,101.733483 C187.062218,101.47312 184.500892,99.2540136 183.994476,98.6028287 C183.035505,97.3695799 181.678029,95.7866483 180.8601,94.4268318 C181.074438,93.9240813 181.319687,93.7719405 181.617873,93.265484 L181.617873,93.265484 Z M13.2057708,71.2200748 C14.2404444,70.9309887 22.7058885,65.9514805 23.7420429,65.3416204 C25.5433744,64.2816378 27.1362906,63.2959655 28.8152752,62.2109662 C31.9635335,60.1755036 33.2388288,58.8143896 35.7740568,56.858982 C40.2368503,53.4171893 39.8031758,52.0775718 41.234135,54.3381882 C42.601607,56.4976239 46.6740377,64.0411032 47.6900169,66.2830032 C49.1648434,69.5374456 52.140039,77.5332705 53.1280689,79.386757 C53.7044507,80.4687915 55.1193069,82.0198495 54.4979473,83.6711609 C54.2919381,84.2183864 52.2283286,86.666538 51.7456046,87.148348 L49.6849564,89.1914083 C48.1553426,90.4600514 48.0352166,90.5762419 46.182429,91.777617 L36.2593724,98.2657466 C35.3742545,98.8402128 31.8739481,100.795621 30.810585,100.900878 C29.136968,98.3072567 27.4650169,96.9240908 25.5687323,94.2352193 C20.7270521,87.368313 18.4187489,83.0518497 14.9935906,75.3677191 L13.2057708,71.2200748 Z" id="Shape" fill="#A6D0F3"></path>
                        <path d="M148.627536,19.3918302 C147.639136,19.4963459 147.669492,19.3410548 147.139754,19.5159889 C146.467308,19.7383628 145.748219,20.0593225 145.274565,20.2249911 L136.952383,23.2105463 C136.488168,23.3671346 135.438687,23.5639355 135.683566,24.0870702 C135.936219,24.6276241 138.23175,23.6393573 138.936032,23.363243 C140.024013,22.9370264 141.166781,22.5695535 142.280859,22.1729866 C143.373468,21.7838323 144.517161,21.3692902 145.629019,20.9994083 C146.411965,20.7390455 147.083855,20.6786322 147.482732,20.402149 C148.105572,19.9701877 147.799983,20.169027 148.627536,19.3918302" id="Path" fill="#4E7BA0"></path>
                        <path d="M94.1565981,74.4221478 C94.5591767,74.5596491 96.9113473,76.8630723 97.2798686,77.235734 C98.0913193,78.0562938 99.7989934,79.1981839 100.341688,80.0787846 C100.877164,80.3484129 103.494944,82.7580196 104.292327,83.3840021 C105.512095,84.3416925 106.040722,84.9168998 107.289549,85.7669239 L108.344213,86.5483829 C110.253825,86.4964961 111.402701,86.7700157 113.19015,86.9458765 C114.321628,87.0572488 117.069159,87.3876592 117.915222,86.8632274 C117.82286,86.3276771 117.425094,86.2237172 116.946996,85.8684749 C116.564593,85.5842071 116.255672,85.3985245 115.872713,85.1035084 C115.277822,84.6454185 114.398442,83.8787843 114.86895,82.6638815 C115.660966,82.5172997 115.744998,82.943887 116.397824,83.3028357 C118.549722,84.4871624 120.179472,83.2848604 123.925583,86.3843822 C124.51122,86.8691574 125.743944,87.9749119 126.355863,88.2825293 C127.325754,88.4548689 135.076366,87.6654416 135.781943,87.3337337 C136.191185,79.059015 137.001711,68.6704464 136.868998,60.5261872 C136.798478,56.2102802 137.035953,57.3341949 133.610239,57.9533209 C132.55539,58.1441918 131.495914,58.2765042 130.426443,58.4436555 C129.268312,58.6247047 124.957851,59.5499655 124.321314,59.509753 L122.03226,59.9406026 L117.93151,60.5293373 L114.673861,56.8484932 C114.026033,56.1283722 113.660658,55.7199455 112.996913,54.991115 L105.04751,45.7620413 L104.912576,45.7194199 L104.376545,45.6995915 C103.525854,46.8335129 96.6777591,66.8301171 95.0702203,70.7705828 C94.7018841,71.6732359 93.6851644,73.5667496 94.1565981,74.4221478" id="Path" fill="#B4D3E2"></path>
                        <path d="M105.515538,49.4517248 L116.850119,61.8112674 C115.40028,69.4753844 113.945629,77.1395018 112.488016,84.8021364 L97.7638144,72.1294175 C100.260728,64.4721566 102.748757,56.8121166 105.241969,49.1539292 L105.515538,49.4517248 Z M116.341666,61.9569223 L105.441315,50.0706659 L98.3111366,71.9767204 L112.176504,83.9102316 L116.341666,61.9569223 Z" id="Shape" fill="#FFFFFF"></path>
                    </g>
                </g>
            </g>
        </g>
    </g>
</svg>