<?xml version="1.0" encoding="UTF-8"?>
<svg width="28px" height="28px" viewBox="0 0 28 28" version="1.1" xmlns="http://www.w3.org/2000/svg" xmlns:xlink="http://www.w3.org/1999/xlink">
    <!-- Generator: sketchtool 55.1 (78136) - https://sketchapp.com -->
    <title>052AAE05-D529-43F9-97C3-4EE442389B96@1.5x</title>
    <desc>Created with sketchtool.</desc>
    <g id="Asset-Artboard-Page" stroke="none" stroke-width="1" fill="none" fill-rule="evenodd">
        <g id="Circle" transform="translate(-175.000000, -54.000000)" fill="#FFFFFF" fill-rule="nonzero">
            <g id="Group-9">
                <g id="Group-17" transform="translate(161.000000, 40.000000)">
                    <g id="shutterstock_426224740-[Converted]" transform="translate(14.000000, 14.000000)">
                        <path d="M25.6302083,2.66145833 L21.853125,2.66145833 L21.853125,0.91875 C21.853125,0.4375 21.459375,0.04375 20.978125,0.04375 C20.496875,0.04375 20.103125,0.4375 20.103125,0.91875 L20.103125,2.66145833 L14.875,2.66145833 L14.875,0.91875 C14.875,0.4375 14.4885417,0.04375 14,0.04375 C13.51875,0.04375 13.125,0.4375 13.125,0.91875 L13.125,2.66145833 L7.88958333,2.66145833 L7.88958333,0.91875 C7.88958333,0.4375 7.49583333,0.04375 7.01458333,0.04375 C6.53333333,0.04375 6.13958333,0.4375 6.13958333,0.91875 L6.13958333,2.66145833 L2.3625,2.66145833 C1.07916667,2.66145833 0.0364583333,3.70416667 0.0364583333,4.9875 L0.0364583333,25.6302083 C0.0364583333,26.9135417 1.07916667,27.95625 2.3625,27.95625 L25.6229167,27.95625 C26.90625,27.95625 27.9489963,26.9135417 27.9489963,25.6302083 L27.9489963,4.9875 C27.95625,3.70416667 26.9135417,2.66145833 25.6302083,2.66145833 Z M26.20625,25.6302083 C26.20625,25.9510417 25.94375,26.2135417 25.6229167,26.2135417 L2.3625,26.2135417 C2.04166667,26.2135417 1.77916667,25.9510417 1.77916667,25.6302083 L1.77916667,4.9875 C1.77916667,4.66666667 2.04166667,4.40416667 2.3625,4.40416667 L6.13958333,4.40416667 L6.13958333,6.146875 C6.13958333,6.628125 6.52604167,7.021875 7.01458333,7.021875 C7.49583333,7.021875 7.88958333,6.63541667 7.88958333,6.146875 L7.88958333,4.40416667 L13.125,4.40416667 L13.125,6.146875 C13.125,6.628125 13.51875,7.021875 14,7.021875 C14.48125,7.021875 14.875,6.63541667 14.875,6.146875 L14.875,4.40416667 L20.1104167,4.40416667 L20.1104167,6.146875 C20.1104167,6.628125 20.496875,7.021875 20.9854167,7.021875 C21.4666667,7.021875 21.8604167,6.63541667 21.8604167,6.146875 L21.8604167,4.40416667 L25.6375,4.40416667 C25.9583333,4.40416667 26.2208333,4.66666667 26.2208333,4.9875 L26.2208333,25.6302083 L26.20625,25.6302083 Z" id="Shape"></path>
                    </g>
                </g>
            </g>
        </g>
    </g>
</svg>