<?xml version="1.0" encoding="UTF-8"?>
<svg width="28px" height="28px" viewBox="0 0 28 28" version="1.1" xmlns="http://www.w3.org/2000/svg" xmlns:xlink="http://www.w3.org/1999/xlink">
    <!-- Generator: sketchtool 55.1 (78136) - https://sketchapp.com -->
    <title>120A8810-BD8F-4B92-989E-7D5080E48335@1.5x</title>
    <desc>Created with sketchtool.</desc>
    <g id="Asset-Artboard-Page" stroke="none" stroke-width="1" fill="none" fill-rule="evenodd">
        <g id="Circle" transform="translate(-147.000000, -168.000000)" fill="#FFFFFF" fill-rule="nonzero">
            <g id="Group-9">
                <g id="Group-20" transform="translate(133.000000, 154.000000)">
                    <g id="Group-19">
                        <path d="M42,27.6394222 C42,35.1723556 35.8465333,41.2788444 28.2544889,41.2788444 C25.8443111,41.2788444 23.5800444,40.6628444 21.6100889,39.5817333 L14,42 L16.4811111,34.6820444 C15.2295111,32.6268444 14.5086667,30.2163556 14.5086667,27.6394222 C14.5086667,20.1064889 20.6627556,14 28.2544889,14 C35.8471556,14 42,20.1064889 42,27.6394222 Z M28.2544889,16.1721778 C21.8816889,16.1721778 16.6979556,21.3164 16.6979556,27.6394222 C16.6979556,30.1485333 17.5158667,32.4722222 18.8993778,34.3625333 L17.4555111,38.6213333 L21.8966222,37.2098222 C23.7212889,38.4079111 25.9071556,39.1066667 28.2548,39.1066667 C34.6266667,39.1066667 39.8113333,33.9630667 39.8113333,27.6400444 C39.8113333,21.3170222 34.6269778,16.1721778 28.2544889,16.1721778 Z" id="WhatsApp"></path>
                    </g>
                </g>
            </g>
        </g>
    </g>
</svg>