<?xml version="1.0" encoding="UTF-8"?>
<svg width="300px" height="338px" viewBox="0 0 300 338" version="1.1" xmlns="http://www.w3.org/2000/svg" xmlns:xlink="http://www.w3.org/1999/xlink">
    <!-- Generator: sketchtool 55.1 (78136) - https://sketchapp.com -->
    <title>AFD4C6E3-96E2-46D0-983B-F214A03EAC80</title>
    <desc>Created with sketchtool.</desc>
    <g id="Visual-Design" stroke="none" stroke-width="1" fill="none" fill-rule="evenodd">
        <g id="KnowledgeCentre_Article8" transform="translate(-1353.000000, -1270.000000)" fill-rule="nonzero">
            <g id="Keeping-Fit-(3)" transform="translate(1353.000000, 1270.000000)">
                <rect id="Rectangle" fill="#FFFFFF" x="0" y="0" width="300" height="338"></rect>
                <g id="Group" transform="translate(0.428571, 46.753807)">
                    <path d="M29.4225125,170.066491 C28.0281054,169.621718 26.651857,169.116368 25.2975905,168.539279 C16.3217119,164.716149 9.7463034,156.961167 5.63476166,148.030009 C4.26265486,145.053062 3.1619748,141.945394 2.31519981,138.809031 C-2.44528125,119.40643 -0.133056691,98.908318 11.7597037,81.7161887 C26.2950519,61.218077 50.080254,51.630122 73.8335987,55.3945867 C84.0774099,56.8331627 93.7379083,60.8102895 104.067735,62.2351555 C109.330929,62.9614574 114.775392,63.3351302 119.884714,61.8771054 C135.55483,57.4064249 135.014844,37.9534487 138.614434,25.1806678 C146.929905,-4.32512242 186.295065,-8.56146052 202.893831,15.978501 C207.570207,22.8917635 209.812345,31.1154309 213.116616,38.7811399 C223.254978,62.3008351 247.42056,64.1162717 269.433524,69.8138228 C298.504539,77.4183158 303.790033,114.777927 294.97185,139.644693 C293.953999,142.950356 292.686386,146.265266 291.145752,149.455831 C286.523533,159.02912 279.446049,167.489361 269.305138,171.262753 C253.21259,177.250443 235.338247,172.175892 218.738845,172.599622 C199.579047,173.088712 180.416064,173.445486 161.251488,173.668988 C138.255717,173.937765 115.257717,174.015241 92.2606714,173.901418 C72.0231313,173.801623 48.90216,176.564951 29.4225125,170.066491 M68.5255817,237.497776 C28.4098804,226.573476 117.570283,196.308948 118.654502,195.142419 C125.366267,187.920297 311.846372,205.60501 259.879732,230.258656 C224.386976,247.098021 104.36901,247.258908 68.5255817,237.497776" id="Shape" fill="#EAF6FF"></path>
                    <g transform="translate(32.571429, 42.893401)">
                        <path d="M148.727062,4.24125841 L149.320968,8.25606088 C150.203395,14.2370294 154.506868,18.6042048 158.881536,17.9594373 C163.258077,17.3165441 166.117067,11.8978728 165.232766,5.91502994 L164.63886,1.90022748 L164.623872,1.81213424 C159.623449,-0.317098057 154.141532,-0.266491304 148.67835,0.430757302 C148.532216,1.64344506 148.534089,2.92548282 148.727062,4.24125841" id="Path" fill="#96C9F1"></path>
                        <path d="M152.198693,4.3424719 C150.984652,5.89253806 150.360771,8.07987439 150.703625,10.3984134 L151.572937,16.2856657 C152.166843,20.3060912 155.389296,23.1944248 158.733528,22.7014775 C162.079633,22.2104046 164.329729,18.5179859 163.737697,14.4956862 L162.896487,8.80336352 L152.198693,4.3424719" id="Path" fill="#DFEAF3"></path>
                        <g transform="translate(152.346857, 11.843726)" id="Path">
                            <path d="M1.05479043,1.06936682e-12 C1.18195476,0.235921502 1.29004444,0.481811519 1.38223858,0.737670047 C1.40449234,0.802465389 1.42515655,0.867260731 1.4442312,0.93870175 C1.46330585,1.01346561 1.47125362,1.07992237 1.48397005,1.14804055 C1.50463425,1.28593832 1.51735069,1.42882036 1.51417158,1.57668666 C1.51099247,1.72289153 1.49032827,1.87574208 1.44582075,2.02526979 C1.42038789,2.10169507 1.39654457,2.16649041 1.36157438,2.24291569 C1.32501464,2.31934096 1.28050712,2.38745914 1.23282049,2.45059307 C1.18354431,2.51372699 1.13108903,2.57353807 1.07386508,2.62504206 C1.01823069,2.67820747 0.953058964,2.72805004 0.908551449,2.76293984 C0.808409537,2.84102653 0.733700494,2.90914472 0.690782529,2.97394006 L0.689192979,2.97560148 L0.676476544,2.99221567 C0.64150635,3.03707398 0.611304823,3.08857797 0.589051067,3.14174338 C0.565207753,3.19324737 0.54931221,3.24973561 0.544543547,3.29957819 C0.538185334,3.35108218 0.542953993,3.39594049 0.552491319,3.42750745 C0.557259981,3.44412164 0.566797307,3.46572009 0.574745079,3.47901144 C0.581103296,3.49064137 0.592230171,3.50393273 0.604946606,3.51722408 C0.633558583,3.54380678 0.67488699,3.57205091 0.725752723,3.59531077 C0.776618456,3.61690922 0.83543196,3.63186199 0.897424569,3.64349192 C0.9276261,3.64847618 0.959417181,3.65179902 0.994387371,3.65346044 C1.03094712,3.65678328 1.07227553,3.6584447 1.10883527,3.66010612 C1.18354431,3.66176754 1.25984292,3.66342895 1.33614151,3.66176754 C1.49191782,3.66010612 1.64769413,3.65179902 1.80664954,3.64183051 L1.9258661,3.63352341 L2.03872445,3.6235549 C2.11502304,3.6152478 2.19132165,3.60361787 2.26762024,3.59032652 C2.3455084,3.57537375 2.41703833,3.56042097 2.48697872,3.53882253 C2.5569191,3.51556266 2.62526993,3.48731854 2.68567299,3.4491059 C2.70156853,3.43913739 2.71746407,3.42916887 2.73177006,3.41920036 C2.74607604,3.40923184 2.75879247,3.39760191 2.77150891,3.38597198 C2.79535222,3.36105069 2.81760598,3.33280657 2.83509108,3.29957819 C2.87165082,3.23312143 2.88913592,3.15005048 2.88913592,3.06365669 C2.92569566,3.14174338 2.9415912,3.23478285 2.92728522,3.32948373 C2.920927,3.37766488 2.90662101,3.42584603 2.88436725,3.47070435 C2.87324037,3.49230279 2.85893439,3.51390124 2.8446284,3.53383827 C2.83191197,3.5537753 2.81760598,3.57205091 2.80171044,3.59032652 C2.67931477,3.73320855 2.51241158,3.82957086 2.35504572,3.89602762 C2.27715757,3.93257884 2.19609031,3.96248438 2.11343349,3.98906708 C2.07210508,4.00235843 2.03077668,4.01564979 1.98785871,4.0256183 L1.8670526,4.05718526 C1.70491808,4.09705932 1.53960444,4.13194912 1.37111171,4.15354757 C1.28686533,4.16351608 1.20102941,4.17514601 1.11519349,4.17846885 C1.06909642,4.18179169 1.02935757,4.18179169 0.984850046,4.18345311 C0.94034253,4.18345311 0.889476797,4.18345311 0.840200619,4.17846885 C0.741648261,4.17016176 0.64150635,4.15022473 0.539774889,4.11367351 C0.439632977,4.07546087 0.336311956,4.02063404 0.244117815,3.93424026 C0.198020745,3.88938194 0.153513229,3.83953937 0.118543038,3.77972828 C0.0819832924,3.72157862 0.056550426,3.66509037 0.0374757762,3.60195645 C-0.00385263158,3.47236577 -0.00703173985,3.3444365 0.00886380159,3.22813717 C0.0390653304,2.99221567 0.139207242,2.79284538 0.280677561,2.62670348 L0.266371573,2.64497909 C0.320416414,2.57187665 0.382409026,2.51040415 0.442812086,2.45890016 C0.50321514,2.40739617 0.563618199,2.36752211 0.61766304,2.32930947 C0.676476544,2.28943542 0.717804951,2.26285272 0.759133359,2.22962433 C0.800461766,2.19805737 0.838611064,2.16316757 0.873581259,2.12661636 C0.908551449,2.09006513 0.938752976,2.05019108 0.964185844,2.01031702 C0.989618709,1.97044297 1.01823069,1.91395472 1.04048444,1.86577357 C1.0834024,1.76442701 1.1183726,1.65643477 1.13744724,1.53847402 C1.159701,1.42051327 1.16923833,1.29756826 1.17400699,1.16963899 C1.17559655,1.10484365 1.17877566,1.03838689 1.17559655,0.983560063 C1.17400699,0.923748977 1.16764878,0.857292219 1.159701,0.792496877 C1.13108903,0.533315509 1.09135017,0.267488463 1.05479043,1.06936682e-12" fill="#BAD5EC"></path>
                            <path d="M0.31882686,3.57703517 C0.417379218,3.80797241 0.706678071,3.91928748 1.00233514,3.91928748 C1.30117132,3.92593316 1.64133591,3.88439768 1.95129897,3.83123227 C2.10707528,3.80464957 2.25967248,3.7631141 2.4043219,3.71161011 C2.55215044,3.66010612 2.68885209,3.58201942 2.7858149,3.47901144 C2.88754636,3.37434204 2.92251655,3.22149149 2.88913592,3.06365669 C2.86688216,2.90582188 2.78263579,2.75297133 2.70156853,2.60344361 L1.05479043,4.08562073e-14 C1.0627382,0.0166141902 1.2709698,0.672874705 1.31706687,1.00515851 C1.34885795,1.35239509 1.35680572,1.72787579 1.18831298,2.07511237 C1.10883527,2.24956136 0.970544061,2.39742766 0.811588646,2.51040415 C0.68601387,2.60178219 0.566797307,2.68651457 0.477782276,2.80945957 C0.29180444,3.0304283 0.212326732,3.35108218 0.31882686,3.57703517" fill="#DFEAF3"></path>
                        </g>
                        <path d="M164.790615,30.1931514 L159.904477,30.9110175 C159.233757,31.0103567 158.602381,30.54365 158.503085,29.8745163 L156.646428,17.2996752 C156.547131,16.6286671 157.017384,15.9988941 157.689978,15.9014293 L162.572368,15.1816888 C163.244962,15.0823496 163.874464,15.5509307 163.973761,16.2200644 L165.830418,28.7949055 C165.929715,29.4659136 165.461335,30.0956865 164.790615,30.1931514" id="Path" fill="#DFEAF3"></path>
                        <path d="M182.302399,35.9529496 C181.086485,34.3297849 179.602658,33.422612 178.064499,33.0739877 C179.259804,34.0055268 180.288366,35.058897 181.052762,36.2884537 C180.87103,38.3689536 180.762366,40.464448 180.63684,42.5561938 C180.138484,44.8391207 178.414847,50.0703596 177.671059,52.293308 L186.746386,58.1055873 C188.368854,55.3690741 190.427851,51.1612164 191.41707,48.2972489 C188.089699,44.6516882 185.23633,39.8646643 182.302399,35.9529496" id="Path" fill="#B9E0FA"></path>
                        <path d="M206.684377,19.8749966 C206.736836,19.3033277 206.718101,18.7297845 206.570093,18.1731102 C206.264709,17.0353954 205.30172,15.9913968 204.134517,15.9426644 L203.814146,15.9801509 L203.874099,15.8470739 C203.634288,15.8414509 203.394477,15.8358279 203.147173,15.8058388 C204.098921,15.9295442 203.48628,15.9070523 202.989798,15.9051779 L201.953741,16.1675833 L201.550935,16.3194036 L201.333606,16.4281144 C200.9308,16.6811482 200.516752,16.9041927 200.125187,17.1759698 L200.053993,17.2190792 C199.505052,18.5329805 199.004822,19.8674993 198.605763,21.235756 C198.289138,22.3191154 198.019351,23.4530815 198.191715,24.577676 C198.362205,25.7022706 199.068522,26.8231165 200.151416,27.1604948 C200.344388,27.2242218 200.548602,27.2242218 200.749068,27.2335934 C198.969225,34.7421362 195.962227,43.8063682 193.983791,50.7807284 C193.090122,50.0516165 192.243291,49.1987987 191.41707,48.2972489 C190.427851,51.1612164 188.368854,55.3690741 186.746386,58.1055873 L195.864804,63.5073896 C197.794529,65.1024395 200.730333,64.0340751 201.176231,61.5749617 C207.205215,41.5777966 206.954164,25.0350112 206.684377,19.8749966" id="Path" fill="#DFEAF3"></path>
                        <path d="M92.8081354,153.872309 L87.5266847,156.822495 C87.1294989,157.043665 87.2213014,157.703427 87.7196571,158.196374 L98.0783447,168.493911 C100.800568,171.198561 103.998665,169.768452 102.370577,166.574604 L98.4642896,158.910492 C93.9903261,159.718326 92.0606014,156.964943 92.8081354,153.872309" id="Path" fill="#87C3F1"></path>
                        <path d="M129.823254,131.504124 C118.400407,137.055872 107.028146,142.043448 96.4914741,149.006563 C94.4362234,150.365448 93.218436,152.168548 92.8081354,153.872309 C92.0606014,156.964943 93.9903261,159.718326 98.4642896,158.910492 C99.534069,158.717436 100.734995,158.336949 102.091423,157.694056 C124.592388,147.017905 137.804445,143.190535 146.891013,138.371647 L136.494855,128.137837 C134.544522,129.178087 132.356251,130.272692 129.823254,131.504124" id="Path" fill="#DFEAF3"></path>
                        <path d="M163.805144,122.567346 C163.170021,122.541105 162.536772,122.494247 161.905396,122.419274 C162.536772,122.494247 163.170021,122.541105 163.805144,122.567346 C165.152205,120.70989 166.407462,118.775588 167.621502,116.81317 C164.548931,113.949203 160.646391,110.646644 155.59913,106.386305 C155.374308,106.196998 155.121383,105.983325 154.892814,105.79027 C152.951847,110.804087 151.299404,114.483385 149.416517,117.392337 C146.428254,122.003174 142.816109,124.764054 136.494855,128.137837 L146.891013,138.371647 C150.203395,136.61728 152.983698,134.733584 155.441754,132.332575 C158.486223,129.361771 161.260905,126.070457 163.805144,122.567346 M201.953741,185.73582 L194.928045,185.175397 C194.61142,186.230642 194.137419,187.025355 193.560375,187.583904 C192.048445,189.887448 189.361819,189.842464 187.25411,188.033741 L187.068632,192.704557 C187.05177,193.122532 187.617573,193.369942 188.248949,193.218122 L201.397306,190.041143 C204.850202,189.205194 205.266123,185.996351 201.953741,185.73582" id="Shape" fill="#87C3F1"></path>
                        <path d="M191.947275,132.791784 C191.510745,132.932358 191.510745,132.932358 191.947275,132.791784" id="Path" fill="#6AC3D1"></path>
                        <path d="M192.912138,135.710107 L179.32725,138.896458 C179.645748,141.171888 179.930523,143.7041 180.220919,146.658034 C181.459315,159.279734 182.184367,171.652148 185.056472,183.93272 C185.463026,185.664595 186.24803,187.045973 187.197904,188.061856 C187.377762,188.258661 187.566988,188.432972 187.758087,188.597913 C189.865796,190.40851 192.554296,190.449746 194.066226,188.148075 C194.365989,187.692614 194.622661,187.154683 194.817507,186.508041 C195.184716,185.270988 195.342092,183.69843 195.165981,181.719143 C193.153822,159.021077 193.832036,145.625282 192.912138,135.710107" id="Path" fill="#DFEAF3"></path>
                        <path d="M192.558043,132.59498 C192.284509,132.681199 192.104651,132.739303 191.947275,132.791784 C191.510745,132.932358 191.510745,132.932358 191.947275,132.791784 C192.104651,132.739303 192.286383,132.681199 192.558043,132.59498 C192.054066,129.082496 191.255947,125.984239 189.918254,122.983446 C186.838189,116.080309 182.512233,109.627011 177.560522,103.629174 C177.122118,103.09874 176.661233,102.585175 176.213462,102.05849 C176.511351,101.333127 177.10151,95.8113673 177.10151,95.8113673 L174.334322,95.7813784 C164.357832,95.6426783 154.379469,95.5039782 144.40298,95.3671525 L144.386118,95.3783987 C144.751454,95.9913026 145.133652,96.5929606 145.564562,97.1571323 C145.808119,97.4214119 146.061044,97.6669483 146.310222,97.919982 C147.912081,99.5506442 149.616984,100.993874 150.842265,102.079108 C151.241325,102.431481 151.567317,102.813843 151.837104,103.2112 C152.914377,104.120247 153.907342,104.95807 154.892814,105.79027 C155.121383,105.983325 155.374308,106.196998 155.59913,106.386305 C160.646391,110.646644 164.548931,113.949203 167.621502,116.81317 C167.793867,116.972488 167.992459,117.148674 168.157329,117.304243 C174.605982,123.393923 177.161462,127.517436 178.637795,134.73171 C178.898214,136.004376 179.11929,137.40637 179.32725,138.896458 L192.912138,135.710107 C192.812841,134.636119 192.70043,133.592121 192.558043,132.59498" id="Path" fill="#96C9F1"></path>
                        <polyline id="Path" fill="#FCEE21" points="143.327571 92.7655584 143.299286 92.624868 143.301429 92.6420254 143.318143 92.722665 143.327571 92.7655584"></polyline>
                        <polyline id="Path" fill="#FCEE21" points="143.563714 93.807868 143.574857 93.8490457 143.576571 93.8507614 143.563714 93.807868"></polyline>
                        <path d="M166.604182,34.5865673 C169.678627,33.8199687 171.677672,32.249285 173.17836,30.3487203 C171.379782,29.6289798 169.40884,29.0648082 167.332981,28.6374623 C165.712386,28.3075812 164.029966,28.0676677 162.330684,27.8802353 C159.986912,27.6215785 157.61129,27.4791299 155.282505,27.4397691 C152.736393,27.3947853 150.274589,27.4641353 147.985148,27.595338 C152.054432,33.2932836 158.770998,36.151628 166.604182,34.5865673" id="Path" fill="#DFEAF3"></path>
                        <path d="M178.064499,33.0739877 C176.66498,31.9850053 175.012536,31.0853297 173.17836,30.3487203 C171.677672,32.249285 169.678627,33.8199687 166.604182,34.5865673 C158.770998,36.151628 152.054432,33.2932836 147.985148,27.595338 C146.804831,27.6609394 145.660111,27.7377867 144.599699,27.8333772 C142.883556,27.9870718 141.334155,28.1670069 140.047047,28.3544393 C138.508888,28.5774839 135.061613,29.8726419 134.557636,30.6654811 L134.563257,30.6636068 C142.782386,27.9889461 146.967828,40.7512196 138.711228,43.4390004 C136.858318,44.0425328 135.09159,44.7266611 133.366078,45.4613963 C134.359044,48.6233812 136.138887,52.2202095 139.112162,56.2518808 C139.406304,57.7250997 139.674217,59.1983186 139.885925,60.6752859 C141.339776,70.8678608 141.146803,80.7661672 143.19456,90.5951231 C143.528046,92.188299 143.912118,93.7777255 144.378624,95.3671525 L144.40298,95.3671525 C154.913422,95.5114755 165.421991,95.657673 175.934307,95.801996 C176.269667,95.8057444 176.603154,95.8113673 176.938513,95.8151162 L177.10151,95.8113673 C177.251391,94.2875419 177.50619,92.7543448 177.517431,91.2117758 C177.524925,89.8678857 177.459352,88.5202462 177.367549,87.1688587 C175.730094,79.6771848 174.238772,72.0880459 174.782093,64.4764155 C175.162417,59.1252196 177.034063,54.2257363 178.690254,49.2887664 C179.434041,47.065818 180.138484,44.8391207 180.63684,42.5561938 C180.762366,40.464448 180.87103,38.3689536 181.052762,36.2884537 C180.288366,35.058897 179.259804,34.0055268 178.064499,33.0739877" id="Path" fill="#B9E0FA"></path>
                        <path d="M153.441501,17.4478068 C154.092117,17.4608199 155.976286,17.2786366 159.513197,15.3136604 C159.604895,15.2616081 159.714058,15.3505308 159.67476,15.448129 C159.144223,16.7038919 156.825582,21.4558377 153.362902,17.6386654 C153.297404,17.5670934 153.345436,17.4478068 153.441501,17.4478068" id="Path" fill="#FFFFFF"></path>
                        <path d="M112.398077,42.8780607 C111.920329,43.5659378 111.532511,44.4937281 111.26085,45.7045414 C108.827149,56.5006492 108.669774,67.0474712 107.109132,78.0066451 C106.822484,80.0084231 107.066041,81.5884787 107.605614,82.7486852 C107.264634,84.2893797 107.701164,86.0287526 108.392493,87.5169661 C108.819655,88.4410079 109.362975,89.3613009 110.215427,89.9385929 C111.069751,90.5140104 112.302527,90.6508361 113.098773,90.0173147 L113.287998,89.8092645 L113.323595,89.9310955 C113.484718,89.7980187 113.64584,89.6649415 113.827572,89.544985 C113.128749,90.0041945 113.54467,89.6686904 113.872536,89.3875418 L114.404616,88.6228172 L114.5826,88.2929361 L114.663161,88.099881 C114.78494,87.7025243 114.929201,87.3201622 115.030371,86.9153081 L115.05098,86.8497065 C114.661288,85.6707565 114.226631,84.5068012 113.702046,83.3765837 L113.696425,83.3615894 C114.455201,82.4000609 115.062221,81.0261814 115.328261,79.1706004 C116.323099,72.1868685 117.445337,53.2262047 126.252751,49.2076536 C126.775463,48.8983901 127.32253,48.6266132 127.856483,48.3360928 C125.182971,44.7036527 123.330061,40.8669109 122.61625,36.5184787 C117.014428,39.6935839 112.306274,42.8480716 112.398077,42.8780607" id="Path" fill="#DFEAF3"></path>
                        <path d="M134.563257,30.6636068 L134.555763,30.6654811 C131.042914,31.8106932 126.542721,34.1086146 122.501541,36.3971645 C123.215352,40.7455967 125.068262,44.5823381 127.741774,48.2147786 C129.564708,47.2176383 131.425113,46.2879732 133.366078,45.4613963 C135.09159,44.7266611 136.860192,44.0425328 138.711228,43.4390004 C146.967828,40.7512196 142.782386,27.9889461 134.563257,30.6636068" id="Path" fill="#B9E0FA"></path>
                        <path d="M55.0098861,93.5096975 C54.8843606,93.2191771 54.803799,92.9024162 54.8337754,92.5500435 C54.918084,91.5678974 55.6468826,90.8275393 56.4618634,90.8968893 L56.5836424,89.4855232 L64.7222096,85.4838412 C65.7451509,86.6365503 66.3409303,88.3140705 66.1854279,90.141537 L65.791989,94.7823636 C65.7526453,95.2303269 65.6627164,95.6557985 65.5484314,96.0681499 L65.5615461,96.0606526 C66.236013,95.607066 66.6125906,94.836719 67.1446697,94.2238148 C67.9615243,93.2885272 69.1249796,92.7393501 70.1123241,91.9858717 C71.0996687,91.2323934 71.9746024,90.0853072 71.7778826,88.8594991 C71.6186336,87.8717302 70.794285,87.0638964 70.7287119,86.0630072 C70.6369097,84.6160292 72.1694481,83.3696036 71.8940409,81.9451172 C71.4743726,79.7933929 67.849113,80.1326454 66.7624719,78.2264579 C66.0336729,76.9481685 66.5994759,74.8826634 65.2786449,74.22665 C64.6379014,73.9061406 63.875379,74.1423053 63.1671887,74.2603878 C61.7189584,74.5040498 60.1845463,74.2004095 58.9367824,73.4244392 C58.5321021,73.1714054 58.1367896,72.8621418 57.6646629,72.7852945 C56.56116,72.6072337 55.7012147,73.7412001 55.3190169,74.7889473 C54.9386927,75.840443 54.6651587,77.0643766 53.7115376,77.6491659 C52.3457421,78.486989 50.2548947,77.549827 49.1214154,78.6837929 C48.169668,79.6322008 48.6755181,81.2085075 48.9677871,82.5186603 C49.2619294,83.8306871 48.7785617,85.714383 47.437122,85.6131695 C47.1092559,85.5888031 46.8019989,85.4332343 46.4760064,85.3901247 C45.273207,85.2270586 44.3720443,86.6890317 44.6062341,87.8792275 C44.8404244,89.0694233 45.7846779,89.9709731 46.6783466,90.7919275 C48.5462451,92.5050595 50.5808871,94.137596 52.298904,96.0006743 C52.739181,96.4767525 53.194446,97.2208595 53.7265256,97.8393862 L54.0169213,94.426242 C54.0618857,93.8939336 54.5021627,93.4984513 55.0098861,93.5096975" id="Path" fill="#96C9F1"></path>
                        <path d="M9.17049287,146.822975 L7.70727441,144.028358 C7.58736917,143.79969 7.20891831,143.840925 6.91852286,144.116451 L0.863308903,149.842511 C-0.727308866,151.347594 0.0352134318,153.193803 1.88812389,152.318494 L6.0735657,150.34483 C4.20941413,147.68329 5.85811097,145.46409 9.17049287,146.822975" id="Path" fill="#87C3F1"></path>
                        <path d="M32.1510789,163.969293 C31.9243831,164.049889 32.0705176,163.961796 32.3665336,163.81185 L32.1510789,163.969293 Z M36.1791451,158.565616 C35.3229469,159.95449 34.3974284,161.305878 33.3576253,162.580419 C26.4480866,159.150405 17.0411469,151.484419 10.3770392,147.426507 C9.95175039,147.167851 9.55456431,146.980418 9.17049287,146.822975 C5.85811097,145.46409 4.20941413,147.68329 6.0735657,150.34483 C6.44826951,150.879013 6.94662561,151.42819 7.62109251,151.96987 C21.6144072,163.249552 18.2608079,162.795966 33.7585584,171.88269 C36.6606396,173.582702 40.9285162,169.378593 43.626384,165.986066 C40.6306267,164.207332 38.1894312,161.573907 36.1791451,158.565616 L36.1791451,158.565616 Z M34.6747092,96.4317689 C34.255041,96.0269148 33.8241315,95.6220607 33.4419336,95.194715 C32.4883124,94.137596 31.6583434,93.0279961 31.0175998,91.8715381 C30.1464134,84.1793113 29.9703026,82.3630915 31.8232131,73.167657 C31.9749681,72.4066813 31.7445253,71.6925636 31.3267305,71.1958679 L31.3379716,71.122769 C31.4129124,70.5154881 31.4279005,69.8744693 31.1731019,69.312172 C30.9183033,68.7480003 30.3337653,68.2925397 29.7267451,68.3637638 L29.563749,68.4106218 L29.5843577,68.3356489 L29.2040333,68.376884 C29.7061364,68.3600153 29.3895117,68.399376 29.130966,68.4406111 L28.6176218,68.6636555 L28.4209023,68.7761152 L28.3197322,68.8510881 C28.1323803,69.0141543 27.9394079,69.1641001 27.7576765,69.3384125 L27.7258267,69.3665274 C27.5534629,70.0918908 27.4073284,70.8228772 27.3173995,71.5651097 C27.2462058,72.1498986 27.2012413,72.759054 27.3848462,73.3251002 L27.4035814,73.3757067 C27.4766486,73.5781339 27.5928068,73.7655661 27.7277002,73.9342555 C27.3005378,75.7954594 26.925834,77.3717662 26.5979681,78.8037495 C26.1764263,85.0021397 24.7132079,92.235157 27.5534629,98.0118241 L27.6227831,98.139278 C27.9637636,98.8215323 28.7656298,99.8805253 29.5112904,100.787698 C31.0063587,99.0070904 32.7824549,97.5563635 34.6747092,96.4317689 L34.6747092,96.4317689 Z M77.8855551,112.505973 C78.9590816,112.131108 80.1281576,111.673773 80.753913,111.289537 L80.8775653,111.216438 C86.3388737,107.792048 88.9037216,100.870169 91.8095499,95.3783987 C92.2854236,93.9895246 92.7968944,92.4488301 93.4132821,90.6419812 C93.6174956,90.5688826 93.8160887,90.4732921 93.9847054,90.3364665 L94.0259229,90.3064771 C94.4811879,89.9203666 94.7659629,89.3786869 95.0113937,88.84263 C95.3242714,88.1641246 95.5884377,87.4650016 95.8226276,86.7583817 L95.8095133,86.7190206 C95.7476871,86.4753586 95.6596316,86.2466909 95.5884377,86.0067774 L95.5416,85.8905693 L95.4348094,85.6918909 L95.112564,85.2345559 C94.9177179,85.0639925 94.6666663,84.8615656 95.0863346,85.1389654 L94.7846983,84.9065492 L94.7622159,84.9815222 L94.6479313,84.8559423 C94.1701839,84.4754547 93.4320171,84.5560505 92.918673,84.9028008 C92.4053289,85.2495506 92.0793364,85.8006021 91.8226641,86.3572761 L91.7945614,86.4247517 C91.1800474,86.6290534 90.6048767,87.1163774 90.3332164,87.8436152 C87.0676727,96.6379446 85.9585491,98.0886715 81.1660873,104.176477 C80.2667983,104.68067 79.270086,105.078026 78.23403,105.428525 C78.9028761,107.958863 78.5356663,109.988756 77.8855551,112.505973 L77.8855551,112.505973 Z" id="Shape" fill="#DFEAF3"></path>
                        <path d="M96.4727387,178.941395 L92.2835499,181.514842 C92.9523964,184.017065 91.4723164,185.240998 89.6756113,184.95985 L91.601589,187.820069 C91.74585,188.033741 92.1186801,187.951271 92.3753524,187.645756 L97.7635937,181.289923 C99.1799739,179.618026 98.216985,177.871156 96.4727387,178.941395 M74.4888651,150.408557 C72.6528163,148.819131 70.6500244,147.396518 68.5329476,146.114481 C66.2791041,144.751847 63.897861,143.552279 61.4566659,142.48204 L42.7907943,142.48204 L41.1570855,142.215886 C40.9697337,143.186786 41.007204,144.176429 41.2807378,145.053613 C40.415172,149.92873 38.6990284,154.475841 36.1791451,158.565616 C38.1894312,161.573907 40.6306267,164.207332 43.626384,165.986066 C44.370171,165.048904 45.0015467,164.169846 45.4418237,163.498838 C48.2333674,159.255367 50.4834639,154.685765 51.9466826,149.889369 C59.1391226,151.838667 63.2889673,152.937021 66.2510014,154.522699 C67.0603616,153.240661 67.6617613,151.861158 68.0458324,150.440421 C68.2369316,149.730052 68.3755719,149.010312 68.4580067,148.286822 C68.3755719,149.010312 68.2369316,149.730052 68.0458324,150.440421 C67.6617613,151.861158 67.0603616,153.240661 66.2510014,154.522699 C68.3231134,155.632299 69.8200551,157.008053 71.371329,159.054815 C73.9998763,158.361315 76.4260839,157.144879 78.6986627,155.570446 C77.4302901,153.503067 76.1281941,151.831169 74.4888651,150.408557" id="Shape" fill="#87C3F1"></path>
                        <path d="M92.2835499,181.514842 C92.1243009,180.918807 91.8526406,180.253422 91.4217313,179.513064 C84.568398,167.717942 81.7225226,160.49617 78.6986627,155.570446 C76.4260839,157.144879 73.9998763,158.361315 71.371329,159.054815 C72.529164,160.586138 73.7188487,162.484828 75.2045494,164.987051 C78.9010024,171.21543 82.2733371,177.438187 86.7304393,183.094897 C87.5997523,184.198874 88.6845197,184.806155 89.6756113,184.95985 C91.4723164,185.240998 92.9523964,184.017065 92.2835499,181.514842 M61.5391007,105.087398 C60.7091314,104.824993 59.8548069,104.594451 58.9911146,104.382652 L59.3751857,99.8561593 C59.7349016,100.000482 60.1114791,100.107319 60.5067913,100.142931 C62.7718761,100.332237 64.8364941,98.5759958 65.5484314,96.0681499 C65.6627164,95.6557985 65.7526453,95.2303269 65.791989,94.7823636 L66.1854279,90.141537 C66.3409303,88.3140705 65.7451509,86.6365503 64.7222096,85.4838412 L56.5836424,89.4855232 L56.4618634,90.8968893 C55.6468826,90.8275393 54.918084,91.5678974 54.8337754,92.5500435 C54.803799,92.9024162 54.8843606,93.2191771 55.0098861,93.5096975 C54.5021627,93.4984513 54.0618857,93.8939336 54.0169213,94.426242 L53.7265256,97.8393862 L53.2637666,103.312413 C51.9672913,103.138101 50.7064127,103.003149 49.5354634,102.911308 C49.9064199,107.486533 51.0080494,112.018649 53.778984,115.09254 C56.6848123,112.078627 59.4276446,108.897899 61.5391007,105.087398" id="Shape" fill="#DFEAF3"></path>
                        <g transform="translate(65.552143, 92.947426) scale(-1, 1) translate(-65.552143, -92.947426) translate(64.052143, 90.802756)" id="Path">
                            <path d="M1.05479043,1.06936682e-12 C1.18195476,0.235921502 1.29004444,0.481811519 1.38223858,0.737670047 C1.40449234,0.802465389 1.42515655,0.867260731 1.4442312,0.93870175 C1.46330585,1.01346561 1.47125362,1.07992237 1.48397005,1.14804055 C1.50463425,1.28593832 1.51735069,1.42882036 1.51417158,1.57668666 C1.51099247,1.72289153 1.49032827,1.87574208 1.44582075,2.02526979 C1.42038789,2.10169507 1.39654457,2.16649041 1.36157438,2.24291569 C1.32501464,2.31934096 1.28050712,2.38745914 1.23282049,2.45059307 C1.18354431,2.51372699 1.13108903,2.57353807 1.07386508,2.62504206 C1.01823069,2.67820747 0.953058964,2.72805004 0.908551449,2.76293984 C0.808409537,2.84102653 0.733700494,2.90914472 0.690782529,2.97394006 L0.689192979,2.97560148 L0.676476544,2.99221567 C0.64150635,3.03707398 0.611304823,3.08857797 0.589051067,3.14174338 C0.565207753,3.19324737 0.54931221,3.24973561 0.544543547,3.29957819 C0.538185334,3.35108218 0.542953993,3.39594049 0.552491319,3.42750745 C0.557259981,3.44412164 0.566797307,3.46572009 0.574745079,3.47901144 C0.581103296,3.49064137 0.592230171,3.50393273 0.604946606,3.51722408 C0.633558583,3.54380678 0.67488699,3.57205091 0.725752723,3.59531077 C0.776618456,3.61690922 0.83543196,3.63186199 0.897424569,3.64349192 C0.9276261,3.64847618 0.959417181,3.65179902 0.994387371,3.65346044 C1.03094712,3.65678328 1.07227553,3.6584447 1.10883527,3.66010612 C1.18354431,3.66176754 1.25984292,3.66342895 1.33614151,3.66176754 C1.49191782,3.66010612 1.64769413,3.65179902 1.80664954,3.64183051 L1.9258661,3.63352341 L2.03872445,3.6235549 C2.11502304,3.6152478 2.19132165,3.60361787 2.26762024,3.59032652 C2.3455084,3.57537375 2.41703833,3.56042097 2.48697872,3.53882253 C2.5569191,3.51556266 2.62526993,3.48731854 2.68567299,3.4491059 C2.70156853,3.43913739 2.71746407,3.42916887 2.73177006,3.41920036 C2.74607604,3.40923184 2.75879247,3.39760191 2.77150891,3.38597198 C2.79535222,3.36105069 2.81760598,3.33280657 2.83509108,3.29957819 C2.87165082,3.23312143 2.88913592,3.15005048 2.88913592,3.06365669 C2.92569566,3.14174338 2.9415912,3.23478285 2.92728522,3.32948373 C2.920927,3.37766488 2.90662101,3.42584603 2.88436725,3.47070435 C2.87324037,3.49230279 2.85893439,3.51390124 2.8446284,3.53383827 C2.83191197,3.5537753 2.81760598,3.57205091 2.80171044,3.59032652 C2.67931477,3.73320855 2.51241158,3.82957086 2.35504572,3.89602762 C2.27715757,3.93257884 2.19609031,3.96248438 2.11343349,3.98906708 C2.07210508,4.00235843 2.03077668,4.01564979 1.98785871,4.0256183 L1.8670526,4.05718526 C1.70491808,4.09705932 1.53960444,4.13194912 1.37111171,4.15354757 C1.28686533,4.16351608 1.20102941,4.17514601 1.11519349,4.17846885 C1.06909642,4.18179169 1.02935757,4.18179169 0.984850046,4.18345311 C0.94034253,4.18345311 0.889476797,4.18345311 0.840200619,4.17846885 C0.741648261,4.17016176 0.64150635,4.15022473 0.539774889,4.11367351 C0.439632977,4.07546087 0.336311956,4.02063404 0.244117815,3.93424026 C0.198020745,3.88938194 0.153513229,3.83953937 0.118543038,3.77972828 C0.0819832924,3.72157862 0.056550426,3.66509037 0.0374757762,3.60195645 C-0.00385263158,3.47236577 -0.00703173985,3.3444365 0.00886380159,3.22813717 C0.0390653304,2.99221567 0.139207242,2.79284538 0.280677561,2.62670348 L0.266371573,2.64497909 C0.320416414,2.57187665 0.382409026,2.51040415 0.442812086,2.45890016 C0.50321514,2.40739617 0.563618199,2.36752211 0.61766304,2.32930947 C0.676476544,2.28943542 0.717804951,2.26285272 0.759133359,2.22962433 C0.800461766,2.19805737 0.838611064,2.16316757 0.873581259,2.12661636 C0.908551449,2.09006513 0.938752976,2.05019108 0.964185844,2.01031702 C0.989618709,1.97044297 1.01823069,1.91395472 1.04048444,1.86577357 C1.0834024,1.76442701 1.1183726,1.65643477 1.13744724,1.53847402 C1.159701,1.42051327 1.16923833,1.29756826 1.17400699,1.16963899 C1.17559655,1.10484365 1.17877566,1.03838689 1.17559655,0.983560063 C1.17400699,0.923748977 1.16764878,0.857292219 1.159701,0.792496877 C1.13108903,0.533315509 1.09135017,0.267488463 1.05479043,1.06936682e-12" fill="#BAD5EC"></path>
                            <path d="M0.31882686,3.57703517 C0.417379218,3.80797241 0.706678071,3.91928748 1.00233514,3.91928748 C1.30117132,3.92593316 1.64133591,3.88439768 1.95129897,3.83123227 C2.10707528,3.80464957 2.25967248,3.7631141 2.4043219,3.71161011 C2.55215044,3.66010612 2.68885209,3.58201942 2.7858149,3.47901144 C2.88754636,3.37434204 2.92251655,3.22149149 2.88913592,3.06365669 C2.86688216,2.90582188 2.78263579,2.75297133 2.70156853,2.60344361 L1.05479043,4.08562073e-14 C1.0627382,0.0166141902 1.2709698,0.672874705 1.31706687,1.00515851 C1.34885795,1.35239509 1.35680572,1.72787579 1.18831298,2.07511237 C1.10883527,2.24956136 0.970544061,2.39742766 0.811588646,2.51040415 C0.68601387,2.60178219 0.566797307,2.68651457 0.477782276,2.80945957 C0.29180444,3.0304283 0.212326732,3.35108218 0.31882686,3.57703517" fill="#DFEAF3"></path>
                        </g>
                        <path d="M63.3505695,94.7563399 C64.3521644,95.4714419 63.1389784,100.140467 59.686024,96.3250284 C59.6207086,96.2534898 59.6688864,96.1340042 59.7648534,96.1338481 C60.4147895,96.145819 63.3899879,94.6585791 63.3505695,94.7563399 Z" id="Path" fill="#FFFFFF" transform="translate(61.673013, 96.279727) rotate(32.000000) translate(-61.673013, -96.279727) "></path>
                        <path d="M42.7907943,142.48204 L63.4182403,142.48204 C63.2702323,140.229102 63.1596947,137.966793 63.2027854,135.719479 C62.7681291,132.887375 62.8018526,129.98967 63.5475133,126.784575 C64.5460989,122.496121 65.6870721,118.683746 66.2453807,114.730796 C68.0889236,114.58085 69.898743,114.292204 71.7272979,113.945454 C72.980682,113.66618 74.2265721,113.407523 75.459348,113.235085 L75.5567709,113.218216 C75.74787,113.19385 76.7651906,112.895833 77.8855551,112.505973 C78.5356663,109.988756 78.9028761,107.958863 78.23403,105.428525 C77.9380136,105.527864 77.656986,105.642198 77.353476,105.732166 C75.7310083,106.206369 73.994256,106.519382 72.229401,106.723683 C70.1853913,106.959848 68.1170263,107.032947 66.1273491,107.0217 C65.0613167,106.423791 63.8959877,105.895232 62.6388561,105.449143 C62.281014,105.321688 61.9081839,105.20548 61.5391007,105.087398 C59.4276446,108.897899 56.6848123,112.078627 53.778984,115.09254 C51.0080494,112.018649 49.9064199,107.486533 49.5354634,102.911308 C49.0277396,102.871947 48.5331304,102.836334 48.062877,102.810094 C46.9406391,102.744493 45.9233181,102.714503 45.0764876,102.710755 C44.4994436,102.708881 43.9055383,102.73887 43.3172533,102.793225 C41.30322,101.61615 39.2086256,100.247893 37.2770274,98.7259417 C36.3571295,97.9987039 35.4971841,97.2264824 34.6747092,96.4317689 C32.7824549,97.5563635 31.0063587,99.0070904 29.5112904,100.787698 C30.2232277,101.657385 30.8827065,102.388371 31.0269675,102.508328 L31.1000347,102.572055 C32.0592765,103.364894 32.9829214,104.236455 33.9009459,105.132382 C36.0517458,107.098548 38.2119134,108.956003 40.8104845,110.432971 L41.2226587,110.721617 C41.299473,114.811392 41.8858845,118.966769 41.8559082,123.050921 C41.8128173,129.609181 40.7355438,135.824441 41.1083741,142.206514 L41.1570855,142.215886 L42.7907943,142.48204" id="Path" fill="#B9E0FA"></path>
                        <path d="M242.161336,161.894416 C242.161336,170.017737 235.562802,176.602238 227.424234,176.602238 C219.283794,176.602238 212.685259,170.017737 212.685259,161.894416 C212.685259,153.772969 219.283794,147.188468 227.424234,147.188468 C235.562802,147.188468 242.161336,153.772969 242.161336,161.894416" id="Path" fill="#87C3F1"></path>
                    </g>
                </g>
            </g>
        </g>
    </g>
</svg>