<svg xmlns="http://www.w3.org/2000/svg" width="28" height="20" viewBox="0 0 28 20">
  <g fill="#0C7CB0" fill-rule="evenodd">
    <path fill-rule="nonzero" d="M27.3636364,0 L0.636363636,0 C0.284454545,0 0,0.279375 0,0.625 L0,19.375 C0,19.720625 0.284454545,20 0.636363636,20 L27.3636364,20 C27.7149091,20 28,19.720625 28,19.375 L28,0.625 C28,0.279375 27.7149091,0 27.3636364,0 Z M26.7272727,17.238125 L18.844,9.49625 L17.9441818,10.38 L26.4663636,18.75 L1.53363636,18.75 L10.0558182,10.38 L9.156,9.49625 L1.27272727,17.238125 L1.27272727,1.25 L26.7272727,1.25 L26.7272727,17.238125 Z"/>
    <path d="M25.4411818,1.25 L14,12.486875 L2.55881818,1.25 L1.27272727,1.25 L1.27272727,1.754375 L13.5500909,13.8125 C13.7989091,14.056875 14.2010909,14.056875 14.4499091,13.8125 L26.7272727,1.754375 L26.7272727,1.25 L25.4411818,1.25 Z"/>
  </g>
</svg>
