<?xml version="1.0" encoding="UTF-8"?>
<svg width="28px" height="22px" viewBox="0 0 28 22" version="1.1" xmlns="http://www.w3.org/2000/svg" xmlns:xlink="http://www.w3.org/1999/xlink">
    <!-- Generator: sketchtool 55.1 (78136) - https://sketchapp.com -->
    <title>15B72B13-16DE-4291-BD5B-BFB49FA67217@1.5x</title>
    <desc>Created with sketchtool.</desc>
    <g id="Asset-Artboard-Page" stroke="none" stroke-width="1" fill="none" fill-rule="evenodd">
        <g id="Circle" transform="translate(-182.000000, -119.000000)" fill="#FFFFFF" fill-rule="nonzero">
            <g id="Group-9">
                <g id="Group-18" transform="translate(168.000000, 102.000000)">
                    <g id="mail" transform="translate(14.000000, 17.000000)">
                        <path d="M25.375,0 L2.625,0 C1.17535403,0 0,1.34326175 0,3 L0,19 C0,20.6567383 1.17535403,22 2.625,22 L25.375,22 C26.824646,22 28,20.6567383 28,19 L28,3 C28,1.34326175 26.824646,0 25.375,0 Z M24.2427979,2 L14,9.80004881 L3.75720215,2 L24.2427979,2 Z M1.75,18.5859375 L1.75,3 C1.75469973,2.9626465 1.7611084,2.92553712 1.76922605,2.888916 L10.0003357,9.15698244 L1.75,18.5859375 Z M2.98730469,20 L11.486084,10.2868652 L13.5144348,11.8320312 C13.8083801,12.0561524 14.1916199,12.0561524 14.4855652,11.8320312 L16.513916,10.2868652 L25.0126953,20 L2.98730469,20 Z M26.25,18.5859375 L17.9996643,9.15698244 L26.230774,2.888916 C26.2388916,2.92553712 26.2453003,2.9626465 26.25,3 L26.25,18.5859375 Z" id="Shape"></path>
                    </g>
                </g>
            </g>
        </g>
    </g>
</svg>