<?xml version="1.0" encoding="utf-8"?>
<!-- Generator: Adobe Illustrator 23.0.0, SVG Export Plug-In . SVG Version: 6.00 Build 0)  -->
<svg version="1.1" id="Layer_1" xmlns="http://www.w3.org/2000/svg" xmlns:xlink="http://www.w3.org/1999/xlink" x="0px" y="0px"
	 viewBox="0 0 9.95 19.99" style="enable-background:new 0 0 9.95 19.99;" xml:space="preserve">
<style type="text/css">
	.st0{display:none;fill:#999999;}
	.st1{display:none;}
	.st2{display:inline;}
	.st3{fill:#999999;}
</style>
<path class="st0" d="M8.65,16.72c-1.7,0-2.63-1.33-2.63-2.36c0-0.46,0-2.95,0-6h4.14V5H6.02c0-2.63,0-5,0-5S4.49,0,3.13,0
	c0,4.34-3.75,5.15-3.75,5.15v3.18h2.49c0,0,0,4.66,0,7.13c0,2.48,2.27,4.53,5.04,4.53s4.09-1.1,4.09-1.1v-3.27
	C11,15.61,10.36,16.72,8.65,16.72z"/>
<path class="st0" d="M-4.72,5.48C-2.97,4.11-0.48,1.5,1.46,1.5c1.94,0,2.41,1.84,2.68,3.88C4.41,7.43,5.17,11.9,6.2,11.9
	c1.03,0,3.37-3.96,3.23-5.48C9.3,4.89,7.6,5.12,6.67,5.56C7.53,2.5,9.51,0.7,12.04,0.7c2.53,0,3.14,1.94,3.14,4.1
	c0,3.29-6.77,13.36-10.86,13.36c-2.53,0-3.16-3.67-3.67-5.48c-0.51-1.81-1.52-6.57-2.7-6.88c-0.46-0.08-1.75,0.93-1.75,0.93
	L-4.72,5.48z"/>
<path class="st0" d="M13.93,11.35c0.07-0.44,0.11-0.88,0.11-1.33c0-4.92-3.97-8.68-8.87-8.68c-0.46,0-0.9,0.05-1.34,0.11
	C2.94,0.7,1.8,0,0.54,0c-2.79,0-5.06,2.28-5.06,5.08c0,1.15,0.38,2.2,1.02,3.05c-0.13,0.61-0.2,1.24-0.2,1.89
	c0,4.92,3.97,9.14,8.87,9.14c0.63,0,1.24-0.07,1.84-0.19c0.89,0.78,2.05,1.02,3.32,1.02c2.79,0,5.06-2.27,5.06-5.08
	C15.38,13.52,14.83,12.27,13.93,11.35z M9.31,14.11c-0.35,0.5-0.86,0.89-1.53,1.17C7.1,15.56,6.31,15.7,5.38,15.7
	c-1.11,0-2.02-0.19-2.74-0.58c-0.51-0.28-0.92-0.65-1.24-1.11c-0.32-0.46-0.48-0.91-0.48-1.35c0-0.25,0.1-0.47,0.29-0.65
	c0.19-0.18,0.43-0.27,0.73-0.27c0.24,0,0.44,0.07,0.61,0.21c0.17,0.14,0.31,0.35,0.42,0.63c0.14,0.33,0.3,0.6,0.46,0.83
	c0.17,0.22,0.4,0.4,0.7,0.55c0.3,0.14,0.7,0.22,1.19,0.22c0.67,0,1.22-0.15,1.64-0.44c0.42-0.29,0.63-0.65,0.63-1.08
	c0-0.34-0.11-0.62-0.34-0.84c-0.23-0.21-0.52-0.38-0.88-0.49c-0.36-0.11-0.84-0.23-1.44-0.36c-0.81-0.17-1.48-0.38-2.02-0.61
	C2.37,10.11,1.93,9.8,1.62,9.39c-0.32-0.4-0.48-0.9-0.48-1.5c0-0.57,0.17-1.08,0.5-1.52C1.98,5.93,2.47,5.59,3.1,5.35
	C3.74,5.12,4.49,5,5.35,5c0.69,0,1.28,0.08,1.79,0.24c0.5,0.16,0.92,0.37,1.25,0.63C8.72,6.12,8.96,6.4,9.11,6.68
	c0.15,0.29,0.23,0.57,0.23,0.84c0,0.25-0.1,0.48-0.29,0.68C8.87,8.4,8.63,8.5,8.34,8.5c-0.26,0-0.46-0.06-0.59-0.18
	C7.61,8.2,7.47,8,7.31,7.73c-0.2-0.39-0.45-0.7-0.73-0.91C6.29,6.6,5.83,6.49,5.2,6.49c-0.59,0-1.06,0.12-1.42,0.36
	C3.42,7.08,3.24,7.37,3.24,7.7c0,0.21,0.06,0.39,0.18,0.54c0.12,0.15,0.29,0.28,0.5,0.39c0.21,0.11,0.43,0.19,0.65,0.26
	C4.8,8.94,5.16,9.03,5.67,9.15C6.3,9.29,6.87,9.44,7.38,9.6c0.51,0.16,0.95,0.37,1.31,0.6c0.36,0.24,0.64,0.53,0.84,0.9
	c0.2,0.36,0.3,0.8,0.3,1.32C9.83,13.05,9.66,13.61,9.31,14.11z"/>
<g class="st1">
	<g class="st2">
		<path class="st3" d="M-4.29,19.16h4.14V6.67h-4.14V19.16z M10.45,6.26c-1.81,0-2.87,0.66-4.02,2.13V6.67H2.32v12.49h4.14v-6.77
			c0-1.43,0.72-2.82,2.36-2.82c1.63,0,2.63,1.4,2.63,2.79v6.8h4.14v-7.08C15.59,7.16,12.26,6.26,10.45,6.26z M-2.21,0.59
			c-1.35,0-2.44,0.99-2.44,2.2c0,1.21,1.09,2.2,2.44,2.2c1.34,0,2.43-0.99,2.43-2.2C0.23,1.58-0.86,0.59-2.21,0.59z"/>
	</g>
</g>
<g class="st1">
	<g class="st2">
		<path class="st3" d="M7.39,0.84c0,0-4.23,0-5.63,0c-2.53,0-4.9,1.75-4.9,3.98c0,2.28,1.72,4.03,4.29,4.03
			c0.18,0,0.35-0.04,0.52-0.06C1.5,9.11,1.38,9.46,1.38,9.83c0,0.63,0.34,1.13,0.77,1.55c-0.32,0-0.64,0-0.98,0
			c-3.13,0-5.98,1.69-5.98,3.76c0,2.04,3.08,3.19,6.21,3.19c3.57,0,5.41-1.59,5.41-3.64c0-1.64-0.35-2.62-1.84-3.68
			c-0.51-0.36-1.48-1.24-1.48-1.76c0-0.61,0.17-0.9,1.08-1.62C5.5,6.92,6.05,6.01,6.05,4.82c0-1.42-0.53-3.14-1.71-3.14h1.79
			L7.39,0.84z M5.21,14.35c0.04,0.19,0.07,0.38,0.07,0.58c0,1.65-0.85,2.5-3.89,2.5c-2.16,0-3.72-0.93-3.72-2.59
			c0-1.62,1.94-2.97,4.1-2.94c0.51,0.01,0.97,0.09,1.4,0.22C4.34,12.95,4.98,13.42,5.21,14.35z M1.96,8.19
			C0.51,8.15-0.87,6.56-1.12,4.65C-1.37,2.73-0.4,1.27,1.05,1.31C2.5,1.35,3.88,2.89,4.13,4.8C4.38,6.72,3.41,8.23,1.96,8.19z
			 M12.63,4.18V1.64h-1.66v2.54H8.49v1.68h2.48v2.5h1.66v-2.5h2.48V4.18H12.63z"/>
	</g>
</g>
<g class="st1">
	<g class="st2">
		<path class="st3" d="M-1.67,14.18c-1.6,0-2.9,1.3-2.9,2.89c0,1.6,1.3,2.89,2.9,2.89c1.6,0,2.9-1.29,2.9-2.89
			C1.23,15.48-0.07,14.18-1.67,14.18z M-4.42,6.69c-0.05,0-0.1,0.01-0.15,0.01v3.69c0.05,0,0.1-0.01,0.15-0.01
			c5.1,0,9.38,4.29,9.38,9.38c0,0.08-0.01,0.15-0.01,0.23h3.7c0-0.08,0.01-0.15,0.01-0.23C8.67,12.64,2.73,6.69-4.42,6.69z
			 M-4.42,0.03c-0.05,0-0.1,0.01-0.15,0.01v3.72c0.05,0,0.1,0,0.15,0c8.8,0,16.07,7.24,16.07,16.02c0,0.08,0,0.15-0.01,0.23h3.65
			c0-0.08,0.01-0.15,0.01-0.23C15.3,8.95,6.43,0.03-4.42,0.03z"/>
	</g>
</g>
<path class="st3" d="M7.8,3.32h2.15V0H7.19v0.02c-3.65,0.13-4.63,2.19-4.7,4.36H2.49v2.29H0v3.32h2.49v10h4.14v-10h2.51l0.6-3.32
	H6.62V4.62C6.62,3.89,7.11,3.32,7.8,3.32z"/>
<path class="st0" d="M15.53,3.06c-0.34,0.19-1.34,0.56-2.28,0.65c0.6-0.33,1.49-1.39,1.71-2.24c-0.58,0.37-1.91,0.91-2.56,0.91
	c0,0,0,0,0,0c-0.75-0.78-1.8-1.41-2.97-1.41c-2.27,0-3.92,1.98-3.92,4.25c0,0.32,0.04,0.62,0.1,0.92h0C2.55,6.07-1,4.37-3.02,1.72
	c-1.24,2.16-0.17,4.73,1.25,5.6c-0.48,0.04-1.37-0.05-1.79-0.47c-0.03,1.44,0.66,3.34,3.17,4.03c-0.48,0.26-1.34,0.19-1.71,0.13
	c0.13,1.21,1.82,2.8,3.67,2.8c-0.66,0.76-3.14,2.15-5.92,1.71c1.89,1.15,4.09,1.82,6.42,1.82c6.62,0,12.05-5.39,11.77-12.04
	c0-0.01,0-0.01,0-0.02c0-0.02,0-0.03,0-0.05c0-0.02,0-0.04,0-0.06C14.43,4.76,14.96,4.02,15.53,3.06z"/>
</svg>
