<?xml version="1.0" encoding="UTF-8"?>
<svg width="300px" height="338px" viewBox="0 0 300 338" version="1.1" xmlns="http://www.w3.org/2000/svg" xmlns:xlink="http://www.w3.org/1999/xlink">
    <!-- Generator: sketchtool 55.1 (78136) - https://sketchapp.com -->
    <title>2ED79990-B043-4DFB-8159-81FAAD6D9C69</title>
    <desc>Created with sketchtool.</desc>
    <g id="Visual-Design" stroke="none" stroke-width="1" fill="none" fill-rule="evenodd">
        <g id="KnowledgeCentre_Article8" transform="translate(-811.000000, -1270.000000)" fill-rule="nonzero">
            <g id="Keeping-Fit-(2)" transform="translate(811.000000, 1270.000000)">
                <rect id="Rectangle" fill="#FFFFFF" x="0" y="0" width="300" height="338"></rect>
                <g id="Group" transform="translate(0.428571, 46.753807)">
                    <path d="M158.230026,65.1536577 L158.230026,65.1536577 C158.347773,64.2816267 158.3456,63.2821118 158.786953,62.6184037 C159.190966,62.0080615 160.122273,61.317078 160.830334,62.1353477 C162.318566,63.8458091 159.44918,64.764485 158.230026,65.1536577" id="Path" fill="#DFEAF3"></path>
                    <path d="M29.4226274,170.35722 C28.0282203,169.912447 26.651972,169.407097 25.2977054,168.830008 C16.3218268,165.006878 9.74641834,157.251896 5.6348766,148.320737 C4.26276978,145.343791 3.16208973,142.236123 2.31531474,139.099759 C-2.44516632,119.697159 -0.132941762,99.1990469 11.7598186,82.006918 C26.2951669,61.5088059 50.0803689,51.9208509 73.8337136,55.685316 C84.0775247,57.1238916 93.7380231,61.1010184 104.06785,62.5258844 C109.331043,63.2521868 114.775507,63.6258591 119.884829,62.1678343 C135.554945,57.6971538 135.014959,38.2441777 138.614549,25.4713968 C146.930019,-4.03439342 186.295181,-8.27073149 202.893945,16.2692301 C207.570323,23.1824926 209.81246,31.4061599 213.11673,39.071869 C223.255093,62.591564 247.420675,64.4070006 269.433639,70.1045517 C298.504654,77.7090451 303.790148,115.068656 294.971965,139.935422 C293.954115,143.241085 292.686501,146.555995 291.145867,149.74656 C286.523648,159.319849 279.446164,167.78009 269.305253,171.553482 C253.212705,177.541172 235.338362,172.466621 218.73896,172.89035 C199.579162,173.379441 180.416179,173.736215 161.251603,173.959717 C138.255832,174.228494 115.257831,174.30597 92.2607863,174.192147 C72.0232461,174.092352 48.9022749,176.85568 29.4226274,170.35722" id="Path" fill="#EAF6FF"></path>
                    <g transform="translate(14.754000, 45.895939)">
                        <path d="M38.5911752,118.817158 C39.1498798,119.177276 39.7158942,119.523756 40.2763768,119.858179 C39.8577435,120.123821 39.4385175,120.366139 38.9205106,120.454686 C38.7355928,120.185289 38.6441217,119.602025 38.5911752,118.817158 M33.9931233,48.0377872 C31.1006219,47.5219215 26.7117879,46.0144467 24.5437454,48.9515221 C22.4792252,51.748464 22.835429,55.5795095 24.3100298,58.635175 C26.9052008,64.0130278 32.5153615,67.9096929 34.8908438,72.7531004 C27.6053596,74.0471132 24.6423287,79.5532405 28.3037403,87.1815333 C31.2701298,93.3620417 36.9290883,97.4478578 39.0495184,101.66689 C37.8453796,102.883226 35.4035166,102.56501 33.5225312,105.2738 C31.2908739,105.276172 30.6189664,108.098413 29.3944787,109.316133 C27.6577135,108.778131 18.0172933,86.6358224 15.2460948,104.846679 C17.4967182,114.923655 21.2468351,116.229131 27.26259,129.020827 C23.9957091,130.639381 20.9860536,125.440797 17.8535147,127.645975 C10.3912127,132.898715 37.1383062,148.408886 38.6144875,152.738404 C36.8069951,153.464174 34.4848545,151.64461 32.0712427,153.005034 C26.2787325,156.268824 34.129836,167.778958 44.1351527,169.567491 C66.1099449,173.495583 63.2494483,157.253911 60.9446931,151.774268 C64.1256347,152.180241 64.8874329,150.37135 66.6346689,150.730282 C70.6341086,151.551912 73.6251934,144.905741 75.9123656,141.82952 C82.4340763,133.057824 87.1992651,124.952207 86.7974246,112.677761 C86.6395727,107.856885 84.482001,101.890629 79.6626801,100.923924 C74.1331247,99.813923 72.8578637,106.917456 69.411399,108.983686 C67.534365,103.617693 70.5657523,92.4850698 71.3457261,86.5008275 C72.321681,79.0124709 73.3187751,70.9663466 72.5842406,63.3593997 C71.7665323,54.8920836 66.3827777,49.9296911 62.5301263,58.3685453 C60.0969557,63.6977763 57.4016211,75.12806 54.7149789,60.2250699 C52.739559,49.2675641 52.521846,32.4967837 44.4516467,24.4123153 C39.2871852,19.2394255 31.9398642,19.1066049 31.3230764,28.0832644 C30.8653259,34.7450498 34.2013534,41.0190465 33.9931233,48.0377872" id="Shape" fill="#B4D3E2"></path>
                        <path d="M15.2365446,104.846738 C18.007348,86.6358816 27.6481632,108.77819 29.3849285,109.315995 C30.6475455,108.060326 31.3222189,105.099137 33.7251623,105.281568 C40.0850698,105.764229 37.7917731,118.822554 38.9109604,120.454548 C39.805915,120.301567 45.2763994,115.554612 47.6645259,123.806886 C48.2676819,125.891102 48.7801569,135.027858 48.856416,135.144867 C48.8799257,135.141704 54.9794469,131.822176 56.2383103,137.134805 C57.1144963,140.83303 55.0788201,143.498337 54.9403294,146.440353 C50.7067791,147.247555 60.4629703,149.61698 60.9432429,164.828304 C67.4726584,165.582338 79.257216,150.468851 79.1768486,139.476361 C79.0523447,122.711115 70.2948279,112.514957 66.1612436,117.470629 C63.4113819,120.76723 66.8096413,132.711996 60.4868751,121.854699 C57.9632216,117.52103 44.9774889,87.8215826 39.4414136,89.868246 C37.5600332,90.563578 39.0516243,94.6727165 39.0249535,96.7071256 C32.8278369,90.6363132 18.5494574,56.3053388 15.1988103,69.2017884 C14.6367472,71.3640769 15.2333836,72.6964343 15.5186628,74.7438882 C-0.169122159,58.4354105 -0.798948981,69.8216182 0.38997756,73.4079732 C2.07300601,78.4852008 10.8696399,89.0379194 14.4879832,93.201807 C14.6711229,93.5131054 11.2400682,92.1981413 8.3795718,92.9978326 C6.1475193,93.6218127 4.11856024,94.9887585 4.35662216,97.914568 C4.84282157,103.895648 11.463313,104.088554 15.2365446,104.846738" id="Path" fill="#60A7DF"></path>
                        <path d="M53.7717913,191.892566 C13.6560902,180.968266 102.816493,150.703738 103.900712,149.537209 C110.612477,142.315087 297.092582,159.999799 245.125942,184.653446 C209.633186,201.492811 89.61522,201.653697 53.7717913,191.892566" id="Path" fill="#EAF6FF"></path>
                        <path d="M138.146972,89.5379535 C137.580958,90.8950166 138.747955,91.6251352 140.051072,92.2945747 C141.403777,92.992081 143.137184,93.3810555 144.620873,93.9107569 C147.978039,95.1180019 152.171485,95.1112818 155.893548,94.5950207 C159.121311,94.1388447 161.973906,92.3346976 164.399173,90.577789 C169.832714,86.6406055 167.153184,88.2637055 170.93412,84.5951281 C172.743391,82.8380218 174.646898,79.1423663 175.6434,76.7751151 C176.823436,73.9649308 177.791291,69.3440766 176.537169,66.1581602 C175.879486,64.481497 175.538297,63.2339318 174.557403,61.9462435 C173.888459,61.0744103 172.522912,59.2837034 171.36441,58.9480943 L171.440866,58.2237076 C171.807541,55.0182237 173.00358,52.5634137 173.836105,49.6391853 C174.25138,48.1838903 174.616474,46.7955981 174.950551,45.273102 C175.284825,43.7506059 175.759566,42.5366409 176.019557,40.8868583 C176.71616,40.4508429 177.966331,40.8736157 178.7953,41.0009022 C179.815311,41.1617891 180.792056,41.1752293 181.797448,41.275833 C183.349493,41.4232798 186.446273,41.678248 187.534048,42.208147 C187.958411,45.8901643 185.7797,61.3092182 185.88421,67.0971941 C185.903571,68.2036375 185.783849,69.3237189 185.816644,70.4034792 C185.910486,73.4953149 186.054706,73.6297167 186.491712,76.37942 C187.282552,81.3487308 187.556175,86.2047879 188.283795,91.1142105 C190.130602,103.541835 189.770645,115.21167 187.526145,127.532168 C187.202342,129.302913 186.808799,131.254507 186.32339,132.94461 C185.974101,134.151855 184.865977,137.042483 184.800386,138.02836 C189.09281,139.255765 193.507327,140.912267 197.10058,142.870581 C204.856064,147.10918 205.378219,147.954529 210.931878,152.494742 C212.094331,153.447413 215.641157,156.612972 216.469928,157.605569 C217.704689,159.081222 218.889467,160.831411 219.977241,162.588913 C223.152651,167.712785 221.165773,170.335005 216.067692,172.783095 C210.597208,175.398594 199.936776,176.149861 193.865902,176.002216 C190.379925,175.915251 181.301766,175.345031 177.973048,174.83549 C175.569117,174.46628 173.224256,173.963459 170.905474,173.386717 C169.548423,173.044586 164.637235,172.313677 163.929174,171.904542 C163.719363,171.193596 164.486496,168.598256 164.681489,167.592021 C164.936937,166.263815 165.54029,164.681233 166.097217,163.82956 C167.90866,163.648513 170.958223,164.61423 172.808586,163.762359 C172.697162,163.138577 171.08486,161.549077 170.643112,161.14014 C169.762382,160.32859 168.890739,159.858974 167.664672,159.228669 C162.244763,156.45169 157.348788,157.377284 152.105894,159.73821 C149.815561,160.764408 147.936552,161.736647 145.370422,162.642278 C135.934281,165.982164 125.626892,169.94603 115.635602,171.58929 C110.224386,172.481086 103.309923,172.870061 98.476575,170.730699 C97.3773416,170.248039 96.3379693,169.476414 95.5066294,168.812706 C93.917838,167.531541 94.3603761,168.07488 93.2407941,166.331016 C91.4977067,163.621633 91.437648,162.481391 90.6466106,159.282035 C90.0161914,156.726818 88.3404724,145.271433 88.0654667,142.394443 C87.656514,138.202686 86.751681,128.09547 88.5816956,124.735227 C89.1583783,124.279249 89.9089153,123.937315 90.3447364,123.279932 C90.9816754,122.327655 90.2506971,121.72423 90.1436186,120.919005 C91.6186144,119.705238 91.1290564,119.329703 90.3984733,117.901091 C91.3368913,115.842173 90.800709,117.116619 91.095471,115.526724 C91.095471,115.500041 91.1223394,115.473358 91.1223394,115.426318 C91.1559249,115.057503 91.9268109,115.238353 92.1682311,115.285789 L95.2318213,115.98962 C97.6118473,116.653525 99.7231899,123.896994 100.789431,125.218085 C101.124495,126.338166 101.794822,127.431565 102.230841,128.544926 C103.638468,132.220223 104.590518,135.392502 105.64293,139.255765 C106.896657,143.863178 108.324435,150.617069 108.049627,155.707538 C108.867335,155.332004 109.579347,154.446335 110.206803,153.802787 C110.550165,153.447413 110.886811,153.172285 111.271266,152.843593 C111.618777,152.5487 111.878966,152.253609 112.234775,151.94488 C117.35518,147.504875 119.761284,145.734526 125.288469,141.831141 C126.859875,140.717582 128.337242,139.798708 129.952309,138.725865 C130.885393,138.108803 131.471361,137.766869 132.153147,137.042483 C136.746654,132.1801 140.973488,127.988344 147.553874,125.39933 C152.294171,123.52818 151.889959,125.037038 152.679021,122.75023 C154.21941,118.269905 153.207894,113.830098 151.531187,110.027317 C151.068102,108.974239 148.804045,106.465866 147.632306,106.137372 C145.774633,105.62111 144.54659,108.578544 143.923875,109.960314 C143.479954,110.939471 143.058357,111.516213 142.645255,112.562571 C142.258429,113.54825 141.899855,114.36652 141.495644,115.299031 C141.091432,116.237868 140.739377,117.0761 140.284788,117.975012 C139.55539,119.417064 139.620585,120.154496 139.034617,120.476467 C136.737764,120.456504 131.730759,118.591877 129.390641,117.639798 C128.678628,117.351229 127.102481,116.385512 126.564915,116.358632 C126.256324,116.734364 126.178089,116.989135 125.926791,117.498676 L133.232821,99.0377922 L138.146972,89.5379535 Z" id="Path" fill="#A6D0F3"></path>
                        <path d="M146.591867,43.0667178 C144.175095,42.811552 141.506035,42.187967 139.321595,43.3214883 C137.684796,44.1731612 136.742624,46.1115123 136.576672,48.526002 C136.047602,56.2525267 142.586303,57.110722 142.37827,58.7470645 C141.747061,60.1017561 140.612859,60.2563182 141.445384,62.5294883 C142.983797,66.7216397 145.648115,62.556566 147.901109,66.1648606 C148.57677,67.2446209 149.070279,68.5255894 149.123226,69.9943247 C148.963794,71.9595562 146.780143,74.2801621 145.857925,75.4804893 C145.233038,76.2991545 144.702387,77.0899514 144.350134,78.2908714 C143.810395,80.128619 144.199395,80.356509 144.487637,81.9926538 C144.809465,83.6764321 142.855185,84.8030359 141.83221,85.5610227 L138.716068,88.6325 C138.571453,88.8097921 138.451731,88.9785849 138.353345,89.1392743 L138.355123,89.1351235 C134.328815,91.5834111 129.516606,99.907036 128.025805,112.194131 C125.425498,113.991954 122.2329,118.176199 120.692116,116.412373 C119.643853,115.21165 118.262304,113.36066 117.844659,111.335343 C117.210683,108.23659 117.658753,107.035868 118.502737,104.373525 C119.699961,100.604344 118.959302,101.435857 118.445839,97.9684872 C117.842485,93.8907745 121.970933,89.5582918 121.584502,85.4264233 C121.363233,83.0593698 119.938616,81.0941379 120.670582,78.6326078 C121.284801,76.5669701 122.112783,75.0312315 122.565199,72.6234619 C123.028481,70.162327 121.564351,68.4989063 121.898823,65.587723 C122.716136,58.4383354 126.151932,57.587058 126.490356,54.2669372 C126.885874,50.3769921 125.509066,49.3707571 128.442068,44.5285356 C129.067548,43.5027331 129.473538,43.0732402 130.411758,42.4698155 C132.517964,41.1014862 135.162525,41.926081 136.386618,40.5379867 C137.013481,39.8272381 137.435078,39.1566125 138.869179,38.955405 C142.077384,38.499427 145.0821,40.135967 146.591867,43.0667178" id="Path" fill="#60A7DF"></path>
                        <path d="M146.591867,43.0665201 C147.213199,43.3683313 148.9308,43.7037431 149.682325,43.9587114 C153.734119,45.3468058 160.612231,48.0364236 161.853314,52.4896705 C162.563746,55.0381665 161.653974,57.4056155 161.295992,59.8402655 C160.948876,62.1877518 160.491718,65.0380591 161.394576,67.1977779 C162.109156,68.9078438 163.995081,71.3290536 166.136847,69.4312205 C168.339858,67.4792315 169.063132,64.2668297 170.212941,61.1279537 C170.754458,59.6524983 170.116334,60.0885136 171.062654,58.9749546 C171.418858,58.5525773 171.222284,58.5594951 171.438812,58.2238856 L171.364529,58.9482719 C172.523031,59.2836837 173.88838,61.0743906 174.557521,61.9462238 C175.540391,63.233912 175.879605,64.4814773 176.539263,66.1581405 C177.791212,69.3436618 176.823357,73.964911 175.643716,76.7750954 C174.646622,79.1423466 172.74351,82.8380021 170.936017,84.5951084 C167.153105,88.2636858 169.832832,86.6405857 164.399292,90.5777693 C161.973827,92.3348756 159.121233,94.1388249 155.893469,94.5950005 C152.171603,95.1112621 147.978355,95.1181795 144.620991,93.9107371 C143.1375,93.3810358 141.403698,92.9922586 140.051191,92.2943576 C138.484131,91.489725 137.11404,90.5977319 138.716068,88.6325 L141.83221,85.5610227 C142.855185,84.8030359 144.806699,83.6764321 144.487637,81.9928515 L144.824085,82.8111217 C145.099683,82.1806187 146.143995,80.8862104 146.620711,80.128619 C147.144843,79.2899908 147.706708,78.0695037 148.145888,77.1907526 C148.808115,75.8694638 149.999412,71.5437012 149.123226,69.9943247 C149.070279,68.5255894 148.57677,67.2446209 147.901109,66.1646628 C145.647917,62.556566 142.983797,66.7216397 141.445384,62.5298833 C140.612661,60.2563182 141.747061,60.1019538 142.378665,58.7470645 C142.586303,57.110722 136.047405,56.252329 136.576475,48.526002 C136.742624,46.111315 137.684598,44.1731612 139.321595,43.3214883 C141.50643,42.1881646 144.175095,42.811552 146.591867,43.0665201 M187.53501,42.2081272 C187.542859,38.0634116 187.436373,35.7627683 186.026376,32.1880746 C183.762516,26.4603819 180.938766,22.7113611 176.823357,18.5198025 C171.914936,13.522821 162.349392,8.01669378 155.7775,5.32747103 C150.257625,3.06714825 148.467716,2.49040623 143.117349,0.726382048 C142.287392,0.458368963 141.689965,0.317247027 140.818521,0.149640023 C135.844509,-0.796114121 139.996664,3.04698798 140.033608,3.13434918 C138.473463,2.8592207 134.512942,2.29591886 133.503995,3.36223936 C133.446899,5.28715046 136.699161,5.38755653 137.372056,6.21926678 C136.646214,6.5681186 135.826926,6.73592325 135.086069,7.13161809 C134.460588,7.46030966 133.477126,7.84908674 133.228396,8.51991007 C133.636756,10.96128 139.111192,9.01620863 140.497483,9.82084084 C140.982102,10.8069156 140.32027,12.5573019 140.777033,14.0060747 C141.082661,14.9648737 141.989667,16.5745335 143.117349,15.6155368 C143.460316,16.2325994 143.301081,16.4205643 143.932488,16.7425358 C145.200242,17.3793633 147.531668,16.856382 148.808115,16.5209704 C151.244841,15.8839451 152.626785,15.5619737 155.445597,16.1723162 C159.16272,16.9838661 163.105263,19.2238309 165.664872,21.0481383 C168.69784,23.2145774 171.187513,25.5081053 172.90314,28.9219121 C174.255845,31.6113325 176.436531,37.1779406 176.019676,40.8868385 C176.716081,40.4508231 177.966252,40.8732007 178.794825,41.0008824 C179.815232,41.1617694 180.792175,41.1752095 181.797567,41.2758133 C183.349809,41.4234576 186.446194,41.6784258 187.53501,42.2081272 M125.926712,117.491936 C125.638272,118.940709 124.803178,119.296281 123.458968,119.852863 C118.848075,121.791214 116.380331,121.174151 111.380043,119.966906 C109.350096,119.470608 99.7098741,115.869034 97.4975777,114.614748 C98.1748191,112.28762 99.0932837,110.127901 98.3627006,107.371477 C97.7591494,105.104434 95.7479709,104.299802 94.6953621,102.555938 C93.207327,100.114766 93.7504243,98.3574617 94.166094,95.4533936 C95.2854789,87.4657737 91.4308517,85.7420698 87.891138,91.0335494 C86.7648386,92.7171304 86.1213801,94.9438526 85.692276,97.3178239 C85.236501,99.8532751 85.0956394,102.696665 85.2633694,105.379563 C85.5851974,110.503435 86.4833134,111.321903 86.5905891,112.56927 C83.2790593,112.669874 82.1863453,114.594786 82.9973366,115.983077 C83.2990131,116.499339 83.6945319,116.56654 83.7079659,117.176684 C83.7214003,117.699863 83.35275,118.015115 83.2855791,118.511413 C83.1516321,119.497488 84.13707,120.302318 84.4924834,120.778456 C84.1034846,122.233751 83.5202824,123.467877 84.92139,124.279426 C86.4295766,125.15126 87.5426391,124.634801 88.2398344,124.641521 C88.2667029,124.641521 88.3137227,124.648241 88.3336766,124.648241 L88.5818139,124.735405 C89.1581014,124.279426 89.908836,123.937295 90.3446576,123.279912 C90.9815966,122.327635 90.2508154,121.72421 90.1437373,120.919183 C91.618338,119.705218 91.1291751,119.329684 90.398394,117.901071 C91.33701,115.842153 90.8006297,117.116203 91.0953921,115.526704 C91.0953921,115.500219 91.1222606,115.473339 91.1291751,115.426496 C91.155846,115.057286 91.9269296,115.238333 92.1681523,115.285571 L95.2319396,115.9896 C97.6117684,116.653703 99.7235057,123.896974 100.796068,125.218263 C100.883193,124.822766 100.628339,125.1647 100.970318,124.916452 C101.801658,126.123894 109.409168,129.309415 110.960817,130.027082 C114.267408,131.549578 118.683703,132.951112 122.482223,133.615216 C132.392907,135.332199 134.596709,130.221569 137.998722,123.172588 L139.034736,120.476447 C136.737883,120.456485 131.730878,118.591857 129.390364,117.63958 C128.678549,117.351209 127.102599,116.385493 126.564836,116.358612 C126.256442,116.734344 126.17801,116.989115 125.926712,117.491936 M166.097138,163.829343 C165.540211,164.681213 164.936857,166.263993 164.681213,167.592001 C164.486219,168.597841 163.719482,171.193575 163.929293,171.904522 C162.753405,171.904522 162.421699,172.35378 159.794325,172.118972 C154.973622,171.696594 151.771936,171.911242 146.972568,172.152375 C144.830802,172.259896 140.486024,172.695912 139.445664,171.052454 C137.44871,167.913775 148.017078,165.486043 150.440568,164.681213 C155.821557,162.897226 156.68905,157.283578 162.165462,158.986924 C164.639922,159.75163 165.611728,161.435211 166.097138,163.829343" id="Shape" fill="#DFEAF3"></path>
                        <path d="M243.024027,124.489746 C242.603418,124.7963 242.175697,125.09317 241.751334,125.380949 C242.114255,125.540649 242.475201,125.683353 242.902724,125.70628 C243.028374,125.495585 243.050698,125.064511 243.024027,124.489746 M240.462639,72.6742778 C242.759887,72.0686787 246.180866,70.6228708 248.197774,72.5847421 C250.118271,74.4529277 250.170033,77.2660772 249.247024,79.6050643 C247.622474,83.7209233 243.424485,87.0009212 241.930523,90.7114003 C247.946673,91.07053 250.835618,94.8365487 248.547458,100.673541 C246.693341,105.402905 242.472435,108.824025 241.129805,112.060145 C242.213234,112.848174 244.162773,112.421844 245.926802,114.240617 C247.734492,114.064709 248.529282,116.062552 249.629504,116.849989 C250.988334,116.320288 256.830629,99.456612 260.692368,112.47264 C259.764421,119.976809 256.842878,121.224967 253.106195,131.003096 C255.895767,131.919005 257.871977,127.899995 260.605441,129.253105 C267.116088,132.475982 246.828869,145.883554 246.017285,149.148729 C247.546018,149.531971 249.265398,148.024101 251.341376,148.820432 C256.322698,150.731112 250.985568,159.723782 243.040425,161.821636 C225.589994,166.429841 226.4646,154.396132 227.844766,150.229082 C225.30432,150.777758 224.526717,149.52367 223.143192,149.924306 C219.976475,150.840017 216.963856,146.247823 214.838091,144.193846 C208.7767,138.338274 204.197021,132.826415 203.432457,123.87209 C203.132361,120.355505 204.350131,115.846719 208.167814,114.759447 C212.548153,113.511684 214.211623,118.5731 217.186705,119.800307 C218.230622,115.750068 214.786725,107.899617 213.623679,103.612001 C212.167847,98.2467976 210.645634,92.477796 210.565226,86.8898419 C210.475731,80.669606 214.395751,76.633005 218.26559,82.4599178 C220.709626,86.1395634 223.908151,94.2331239 224.760827,83.1856874 C225.387691,75.0634681 224.074695,62.85563 229.893679,56.3355594 C233.617125,52.1631728 239.556621,51.4806882 240.853219,57.9564851 C241.815739,62.7623394 239.670614,67.5889468 240.462639,72.6742778" id="Shape" fill="#B4D3E2"></path>
                        <path d="M260.348923,112.47266 C256.487382,99.4566317 250.644691,116.320307 249.286059,116.849811 C248.151659,116.037866 247.342051,113.939418 245.412071,114.263564 C240.303519,115.121562 243.320682,124.430668 242.559279,125.7063 C241.820398,125.666375 236.968084,122.652215 235.766514,128.841223 C235.463059,130.404435 235.859368,137.086381 235.808002,137.177892 C235.788641,137.177299 230.553453,135.251202 230.005811,139.21329 C229.624517,141.971097 231.509849,143.746387 231.88324,145.873494 C235.384232,146.12273 227.691968,148.623197 228.653699,159.718267 C223.432142,160.787355 212.544515,150.741608 211.634348,142.744698 C210.245489,130.548324 216.433518,122.438358 220.221961,125.711043 C222.741861,127.88776 221.05014,136.841492 225.207432,128.445133 C226.866555,125.093783 234.747491,102.469605 239.413306,103.515567 C240.998937,103.871139 240.155348,106.97681 240.357849,108.453649 C244.838154,103.546401 253.354645,77.4524804 257.214014,86.5599843 C257.861226,88.0864335 257.49633,89.1027485 257.447137,90.6137809 C268.705587,77.50802 270.22701,85.7344013 269.582367,88.4358783 C268.670026,92.2605988 262.482393,100.633043 259.921202,103.94842 C259.800294,104.189553 262.462834,102.959776 264.850763,103.312976 C266.714165,103.5885 268.478984,104.42021 268.545957,106.565896 C268.683461,110.952337 263.337637,111.620394 260.348923,112.47266" id="Path" fill="#60A7DF"></path>
                        <path d="M240.852642,116.649948 C244.057291,117.925579 246.376666,116.721892 244.233911,113.975549 C244.971212,113.281996 246.248053,113.279229 245.398143,111.772742 C246.415783,110.863751 245.250169,109.176612 244.053735,109.227211 C243.698717,108.008304 242.936721,107.805121 241.828202,108.369411 C241.648026,106.344489 241.128043,107.164143 241.523364,105.398932 C238.402482,104.73641 238.870505,102.814464 241.307627,101.765537 C241.008913,99.0089155 241.210229,100.343051 239.241526,99.3393856 C244.547442,95.6350338 235.683439,92.2658957 237.817896,98.8917089 C237.05511,99.0413301 234.017006,97.9030649 234.725265,100.590904 C238.905078,101.501081 234.698001,109.112574 240.600751,109.63516 C239.742147,112.167449 241.790073,112.632716 242.987494,113.613257 L242.689176,114.153038 C240.47767,114.511773 241.632023,114.454454 240.634336,116.197923 C240.715337,116.382132 240.787447,116.529777 240.852642,116.649948 L240.852642,116.649948 Z M238.104558,89.8812512 C239.997792,89.3327733 240.199305,90.6544571 239.492034,92.1293197 C241.364722,94.3192792 234.160633,96.1595961 235.505831,90.36411 C235.815015,89.0319503 237.257019,89.0021051 238.104558,89.8812512 L238.104558,89.8812512 Z M243.810734,82.3788617 C244.554554,79.5471333 241.023928,82.1321946 240.808783,82.14267 C242.811269,76.3422422 232.051267,86.012257 239.331021,84.8471118 C239.155785,87.0103886 240.654685,87.2102123 242.366558,86.9378512 C242.331787,87.3677391 242.142523,88.3231785 241.841636,88.6445569 C242.002649,91.7006173 240.804437,93.2922911 244.050574,93.7500481 C244.354819,95.2172023 245.11879,96.5098319 246.320361,94.7564805 C249.621815,94.3010954 250.980447,89.4147979 247.975335,89.6452578 C247.587127,88.2812763 247.835462,89.0025006 247.009061,88.2403629 C247.032373,86.9072154 246.449369,86.4650728 245.437062,85.8270592 C243.886005,86.8291438 245.147634,86.6745818 244.123672,86.9303405 C243.750675,86.6229952 243.632533,86.3199979 243.539877,85.804725 C244.419619,85.0014762 245.768176,83.7827679 243.759961,83.2704598 C243.620482,82.6114953 243.697531,82.8496631 243.810734,82.3788617 L243.810734,82.3788617 Z M254.097971,87.8464471 C254.129779,87.8628521 254.16534,87.8731298 254.202679,87.8806404 C255.080446,91.0353282 261.527873,85.3479562 255.123909,83.025176 C253.338741,82.4879641 251.402439,87.6798281 254.097971,87.8464471 L254.097971,87.8464471 Z M256.811877,79.9236559 C257.327711,79.8740458 257.756025,80.1460123 258.52691,78.943313 C263.4055,71.333204 247.154664,76.5205222 254.583183,79.2856427 C255.273661,80.9206014 255.517452,80.3325934 256.811877,79.9236559 L256.811877,79.9236559 Z M251.814158,77.7303365 C251.946919,78.2936384 251.776028,78.8644509 251.872833,79.4799322 C255.354662,78.9320471 253.241936,83.9962294 250.835437,84.3800653 C250.560628,84.1316195 250.029187,84.0905083 249.630113,83.8942422 C249.061332,81.661195 245.621782,82.2938723 249.303345,79.2471008 C250.027804,78.6476291 249.175523,78.3161703 251.309782,78.4865446 L251.293385,77.5261644 L251.814158,77.7303365 Z M245.678483,105.952945 C244.013235,106.731487 242.468302,109.45688 241.590338,105.367704 C242.080686,104.867452 242.258294,104.291699 242.548314,103.660207 C244.440363,103.208973 245.370681,105.107201 245.678483,105.952945 L245.678483,105.952945 Z" id="Shape" fill="#4E7BA0"></path>
                    </g>
                </g>
            </g>
        </g>
    </g>
</svg>