<?xml version="1.0" encoding="UTF-8"?>
<svg width="13px" height="20px" viewBox="0 0 13 20" version="1.1" xmlns="http://www.w3.org/2000/svg" xmlns:xlink="http://www.w3.org/1999/xlink">
    <!-- Generator: sketchtool 55.1 (78136) - https://sketchapp.com -->
    <title>0479ACBC-8AD2-4670-998F-48F81995F007@1.5x</title>
    <desc>Created with sketchtool.</desc>
    <g id="Asset-Artboard-Page" stroke="none" stroke-width="1" fill="none" fill-rule="evenodd">
        <g id="Mobile_icon" fill="#0C7CB0">
            <g id="mobile">
                <path d="M13,18.4433095 L13,1.5526047 C13,0.698672114 12.2503392,0 11.3242877,0 L1.67571235,0 C0.754070556,0 0,0.694586313 0,1.5526047 L0,18.4473953 C0,19.3013279 0.749660787,20 1.67571235,20 L11.3242877,20 C12.2459294,19.9959142 13,19.3013279 13,18.4433095 Z M1.08039349,3.59959142 L11.9151967,3.59959142 L11.9151967,14.9662921 L1.08039349,14.9662921 L1.08039349,3.59959142 Z M1.67571235,1.00102145 L11.3242877,1.00102145 C11.6506106,1.00102145 11.9196065,1.24616956 11.9196065,1.5526047 L11.9196065,2.59856997 L1.08039349,2.59856997 L1.08039349,1.5526047 C1.08039349,1.24616956 1.34938942,1.00102145 1.67571235,1.00102145 Z M1.08039349,18.4433095 L1.08039349,15.9632278 L11.9151967,15.9632278 L11.9151967,18.4433095 C11.9151967,18.7456588 11.6506106,18.9948927 11.3198779,18.9948927 L1.67571235,18.9948927 C1.34938942,18.9948927 1.08039349,18.7497446 1.08039349,18.4433095 Z" id="Shape" fill-rule="nonzero"></path>
                <path d="M7.50336474,17 L5.49663526,17 C5.22207268,17 5,17.2235772 5,17.5 C5,17.7764228 5.22207268,18 5.49663526,18 L7.50336474,18 C7.77792732,18 8,17.7764228 8,17.5 C8,17.2235772 7.77792732,17 7.50336474,17 Z" id="Path"></path>
            </g>
        </g>
    </g>
</svg>