<svg xmlns="http://www.w3.org/2000/svg" width="47" height="45" viewBox="0 0 47 45">
  <g fill="#FFF" fill-rule="evenodd">
    <path d="M38.6311264,1.02259108 L16.2794523,23.3813005 L4.97676617,34.6796309 L3,44 L12.3227879,42.0232129 L23.625474,30.7248826 L45.9771481,8.36695587 C45.9775397,8.3665645 46.4019434,6.24732037 43.5755867,3.42283563 C40.7507961,0.598742256 38.6311264,1.02259108 38.6311264,1.02259108 Z M11.7680092,40.9023421 L8.59007077,41.586449 C8.28273041,41.0123158 7.91392199,40.4389654 7.2373817,39.7630772 C6.56123292,39.087189 5.98726992,38.7185227 5.41369844,38.4105181 L6.09885209,35.2341958 L7.0173495,34.3152696 C7.0173495,34.3152696 8.74706883,34.3497097 10.6991695,36.3026235 C12.6520531,38.2543632 12.6872896,39.9841987 12.6872896,39.9841987 L11.7680092,40.9023421 L11.7680092,40.9023421 Z" transform="rotate(180 24.5 22.5)"/>
    <path d="M5.78463742,31.0266267 C2.07896342,34.5887966 5.20839508,38.2452747 0.284142324,43.6668005 C-1.93857666,46.1145058 9.43449865,45.3681783 15.0691402,39.9519184 C17.4592975,37.6550105 16.785138,34.3063506 14.2216674,31.8418901 C11.6581968,29.3769509 8.17430512,28.7297188 5.78463742,31.0266267 L5.78463742,31.0266267 Z M46.8540216,0.140445111 C44.9514917,-1.6868365 23.8949013,14.8118361 17.6262462,20.8379878 C14.5154188,23.828085 13.476518,25.4313247 12.5228051,26.6305232 C12.108126,27.1508939 12.6559724,27.3122232 12.9027236,27.4352547 C14.1350108,28.0484975 14.9966815,28.6200915 16.1109786,29.6909925 C17.2257651,30.7618934 17.8206117,31.5905611 18.4585419,32.7744404 C18.5863237,33.0118865 18.7542516,33.5389594 19.2947542,33.1411414 C20.5431977,32.2243889 22.2102369,31.225775 25.3210643,28.2351991 C31.5902089,22.2090474 48.7541037,1.96772672 46.8540216,0.140445111 L46.8540216,0.140445111 Z" transform="matrix(1 0 0 -1 0 45)"/>
  </g>
</svg>
