<?xml version="1.0" encoding="UTF-8"?>
<svg width="28px" height="28px" viewBox="0 0 28 28" version="1.1" xmlns="http://www.w3.org/2000/svg" xmlns:xlink="http://www.w3.org/1999/xlink">
    <!-- Generator: sketchtool 55.1 (78136) - https://sketchapp.com -->
    <title>22D54350-FD17-4170-9519-0BC800B2B3C7@1.5x</title>
    <desc>Created with sketchtool.</desc>
    <g id="Asset-Artboard-Page" stroke="none" stroke-width="1" fill="none" fill-rule="evenodd">
        <g id="Circle" transform="translate(-89.000000, -187.000000)" fill="#FFFFFF" fill-rule="nonzero">
            <g id="Group-9">
                <g id="Oval-Copy-5" transform="translate(75.000000, 173.000000)">
                    <g id="phone-call-(1)" transform="translate(14.000000, 14.000000)">
                        <path d="M22.9390142,16.9430148 C22.3447964,16.3242932 21.6280594,15.9934915 20.8684407,15.9934915 C20.114948,15.9934915 19.392085,16.3181672 18.7733633,16.9368889 L16.8375609,18.8665654 C16.678286,18.780802 16.5190111,18.7011646 16.3658622,18.6215271 C16.1453277,18.5112599 15.9370452,18.4071186 15.7593924,18.2968514 C13.9461091,17.1451714 12.2982266,15.6443119 10.7177296,13.7023835 C9.951985,12.7344823 9.43740459,11.91973 9.06372121,11.0927257 C9.5660497,10.6332789 10.0316224,10.1554543 10.4849433,9.6960075 C10.6564701,9.5244807 10.8279969,9.34682794 10.9995237,9.17530114 C12.2859747,7.88885013 12.2859747,6.22258978 10.9995237,4.93613877 L9.32713737,3.26375246 C9.13723269,3.07384779 8.94120206,2.87781716 8.75742335,2.68178653 C8.38986592,2.30197718 8.00393061,1.90991592 7.6057434,1.54235849 C7.01152555,0.954266604 6.30091452,0.641842788 5.55354774,0.641842788 C4.80618097,0.641842788 4.08331802,0.954266604 3.4707223,1.54235849 C3.46459634,1.54848445 3.46459634,1.54848445 3.45847039,1.55461041 L1.37564494,3.65581372 C0.591522425,4.43993624 0.144327551,5.39558556 0.0463122363,6.50438381 C-0.100710736,8.29316331 0.426121581,9.95942366 0.830434755,11.049844 C1.82283982,13.7268873 3.30532146,16.2079 5.516792,18.8665654 C8.19996124,22.070441 11.4283407,24.6004613 15.1161669,26.3831149 C16.5251371,27.0508442 18.4058059,27.8410927 20.5070092,27.9758637 C20.6356543,27.9819897 20.7704254,27.9881156 20.8929445,27.9881156 C22.3080406,27.9881156 23.4964763,27.4796612 24.4276218,26.4688783 C24.4337478,26.4566263 24.4459997,26.4505004 24.4521256,26.4382485 C24.7706754,26.0523132 25.1382328,25.7031336 25.5241682,25.3294502 C25.7875843,25.078286 26.0571264,24.8148698 26.3205426,24.5392018 C26.9270123,23.9082282 27.2455621,23.1731133 27.2455621,22.4196206 C27.2455621,21.6600019 26.9208864,20.931013 26.3021647,20.3184173 L22.9390142,16.9430148 Z M25.1321069,23.3936478 C25.1259809,23.3936478 25.1259809,23.3997737 25.1321069,23.3936478 C24.8931946,23.650938 24.6481563,23.8837243 24.3847401,24.1410145 C23.9865529,24.5208239 23.5822397,24.9190111 23.2024304,25.366206 C22.5837087,26.0278093 21.8547198,26.3402332 20.8990705,26.3402332 C20.8071811,26.3402332 20.7091658,26.3402332 20.6172764,26.3341072 C18.7978672,26.217714 17.107103,25.507103 15.8390298,24.9006332 C12.3717381,23.222121 9.32713737,20.8391236 6.79711705,17.8190267 C4.70816565,15.3012583 3.31144741,12.9733946 2.38642788,10.4740041 C1.81671386,8.94864073 1.60843132,7.76020503 1.70032068,6.63915487 C1.76158025,5.92241788 2.03724832,5.32820003 2.54570277,4.81974559 L4.63465416,2.73079419 C4.93482607,2.44900016 5.25337584,2.29585123 5.56579966,2.29585123 C5.95173496,2.29585123 6.26415877,2.5286376 6.4601894,2.72466823 C6.46631536,2.73079419 6.47244132,2.73692014 6.47856728,2.7430461 C6.85225066,3.09222566 7.20755618,3.45365713 7.58123957,3.83959244 C7.77114424,4.03562307 7.96717487,4.2316537 8.1632055,4.43381028 L9.83559181,6.10619659 C10.4849433,6.75554805 10.4849433,7.35589186 9.83559181,8.00524332 C9.65793905,8.18289608 9.48641225,8.36054884 9.30875949,8.53207564 C8.79417909,9.05890795 8.30410252,9.54898453 7.77114424,10.0268092 C7.75889233,10.0390611 7.74664041,10.0451871 7.74051446,10.057439 C7.21368214,10.5842713 7.31169745,11.0988517 7.42196468,11.4480313 C7.42809064,11.4664091 7.4342166,11.484787 7.44034255,11.5031649 C7.87528551,12.5568295 8.48788123,13.5492346 9.41902672,14.7315443 L9.42515268,14.7376703 C11.1159169,16.8204957 12.8985704,18.4438744 14.8650027,19.6874437 C15.1161669,19.8467185 15.3734571,19.9753637 15.6184954,20.0978828 C15.8390298,20.20815 16.0473124,20.3122913 16.2249652,20.4225585 C16.249469,20.4348104 16.2739728,20.4531883 16.2984766,20.4654402 C16.5067592,20.5695815 16.7027898,20.6185892 16.9049464,20.6185892 C17.4134008,20.6185892 17.7319506,20.3000394 17.8360919,20.1958981 L19.9311692,18.1008208 C20.1394518,17.8925382 20.4702535,17.641374 20.8561888,17.641374 C21.2359981,17.641374 21.5484219,17.8802863 21.7383266,18.0885688 C21.7444526,18.0946948 21.7444526,18.0946948 21.7505785,18.1008208 L25.1259809,21.4762232 C25.7569545,22.1010708 25.7569545,22.7442963 25.1321069,23.3936478 Z" id="Shape"></path>
                    </g>
                </g>
            </g>
        </g>
    </g>
</svg>