<?xml version="1.0" encoding="UTF-8"?>
<svg width="50px" height="83px" viewBox="0 0 50 83" version="1.1" xmlns="http://www.w3.org/2000/svg" xmlns:xlink="http://www.w3.org/1999/xlink">
    <!-- Generator: sketchtool 55.1 (78136) - https://sketchapp.com -->
    <title>28174E6D-9CAC-4472-9E6F-6410919EB1D6@1.5x</title>
    <desc>Created with sketchtool.</desc>
    <g id="Asset-Artboard-Page" stroke="none" stroke-width="1" fill="none" fill-rule="evenodd">
        <g id="Products-Icon" fill="#0C7CB0" fill-rule="nonzero">
            <path d="M40.1513922,1.0241672 L16.2187364,24.9427866 L4.11658706,37.0293725 L2,47 L11.9822086,44.8852975 L24.0843579,32.7987116 L48.0170137,8.88092953 C48.0174329,8.88051086 48.4718557,6.61341249 45.4455847,3.59187068 C42.4209906,0.57074753 40.1513922,1.0241672 40.1513922,1.0241672 Z M11.3881892,43.6862265 L7.98546842,44.4180617 C7.65638923,43.8038728 7.2614942,43.1905211 6.53710077,42.4674779 C5.81312654,41.7444347 5.19856591,41.3500476 4.58442449,41.0205542 L5.31804052,37.622628 L6.30150522,36.6395907 C6.30150522,36.6395907 8.1535713,36.6764337 10.2437482,38.7655973 C12.3347635,40.8535049 12.3724923,42.7040265 12.3724923,42.7040265 L11.3881892,43.6862265 L11.3881892,43.6862265 Z" id="Pencil" transform="translate(25.020741, 24.000000) scale(-1, -1) translate(-25.020741, -24.000000) "></path>
            <path d="M6.1538696,33.0950684 C2.21166321,36.8947163 5.54084583,40.7949596 0.302279068,46.5779206 C-2.06231559,49.1888062 10.0367007,48.3927235 16.0310002,42.6153796 C18.5737208,40.1653446 17.8565298,36.5934407 15.1294334,33.9646828 C12.402337,31.3354143 8.69606927,30.6450334 6.1538696,33.0950684 L6.1538696,33.0950684 Z M49.8447039,0.149808119 C47.8207358,-1.79929227 25.4201077,15.7992919 18.7513258,22.227187 C15.4419349,25.416624 14.3367213,27.1267464 13.3221331,28.4058914 C12.8809852,28.9609535 13.4638004,29.1330381 13.7263017,29.2642717 C15.0372455,29.9183974 15.9539165,30.5280976 17.1393389,31.670392 C18.3252821,32.8126863 18.9580976,33.6965985 19.6367467,34.9594031 C19.7726848,35.2126789 19.9513315,35.77489 20.5263343,35.3505509 C21.8544656,34.3726815 23.6279116,33.3074933 26.9373025,30.1175457 C33.6066053,23.6896506 51.8660677,2.0989085 49.8447039,0.149808119 L49.8447039,0.149808119 Z" id="Brush" transform="translate(25.000000, 24.000000) scale(1, -1) translate(-25.000000, -24.000000) "></path>
            <polygon id="Rectangle-4" points="0 78 46 78 46 83 0 83"></polygon>
        </g>
    </g>
</svg>