<svg xmlns="http://www.w3.org/2000/svg" width="20" height="20" viewBox="0 0 20 20">
  <path fill="#0C7CB0" d="M4.64118013,9.22701097 L4.64118013,10.9152792 L8.66329196,10.9152792 L8.66329196,20 L0,20 L0,10.9152792 L0.000209392291,10.9152792 L0.000209392291,9.22701097 C0.000209392291,5.79876265 0.940799564,3.25313044 2.79601526,1.66038109 C4.07938062,0.558620576 5.70384601,0 7.62439211,0 L7.62439211,4.86663044 C6.58182789,4.86663044 4.64118013,4.86663044 4.64118013,9.22701097 Z M18.9612048,4.86663044 L18.9612048,0 C17.0407634,0 15.416298,0.558620576 14.1329327,1.66038109 C12.277717,3.25313044 11.3370221,5.79887244 11.3370221,9.22701097 L11.3370221,10.9152792 L11.3370221,10.9152792 L11.3370221,20 L20,20 L20,10.9152792 L15.9778882,10.9152792 L15.9778882,9.22701097 C15.9779929,4.86663044 17.9186406,4.86663044 18.9612048,4.86663044 Z"/>
</svg>
