<?xml version="1.0" encoding="UTF-8"?>
<svg width="32px" height="23px" viewBox="0 0 32 23" version="1.1" xmlns="http://www.w3.org/2000/svg" xmlns:xlink="http://www.w3.org/1999/xlink">
    <!-- Generator: sketchtool 55.1 (78136) - https://sketchapp.com -->
    <title>1543E07A-B255-4801-B27C-17FCD217C663@1.5x</title>
    <desc>Created with sketchtool.</desc>
    <g id="Asset-Artboard-Page" stroke="none" stroke-width="1" fill="none" fill-rule="evenodd">
        <g id="Arrow" fill="#0C7CB0" fill-rule="nonzero">
            <path d="M21.205,0.333 C20.776,-0.111 20.062,-0.111 19.618,0.333 C19.189,0.762 19.189,1.476 19.618,1.904 L27.665,9.951 L1.111,9.951 C0.492,9.952 8.04689648e-13,10.444 8.04689648e-13,11.063 C8.04689648e-13,11.682 0.492,12.19 1.111,12.19 L27.665,12.19 L19.618,20.222 C19.189,20.666 19.189,21.381 19.618,21.809 C20.062,22.253 20.777,22.253 21.205,21.809 L31.157,11.857 C31.601,11.428 31.601,10.714 31.157,10.286 L21.205,0.333 Z" id="Path"></path>
        </g>
    </g>
</svg>