<svg xmlns="http://www.w3.org/2000/svg" width="37" height="37" viewBox="0 0 37 37">
  <g fill="none" fill-rule="evenodd">
    <circle cx="18.49" cy="18.49" r="17.491" stroke="#FFF" stroke-width="1.999"/>
    <path fill="#FFF" fill-rule="nonzero" d="M28.2541547,11.5517944 C27.5077961,11.9822137 26.6919183,12.2864303 25.8411618,12.4516074 C25.1181617,11.713569 24.1153367,11.2970691 23.0676222,11.2996703 C21.0037351,11.2846963 19.3125505,12.890533 19.2771155,14.8991049 C19.2779895,15.1779573 19.3120738,15.4558043 19.3788122,15.7270009 C16.3391928,15.5873428 13.5003448,14.2090885 11.5573814,11.9297066 C11.2250398,12.4748064 11.0464349,13.0956125 11.0396816,13.7294099 C11.039761,14.9514574 11.6768751,16.0899111 12.7315812,16.752862 C12.1292666,16.7337615 11.5400612,16.5765494 11.0119534,16.2939079 C11.0119534,16.2939079 11.0119534,16.2939079 11.0119534,16.338914 C11.0059151,18.0940752 12.2830034,19.6054146 14.0536385,19.9382433 C13.4954984,20.0830826 12.9110601,20.1045803 12.3433064,20.0012673 C12.8537762,21.4880157 14.273796,22.4984108 15.8841794,22.5208365 C14.5435307,23.535562 12.8951699,24.0893228 11.1969143,24.0955866 C10.887931,24.0952772 10.5791862,24.0772593 10.2724276,24.0416101 C12.0122359,25.1127866 14.0289294,25.6807762 16.0876523,25.6793069 C21.9584924,25.7837025 26.8047381,21.235997 26.9119964,15.5218442 C26.9131087,15.4612947 26.9137443,15.4007453 26.9137443,15.3401185 C26.9137443,15.1841437 26.9137443,15.0281689 26.9137443,14.8721941 C27.6383334,14.3553197 28.2641654,13.7188157 28.7627972,12.9915261 C28.0687171,13.2873138 27.3334816,13.481335 26.5809259,13.5674034 C27.3723329,13.1164916 27.9674176,12.3997189 28.2541547,11.5517944 Z"/>
  </g>
</svg>
