<svg height="512pt" viewBox="0 -9 512 512" width="512pt" xmlns="http://www.w3.org/2000/svg"><path d="m88.300781 88.300781h379.597657c24.402343 0 44.101562 19.800781 44.101562 44.097657v317.800781c0 24.402343-19.800781 44.101562-44.101562 44.101562h-423.796876c-11.703124 0-22.902343-4.699219-31.203124-12.902343-8.199219-8.199219-12.898438-19.5-12.898438-31.199219v-361.898438zm0 0" fill="#b0d3f0"/><path d="m88.300781 61.800781v353.097657c0-24.398438-19.800781-44.097657-44.101562-44.097657s-44.199219 19.699219-44.199219 44.097657v-353.097657c0-24.402343 19.800781-44.101562 44.101562-44.101562 24.296876 0 44.199219 19.699219 44.199219 44.101562zm0 0" fill="#90bae1"/><path d="m476.699219 220.699219-88.300781 63h-70.597657l-88.300781-63 88.300781-63h70.597657zm0 0" fill="#f0c419"/><path d="m476.699219 220.699219v141.300781l-123.597657 88.199219v-166.5h35.296876zm0 0" fill="#e57e25"/><path d="m353.101562 283.699219v166.5l-123.601562-88.199219v-141.300781l88.300781 63zm0 0" fill="#f29c1f"/><path d="m256 335.5c-2 0-3.898438-.699219-5.5-1.898438l-132.398438-106c-2.101562-1.703124-3.300781-4.203124-3.300781-6.902343v-79.398438c0-4.902343 4-8.800781 8.800781-8.800781 4.898438 0 8.796876 4 8.796876 8.800781v75.199219l129.101562 103.300781c2.898438 2.300781 4 6.300781 2.800781 9.800781s-4.601562 5.898438-8.300781 5.898438zm0 0" fill="#cc66a1"/><g fill="#2c3e50"><path d="m176.601562 150.101562h-17.703124c-4.898438 0-8.796876-4-8.796876-8.800781s4-8.800781 8.796876-8.800781h17.703124c4.898438 0 8.796876 4 8.796876 8.800781s-4 8.800781-8.796876 8.800781zm0 0"/><path d="m264.800781 150.101562h-53c-4.902343 0-8.800781-4-8.800781-8.800781s4-8.800781 8.800781-8.800781h53c4.898438 0 8.800781 4 8.800781 8.800781s-3.902343 8.800781-8.800781 8.800781zm0 0"/><path d="m211.898438 185.398438h-53c-4.898438 0-8.796876-4-8.796876-8.796876 0-4.800781 4-8.800781 8.796876-8.800781h53c4.902343 0 8.800781 4 8.800781 8.800781 0 4.796876-4 8.796876-8.800781 8.796876zm0 0"/></g><path d="m353.101562 284.699219c-.601562 0-1-.398438-1-1v-1.199219c0-.601562.398438-1 1-1 .597657 0 1 .398438 1 1v1.199219c0 .601562-.402343 1-1 1zm0 0"/><path d="m388.398438 35.300781v35.300781h-70.597657v-35.300781c0-19.5 15.800781-35.300781 35.300781-35.300781s35.296876 15.800781 35.296876 35.300781zm0 0" fill="#fb7b76"/><path d="m317.800781 106h70.597657v203h-70.597657zm0 0" fill="#cc4b4c"/><path d="m353.101562 158.898438c-4.902343 0-8.800781-4-8.800781-8.796876v-44.101562c0-4.898438 4-8.800781 8.800781-8.800781 4.796876 0 8.796876 4 8.796876 8.800781v44.101562c0 4.898438-3.898438 8.796876-8.796876 8.796876zm0 0" fill="#802f34"/><path d="m353.101562 317.800781c-4.902343 0-8.800781-4-8.800781-8.800781v-123.601562c0-4.898438 4-8.796876 8.800781-8.796876 4.796876 0 8.796876 4 8.796876 8.796876v123.601562c0 4.898438-3.898438 8.800781-8.796876 8.800781zm0 0" fill="#802f34"/><path d="m388.398438 309-27.398438 83.398438c-1.5 2.902343-4.5 4.800781-7.898438 4.800781-3.402343 0-6.300781-1.898438-7.902343-4.800781l-27.5-83.398438zm0 0" fill="#f9eab0"/><path d="m317.800781 70.601562h70.597657v35.296876h-70.597657zm0 0" fill="#ecf0f1"/></svg>