<svg id="Layer_1" enable-background="new 0 0 256 256" height="512" viewBox="0 0 256 256" width="512" xmlns="http://www.w3.org/2000/svg"><g><g><g><g><path d="m148.857 239.622h-41.715c-6.617 0-12-5.383-12-12v-38.294c0-2.209 1.791-4 4-4s4 1.791 4 4v38.294c0 2.206 1.794 4 4 4h41.715c2.206 0 4-1.794 4-4v-38.294c0-2.209 1.791-4 4-4s4 1.791 4 4v38.294c0 6.617-5.382 12-12 12z" fill="#eaa97d"/></g></g></g><g><g><g><path d="m148.857 241.622h-41.715c-7.72 0-14-6.28-14-14v-38.294c0-3.309 2.691-6 6-6s6 2.691 6 6v38.294c0 1.103.897 2 2 2h41.715c1.103 0 2-.897 2-2v-38.294c0-3.309 2.691-6 6-6s6 2.691 6 6v38.294c0 7.72-6.28 14-14 14zm-49.714-54.294c-1.103 0-2 .897-2 2v38.294c0 5.514 4.486 10 10 10h41.715c5.514 0 10-4.486 10-10v-38.294c0-1.103-.897-2-2-2s-2 .897-2 2v38.294c0 3.309-2.691 6-6 6h-41.715c-3.309 0-6-2.691-6-6v-38.294c0-1.103-.898-2-2-2z" fill="#3762cc"/></g></g></g><g><g><g><path d="m60.518 108.558c-25.279 0-45.771-20.492-45.771-45.771v-14.656c0-4.167 3.378-7.545 7.545-7.545h83.997v22.201c0 25.279-20.493 45.771-45.771 45.771z" fill="#4671c6"/></g></g><g><g><path d="m60.518 110.559c-26.341 0-47.771-21.43-47.771-47.771v-14.657c0-5.263 4.282-9.545 9.546-9.545h83.997c1.104 0 2 .896 2 2v22.201c-.001 26.341-21.432 47.772-47.772 47.772zm-38.226-67.973c-3.058 0-5.546 2.488-5.546 5.545v14.656c0 24.136 19.636 43.771 43.771 43.771s43.771-19.636 43.771-43.771v-20.201z" fill="#3762cc"/></g></g><g><g><path d="m109.427 156.478v-14.662c0-10.004-8.11-18.115-18.115-18.115h-61.59c-10.004 0-18.115 8.11-18.115 18.115v14.662z" fill="#6bdddd"/></g></g><g><g><path d="m60.518 121.084c-6.541 0-12.701-1.603-18.113-4.426v8.493.002c0 9.994 8.102 18.096 18.096 18.096 9.994 0 18.096-8.102 18.096-18.096v-.002-8.474c-5.405 2.81-11.552 4.407-18.079 4.407z" fill="#f9cfcf"/></g></g><g><g><path d="m99.501 67.767v-3.65c0-21.336-17.454-38.632-38.984-38.632-21.53 0-38.984 17.296-38.984 38.632v3.65c-6.769-.137-12.14 5.255-12.14 11.774 0 6.96 6.077 12.466 13.169 11.716 4.023 17.092 19.484 29.826 37.954 29.826 18.471 0 33.931-12.735 37.954-29.826 7.083.749 13.169-4.746 13.169-11.716.002-6.521-5.373-11.911-12.138-11.774z" fill="#f9cfcf"/></g></g><g><g><path d="m80.756 87.569c-2.721 0-4.927-2.206-4.927-4.927v-5.256c0-2.721 2.206-4.927 4.927-4.927 2.721 0 4.927 2.206 4.927 4.927v5.256c.001 2.721-2.205 4.927-4.927 4.927z" fill="#3762cc"/></g></g><g><g><path d="m40.269 87.569c-2.721 0-4.927-2.206-4.927-4.927v-5.256c0-2.721 2.206-4.927 4.927-4.927 2.721 0 4.927 2.206 4.927 4.927v5.256c0 2.721-2.206 4.927-4.927 4.927z" fill="#3762cc"/></g></g><g><g><path d="m60.518 123.084c-18.586 0-34.592-12.155-39.488-29.762-3.344-.064-6.576-1.32-9.072-3.566-2.899-2.609-4.563-6.332-4.563-10.214 0-3.716 1.468-7.201 4.134-9.813 2.196-2.153 4.985-3.486 8.006-3.857v-1.754c0-22.405 18.385-40.632 40.983-40.632s40.983 18.228 40.983 40.632v1.754c3.021.371 5.809 1.704 8.007 3.857 2.665 2.612 4.133 6.097 4.133 9.813 0 3.882-1.662 7.604-4.562 10.213-2.496 2.247-5.729 3.503-9.073 3.567-4.898 17.607-20.903 29.762-39.488 29.762zm-37.953-33.827c.917 0 1.73.63 1.945 1.542 3.92 16.654 18.727 28.285 36.007 28.285s32.087-11.631 36.008-28.285c.23-.981 1.165-1.641 2.156-1.53 2.831.297 5.635-.609 7.723-2.488 2.057-1.851 3.236-4.489 3.236-7.239 0-2.632-1.042-5.103-2.933-6.956-1.911-1.872-4.479-2.869-7.166-2.818-.53.018-1.057-.194-1.44-.571s-.601-.891-.601-1.429v-3.65c0-20.199-16.591-36.632-36.983-36.632s-36.983 16.432-36.983 36.631v3.65c0 .538-.217 1.052-.601 1.429-.384.376-.891.592-1.44.571-2.7-.063-5.255.946-7.166 2.818-1.891 1.854-2.933 4.324-2.933 6.957 0 2.75 1.18 5.389 3.238 7.241 2.117 1.905 4.854 2.787 7.721 2.486.071-.008.142-.012.212-.012z" fill="#3762cc"/></g></g><g><g><path d="m109.427 158.478h-97.82c-1.104 0-2-.896-2-2v-14.662c0-11.091 9.023-20.115 20.115-20.115h10.682v-5.044c0-.699.365-1.348.963-1.71.6-.362 1.344-.386 1.962-.063 5.268 2.748 11.211 4.2 17.188 4.2 6.05 0 11.821-1.407 17.155-4.182.62-.322 1.363-.298 1.961.065.597.362.962 1.011.962 1.709v5.025h10.717c11.091 0 20.114 9.023 20.114 20.115v14.662c.001 1.105-.895 2-1.999 2zm-95.82-4h93.819v-12.662c0-8.886-7.229-16.115-16.114-16.115h-12.716c-1.104 0-2-.896-2-2v-3.876c-5.06 2.139-10.557 3.258-16.078 3.258-5.534 0-11.044-1.125-16.113-3.273v3.891c0 1.104-.896 2-2 2h-12.682c-8.886 0-16.115 7.229-16.115 16.115v12.662z" fill="#3762cc"/></g></g><g><g><path d="m86.729 56.62h-44.51c-11.112 0-20.121-9.008-20.121-20.121 0-11.112 9.008-20.121 20.121-20.121h64.453v20.299c0 11.014-8.928 19.943-19.943 19.943z" fill="#4671c6"/></g></g><g><g><path d="m86.729 58.62h-44.51c-12.197 0-22.12-9.923-22.12-22.121 0-12.197 9.923-22.121 22.12-22.121h64.453c1.104 0 2 .896 2 2v20.299c0 12.099-9.844 21.943-21.943 21.943zm-44.51-40.242c-9.991 0-18.12 8.129-18.12 18.121s8.129 18.121 18.12 18.121h44.511c9.894 0 17.942-8.049 17.942-17.943v-18.299z" fill="#3762cc"/></g></g><g><g><path d="m60.5 103.558c-1.605 0-3.01-.19-4.293-.58-2.129-.648-3.999-1.741-5.407-3.161-.778-.784-.772-2.05.012-2.828.785-.778 2.053-.772 2.828.011.943.952 2.234 1.695 3.731 2.151.9.274 1.924.407 3.129.407s2.229-.133 3.129-.407c1.497-.456 2.788-1.199 3.731-2.151.776-.784 2.044-.79 2.828-.011.784.778.79 2.044.012 2.828-1.408 1.42-3.278 2.513-5.407 3.161-1.283.39-2.688.58-4.293.58z" fill="#3762cc"/></g></g></g><g><g><g><path d="m195.518 108.558c-25.279 0-45.771-20.492-45.771-45.771v-14.656c0-4.167 3.378-7.545 7.545-7.545h83.997v22.201c0 25.279-20.493 45.771-45.771 45.771z" fill="#4671c6"/></g></g><g><g><path d="m195.518 110.559c-26.341 0-47.771-21.43-47.771-47.771v-14.657c0-5.263 4.282-9.545 9.546-9.545h83.997c1.104 0 2 .896 2 2v22.201c-.001 26.341-21.432 47.772-47.772 47.772zm-38.226-67.973c-3.058 0-5.546 2.488-5.546 5.545v14.656c0 24.136 19.636 43.771 43.771 43.771s43.771-19.636 43.771-43.771v-20.201z" fill="#3762cc"/></g></g><g><g><path d="m244.427 156.478v-14.662c0-10.004-8.11-18.115-18.115-18.115h-61.59c-10.004 0-18.115 8.11-18.115 18.115v14.662z" fill="#6bdddd"/></g></g><g><g><path d="m195.518 121.084c-6.541 0-12.701-1.603-18.113-4.426v8.493.002c0 9.994 8.102 18.096 18.096 18.096 9.994 0 18.096-8.102 18.096-18.096v-.002-8.474c-5.405 2.81-11.552 4.407-18.079 4.407z" fill="#f9cfcf"/></g></g><g><g><path d="m234.501 67.767v-3.65c0-21.336-17.454-38.632-38.984-38.632-21.53 0-38.984 17.296-38.984 38.632v3.65c-6.769-.137-12.14 5.255-12.14 11.774 0 6.96 6.077 12.466 13.169 11.716 4.023 17.092 19.484 29.826 37.954 29.826 18.471 0 33.931-12.735 37.954-29.826 7.083.749 13.169-4.746 13.169-11.716.002-6.521-5.373-11.911-12.138-11.774z" fill="#f9cfcf"/></g></g><g><g><path d="m215.756 87.569c-2.721 0-4.927-2.206-4.927-4.927v-5.256c0-2.721 2.206-4.927 4.927-4.927 2.721 0 4.927 2.206 4.927 4.927v5.256c.001 2.721-2.205 4.927-4.927 4.927z" fill="#3762cc"/></g></g><g><g><path d="m175.269 87.569c-2.721 0-4.927-2.206-4.927-4.927v-5.256c0-2.721 2.206-4.927 4.927-4.927 2.721 0 4.927 2.206 4.927 4.927v5.256c0 2.721-2.206 4.927-4.927 4.927z" fill="#3762cc"/></g></g><g><g><path d="m195.518 123.084c-18.586 0-34.592-12.155-39.488-29.762-3.344-.064-6.576-1.32-9.072-3.566-2.899-2.609-4.563-6.332-4.563-10.214 0-3.716 1.468-7.201 4.134-9.813 2.196-2.153 4.985-3.486 8.006-3.857v-1.754c0-22.405 18.385-40.632 40.983-40.632s40.983 18.228 40.983 40.632v1.754c3.021.371 5.809 1.704 8.007 3.857 2.665 2.612 4.133 6.097 4.133 9.813 0 3.882-1.662 7.604-4.562 10.213-2.496 2.247-5.729 3.503-9.073 3.567-4.898 17.607-20.903 29.762-39.488 29.762zm-37.953-33.827c.917 0 1.73.63 1.945 1.542 3.92 16.654 18.727 28.285 36.007 28.285s32.087-11.631 36.008-28.285c.23-.981 1.165-1.641 2.156-1.53 2.832.297 5.635-.609 7.723-2.488 2.057-1.851 3.236-4.489 3.236-7.239 0-2.632-1.042-5.103-2.933-6.956-1.911-1.872-4.458-2.869-7.166-2.818-.54.018-1.057-.194-1.44-.571s-.601-.891-.601-1.429v-3.65c0-20.199-16.591-36.632-36.983-36.632s-36.983 16.433-36.983 36.632v3.65c0 .538-.217 1.052-.601 1.429-.385.376-.9.592-1.44.571-2.705-.063-5.255.946-7.166 2.818-1.891 1.854-2.933 4.324-2.933 6.957 0 2.75 1.18 5.389 3.238 7.241 2.117 1.905 4.854 2.787 7.721 2.486.071-.009.142-.013.212-.013z" fill="#3762cc"/></g></g><g><g><path d="m244.427 158.478h-97.819c-1.104 0-2-.896-2-2v-14.662c0-11.091 9.023-20.115 20.115-20.115h10.682v-5.044c0-.699.365-1.348.963-1.71.6-.362 1.344-.386 1.962-.063 5.268 2.748 11.211 4.2 17.188 4.2 6.05 0 11.821-1.407 17.155-4.182.62-.322 1.363-.298 1.961.065.597.362.962 1.011.962 1.709v5.025h10.717c11.091 0 20.114 9.023 20.114 20.115v14.662c0 1.105-.896 2-2 2zm-95.82-4h93.819v-12.662c0-8.886-7.229-16.115-16.114-16.115h-12.717c-1.104 0-2-.896-2-2v-3.876c-5.06 2.139-10.557 3.258-16.078 3.258-5.534 0-11.044-1.125-16.113-3.273v3.891c0 1.104-.896 2-2 2h-12.682c-8.886 0-16.115 7.229-16.115 16.115z" fill="#3762cc"/></g></g><g><g><path d="m221.346 16.378h-44.51c-11.112 0-20.121 9.008-20.121 20.121 0 11.112 9.008 20.121 20.121 20.121h64.453v-20.299c0-11.014-8.929-19.943-19.943-19.943z" fill="#4671c6"/></g></g><g><g><path d="m241.289 58.62h-64.453c-12.197 0-22.121-9.923-22.121-22.121s9.924-22.121 22.121-22.121h44.51c12.1 0 21.943 9.844 21.943 21.943v20.299c0 1.104-.895 2-2 2zm-64.453-40.242c-9.992 0-18.121 8.129-18.121 18.121s8.129 18.121 18.121 18.121h62.453v-18.299c0-9.894-8.05-17.943-17.943-17.943z" fill="#3762cc"/></g></g><g><g><path d="m195.5 103.558c-1.605 0-3.01-.19-4.293-.58-2.129-.648-3.999-1.741-5.407-3.161-.778-.784-.772-2.05.012-2.828s2.052-.772 2.828.011c.943.952 2.234 1.695 3.731 2.151.9.274 1.924.407 3.129.407s2.229-.133 3.129-.407c1.497-.456 2.788-1.199 3.731-2.151.776-.784 2.043-.79 2.828-.011.784.778.79 2.044.012 2.828-1.408 1.42-3.278 2.513-5.407 3.161-1.283.39-2.688.58-4.293.58z" fill="#3762cc"/></g></g></g><g><g><path d="m107.525 167.428h-94.05c-3.024 0-5.475-2.451-5.475-5.475 0-3.024 2.451-5.475 5.475-5.475h94.05c3.024 0 5.475 2.451 5.475 5.475 0 3.024-2.451 5.475-5.475 5.475z" fill="#eaa97d"/></g></g><g><g><path d="m107.525 178.378h-94.05c-3.024 0-5.475-2.451-5.475-5.475 0-3.024 2.451-5.475 5.475-5.475h94.05c3.024 0 5.475 2.451 5.475 5.475 0 3.024-2.451 5.475-5.475 5.475z" fill="#eaa97d"/></g></g><g><g><path d="m107.525 189.328h-94.05c-3.024 0-5.475-2.451-5.475-5.475 0-3.024 2.451-5.475 5.475-5.475h94.05c3.024 0 5.475 2.451 5.475 5.475 0 3.024-2.451 5.475-5.475 5.475z" fill="#eaa97d"/></g></g><g><g><path d="m107.525 200.278h-94.05c-3.024 0-5.475-2.451-5.475-5.475 0-3.024 2.451-5.475 5.475-5.475h94.05c3.024 0 5.475 2.451 5.475 5.475 0 3.024-2.451 5.475-5.475 5.475z" fill="#eaa97d"/></g></g><g><g><path d="m242.525 167.428h-94.05c-3.024 0-5.475-2.451-5.475-5.475 0-3.024 2.451-5.475 5.475-5.475h94.05c3.024 0 5.475 2.451 5.475 5.475 0 3.024-2.451 5.475-5.475 5.475z" fill="#eaa97d"/></g></g><g><g><path d="m242.525 178.378h-94.05c-3.024 0-5.475-2.451-5.475-5.475 0-3.024 2.451-5.475 5.475-5.475h94.05c3.024 0 5.475 2.451 5.475 5.475 0 3.024-2.451 5.475-5.475 5.475z" fill="#eaa97d"/></g></g><g><g><path d="m242.525 189.328h-94.05c-3.024 0-5.475-2.451-5.475-5.475 0-3.024 2.451-5.475 5.475-5.475h94.05c3.024 0 5.475 2.451 5.475 5.475 0 3.024-2.451 5.475-5.475 5.475z" fill="#eaa97d"/></g></g><g><g><path d="m242.525 200.278h-94.05c-3.024 0-5.475-2.451-5.475-5.475 0-3.024 2.451-5.475 5.475-5.475h94.05c3.024 0 5.475 2.451 5.475 5.475 0 3.024-2.451 5.475-5.475 5.475z" fill="#eaa97d"/></g></g><g><g><path d="m107.525 169.428h-94.05c-4.121 0-7.475-3.354-7.475-7.475s3.354-7.475 7.475-7.475h94.051c4.121 0 7.475 3.353 7.475 7.475s-3.355 7.475-7.476 7.475zm-94.05-10.95c-1.916 0-3.475 1.559-3.475 3.475s1.559 3.475 3.475 3.475h94.051c1.916 0 3.475-1.559 3.475-3.475s-1.559-3.475-3.475-3.475z" fill="#3762cc"/></g></g><g><g><path d="m107.525 180.378h-94.05c-4.121 0-7.475-3.354-7.475-7.475s3.354-7.475 7.475-7.475h94.051c4.121 0 7.475 3.354 7.475 7.475s-3.355 7.475-7.476 7.475zm-94.05-10.95c-1.916 0-3.475 1.559-3.475 3.475s1.559 3.475 3.475 3.475h94.051c1.916 0 3.475-1.559 3.475-3.475s-1.559-3.475-3.475-3.475z" fill="#3762cc"/></g></g><g><g><path d="m107.525 191.328h-94.05c-4.121 0-7.475-3.353-7.475-7.475s3.354-7.475 7.475-7.475h94.051c4.121 0 7.475 3.354 7.475 7.475s-3.355 7.475-7.476 7.475zm-94.05-10.95c-1.916 0-3.475 1.559-3.475 3.475s1.559 3.475 3.475 3.475h94.051c1.916 0 3.475-1.559 3.475-3.475s-1.559-3.475-3.475-3.475z" fill="#3762cc"/></g></g><g><g><path d="m107.525 202.278h-94.05c-4.121 0-7.475-3.354-7.475-7.475s3.354-7.475 7.475-7.475h94.051c4.121 0 7.475 3.354 7.475 7.475s-3.355 7.475-7.476 7.475zm-94.05-10.95c-1.916 0-3.475 1.559-3.475 3.475s1.559 3.475 3.475 3.475h94.051c1.916 0 3.475-1.559 3.475-3.475s-1.559-3.475-3.475-3.475z" fill="#3762cc"/></g></g><g><g><path d="m242.525 169.428h-94.051c-4.121 0-7.475-3.354-7.475-7.475s3.354-7.475 7.475-7.475h94.051c4.121 0 7.475 3.353 7.475 7.475s-3.354 7.475-7.475 7.475zm-94.05-10.95c-1.916 0-3.475 1.559-3.475 3.475s1.559 3.475 3.475 3.475h94.051c1.916 0 3.475-1.559 3.475-3.475s-1.559-3.475-3.475-3.475z" fill="#3762cc"/></g></g><g><g><path d="m242.525 180.378h-94.051c-4.121 0-7.475-3.354-7.475-7.475s3.354-7.475 7.475-7.475h94.051c4.121 0 7.475 3.354 7.475 7.475s-3.354 7.475-7.475 7.475zm-94.05-10.95c-1.916 0-3.475 1.559-3.475 3.475s1.559 3.475 3.475 3.475h94.051c1.916 0 3.475-1.559 3.475-3.475s-1.559-3.475-3.475-3.475z" fill="#3762cc"/></g></g><g><g><path d="m242.525 191.328h-94.051c-4.121 0-7.475-3.353-7.475-7.475s3.354-7.475 7.475-7.475h94.051c4.121 0 7.475 3.354 7.475 7.475s-3.354 7.475-7.475 7.475zm-94.05-10.95c-1.916 0-3.475 1.559-3.475 3.475s1.559 3.475 3.475 3.475h94.051c1.916 0 3.475-1.559 3.475-3.475s-1.559-3.475-3.475-3.475z" fill="#3762cc"/></g></g><g><g><path d="m242.525 202.278h-94.051c-4.121 0-7.475-3.354-7.475-7.475s3.354-7.475 7.475-7.475h94.051c4.121 0 7.475 3.354 7.475 7.475s-3.354 7.475-7.475 7.475zm-94.05-10.95c-1.916 0-3.475 1.559-3.475 3.475s1.559 3.475 3.475 3.475h94.051c1.916 0 3.475-1.559 3.475-3.475s-1.559-3.475-3.475-3.475z" fill="#3762cc"/></g></g></g></svg>