<svg id="Capa_1" enable-background="new 0 0 512 512" height="512" viewBox="0 0 512 512" width="512" xmlns="http://www.w3.org/2000/svg" xmlns:xlink="http://www.w3.org/1999/xlink"><linearGradient id="SVGID_1_" gradientUnits="userSpaceOnUse" x1="256" x2="256" y1="512" y2="87.966"><stop offset="0" stop-color="#ffbef9"/><stop offset="1" stop-color="#fff1ff"/></linearGradient><linearGradient id="SVGID_2_" gradientUnits="userSpaceOnUse" x1="256" x2="256" y1="511.399" y2="0"><stop offset="0" stop-color="#a93aff"/><stop offset="1" stop-color="#ff81ff"/></linearGradient><g><g><g><path d="m308.2 108.5c-14.7-10.201-33-16.5-52.2-16.5s-37.5 6.299-52.2 16.5l-41.22-20.355 19.92 41.655c-10.199 14.7-16.5 33-16.5 52.2v17.1c0 9.486 8.889 17.227 19.501 14.399 2.999-.9 6.599-1.499 10.499-1.499h39.3l-24.3 124.799 30 174.6c4.2.3 8.699.601 13.2.601h3.6c4.501 0 9-.3 13.2-.601l30-174.901-24.3-124.498h39.3c7.777 0 10.703 2.1 15 2.1 8.82 0 15-7.301 15-15v-17.1c0-19.2-6.301-37.5-16.5-52.2l19.738-41.835zm-161.595 197.895-55.605-55.606v-53.789c0-8.291-6.709-15-15-15s-15 6.709-15 15v60c0 3.984 1.582 7.793 4.395 10.605l60 60c2.93 2.93 6.768 4.395 10.605 4.395s7.676-1.465 10.605-4.395c5.86-5.859 5.86-15.351 0-21.21zm300-38.79c2.813-2.812 4.395-6.621 4.395-10.605v-60c0-8.291-6.709-15-15-15s-15 6.709-15 15v53.789l-55.605 55.605c-5.859 5.859-5.859 15.352 0 21.211 2.93 2.93 6.768 4.395 10.605 4.395s7.676-1.465 10.605-4.395zm-381.21 158.79c-2.813 2.812-4.395 6.621-4.395 10.605v60c0 8.291 6.709 15 15 15s15-6.709 15-15v-53.789l55.605-55.605c5.859-5.859 5.859-15.352 0-21.211-2.93-2.93-6.768-4.395-10.605-4.395s-7.676 1.465-10.605 4.395zm300-38.79 55.605 55.606v53.789c0 8.291 6.709 15 15 15s15-6.709 15-15v-60c0-3.984-1.582-7.793-4.395-10.605l-60-60c-2.93-2.93-6.768-4.395-10.605-4.395s-7.676 1.465-10.605 4.395c-5.86 5.859-5.86 15.351 0 21.21zm-308.79-81.21c-5.859-5.859-15.352-5.859-21.211 0s-5.859 15.352 0 21.211l29.982 29.982c2.814 2.821 6.732 4.412 10.624 4.412h60c8.291 0 15-6.709 15-15s-6.709-15-15-15h-53.789zm390.019 51.192 29.982-29.982c5.859-5.859 5.859-15.352 0-21.211s-15.352-5.859-21.211 0l-25.606 25.606h-53.789c-8.291 0-15 6.709-15 15s6.709 15 15 15h60c3.891 0 7.809-1.59 10.624-4.413z" fill="url(#SVGID_1_)"/></g></g><g><g><path d="m329.5 129.8c30-30.3 46.5-72.201 46.5-114.8 0-8.401-6.599-15-15-15s-15 6.599-15 15c0 34.799-13.5 68.899-37.8 93.5 8.1 6 15.3 13.2 21.3 21.3zm-152.1 54.899c-33.299 8.401-56.4 38.101-56.4 72.301v121.8c0 69 52.5 126 120 132.599v-329.399h-45c-6.899 0-13.5.899-18.6 2.699zm158.101 0c-6-1.8-12.601-2.699-19.501-2.699h-45v329.399c67.5-6.599 120-63.6 120-132.599v-121.8c0-34.2-23.101-63.9-55.499-72.301zm-131.701-76.199c-24.3-24.6-37.8-58.7-37.8-93.5 0-8.401-6.599-15-15-15s-15 6.599-15 15c0 42.599 16.5 84.5 46.5 114.8 6-8.1 13.2-15.3 21.3-21.3z" fill="url(#SVGID_2_)"/></g></g></g></svg>