<svg height="512" viewBox="0 0 128 128" width="512" xmlns="http://www.w3.org/2000/svg"><path d="m3.952 31.966h120.1a2.953 2.953 0 0 1 2.948 2.953v72.535a2.952 2.952 0 0 1 -2.952 2.952h-120.095a2.953 2.953 0 0 1 -2.953-2.953v-72.535a2.952 2.952 0 0 1 2.952-2.952z" fill="#e678a0"/><path d="m2.969 109.421v-72.531a2.954 2.954 0 0 1 2.953-2.954h120.094a2.92 2.92 0 0 1 .846.138 2.944 2.944 0 0 0 -2.815-2.108h-120.094a2.954 2.954 0 0 0 -2.953 2.955v72.531a2.945 2.945 0 0 0 2.107 2.816 2.923 2.923 0 0 1 -.138-.847z" fill="#fa8cb4"/><path d="m8.048 36.89h111.9a1.969 1.969 0 0 1 1.969 1.969v64.65a1.968 1.968 0 0 1 -1.968 1.968h-111.9a1.969 1.969 0 0 1 -1.969-1.969v-64.65a1.968 1.968 0 0 1 1.968-1.968z" fill="#c8beff"/><path d="m117.052 83.843h-33.652a2.9 2.9 0 0 0 -2.9 2.9v18.732h39.461v-18.73a2.9 2.9 0 0 0 -2.909-2.902z" fill="#a99be0"/><path d="m114.7 63.7v-9.654q.278-.11.545-.247a6.414 6.414 0 0 0 3.337-5.755v-10.427h-34.72a4.743 4.743 0 0 0 -4.744 4.742v7.79a4.743 4.743 0 0 0 4.744 4.742l3.106 7.934a13.1 13.1 0 0 0 12.2 8.324l-6.368-16.258h6.449z" fill="#a99be0"/><path d="m10.018 38.86h111.9a1.969 1.969 0 0 0 -1.969-1.97h-111.9a1.969 1.969 0 0 0 -1.969 1.97v64.647a1.969 1.969 0 0 0 1.969 1.97v-64.647a1.969 1.969 0 0 1 1.969-1.97z" fill="#a99be0"/><path d="m102.958 38.858h-6.733v11.097 55.538h6.733z" fill="#a99be0"/><path d="m84.987 31.966v-10.705a5.618 5.618 0 0 1 5.619-5.617h-78.906a5.618 5.618 0 0 0 -5.619 5.617v10.705z" fill="#dcdcd2"/><path d="m90.606 15.644h-78.906a5.618 5.618 0 0 1 5.619 5.617c0 .145-.011.288-.022.43h.022v83.818h78.906v-84.248a5.618 5.618 0 0 0 -5.619-5.617z" fill="#fffffa"/><path d="m23.865 46.468h36.096v33.376h-36.096z" fill="#f0dc78"/><path d="m23.865 26.791h50.635v8.451h-50.635z" fill="#e678a0"/><path d="m23.865 88.318h65.813v17.175h-65.813z" fill="#b4aaf0"/><path d="m92.8 49.237h-8.938a4.743 4.743 0 0 1 -4.744-4.742v-7.795a4.743 4.743 0 0 1 4.744-4.742h8.938z" fill="#aad2ff"/><path d="m83.862 31.962a4.743 4.743 0 0 0 -4.744 4.738v2.2a4.743 4.743 0 0 1 4.744-4.742h8.938v-2.196z" fill="#bee6ff"/><path d="m114.698 58.043-15.444-8.807v-17.273l15.444-8.807z" fill="#aad2ff"/><path d="m99.254 31.962v2.194l15.444-8.806v-2.194z" fill="#bee6ff"/><path d="m114.698 55.849v2.194l-15.444-8.807v-2.193z" fill="#96bef0"/><path d="m99.169 65.494a13.1 13.1 0 0 1 -12.2-8.324l-3.106-7.934h8.937z" fill="#f0dc78"/><path d="m85.361 53.067h8.943l-1.499-3.83h-8.943z" fill="#dcc864"/><path d="m92.805 31.963h6.449v17.274h-6.449z" fill="#f0dc78"/><path d="m92.805 31.963h6.449v2.194h-6.449z" fill="#ffe885"/><path d="m83.862 49.237a4.743 4.743 0 0 1 -4.744-4.742v-2.195a4.743 4.743 0 0 0 4.744 4.742h8.938v2.194z" fill="#96bef0"/><path d="m92.805 47.043h6.449v2.194h-6.449z" fill="#dcc864"/><path d="m114.7 32.807v15.585a8.226 8.226 0 0 0 4.755-7.792 8.226 8.226 0 0 0 -4.755-7.793z" fill="#f0dc78"/><path d="m114.7 44.241v4.151a8.226 8.226 0 0 0 4.755-7.792 9.524 9.524 0 0 0 -.247-2.076 7.839 7.839 0 0 1 -4.508 5.717z" fill="#dcc864"/><path d="m92.8 50.236h-8.939a5.749 5.749 0 0 1 -5.744-5.736v-7.8a5.749 5.749 0 0 1 5.744-5.741h8.939a1 1 0 0 1 1 1v17.277a1 1 0 0 1 -1 1zm-8.939-17.273a3.747 3.747 0 0 0 -3.744 3.737v7.8a3.747 3.747 0 0 0 3.744 3.741h7.939v-15.278z" fill="#785ae6"/><path d="m114.7 59.043a1 1 0 0 1 -.5-.131l-15.441-8.807a1 1 0 0 1 -.5-.869v-17.273a1 1 0 0 1 .5-.869l7-3.991a1 1 0 0 1 .99 1.738l-6.494 3.7v16.114l13.445 7.666v-33.165a1 1 0 1 1 2 0v34.887a1 1 0 0 1 -1 1z" fill="#785ae6"/><path d="m99.169 66.494a14.018 14.018 0 0 1 -13.133-8.96 1 1 0 0 1 1.863-.729 12.018 12.018 0 0 0 9.769 7.6l-5.546-14.169h-8.261a1 1 0 0 1 0-2h8.939a1 1 0 0 1 .932.636l6.368 16.258a1 1 0 0 1 -.932 1.364z" fill="#785ae6"/><path d="m99.254 50.236h-6.454a1 1 0 0 1 -1-1v-17.273a1 1 0 0 1 1-1h6.449a1 1 0 0 1 1 1v17.273a1 1 0 0 1 -.995 1zm-5.449-2h4.449v-15.273h-4.454z" fill="#785ae6"/><path d="m114.7 49.392a1 1 0 0 1 -1-1v-15.584a1 1 0 0 1 1.369-.93c3.222 1.28 5.386 4.785 5.386 8.722s-2.164 7.441-5.386 8.722a1.007 1.007 0 0 1 -.369.07zm1-14.87v12.156a8.083 8.083 0 0 0 0-12.156z" fill="#785ae6"/><path d="m110.67 14.161a8.163 8.163 0 0 0 8.165-8.161 8.163 8.163 0 0 0 8.165 8.161 8.163 8.163 0 0 0 -8.165 8.161 8.163 8.163 0 0 0 -8.165-8.161z" fill="#ffe885"/><path d="m113.052 110.429h-12.114a3.821 3.821 0 0 0 -3.345 1.973l-4.756 8.611a1.911 1.911 0 0 1 -3.345 0l-4.757-8.613a3.821 3.821 0 0 0 -3.345-1.973h-1.99a2.9 2.9 0 0 1 -2.9-2.9v-24.78a2.9 2.9 0 0 1 2.9-2.9h33.654a2.9 2.9 0 0 1 2.9 2.9v24.78a2.9 2.9 0 0 1 -2.902 2.902z" fill="#aad2ff"/><path d="m78.495 109.526v-24.78a2.9 2.9 0 0 1 2.9-2.9h33.654a2.874 2.874 0 0 1 .783.12 2.9 2.9 0 0 0 -2.783-2.119h-33.649a2.9 2.9 0 0 0 -2.9 2.9v24.78a2.894 2.894 0 0 0 2.12 2.782 2.87 2.87 0 0 1 -.125-.783z" fill="#bee6ff"/><g fill="#785ae6"><path d="m124.047 111.429h-10.994a1 1 0 0 1 0-2 1.9 1.9 0 0 0 1.9-1.9v-24.782a1.9 1.9 0 0 0 -1.9-1.9h-33.653a1.906 1.906 0 0 0 -1.9 1.9v24.779a1.906 1.906 0 0 0 1.9 1.9 1 1 0 0 1 0 2 3.908 3.908 0 0 1 -3.9-3.9v-24.779a3.908 3.908 0 0 1 3.9-3.9h33.654a3.907 3.907 0 0 1 3.9 3.9v24.779a3.872 3.872 0 0 1 -.5 1.9h7.587a1.955 1.955 0 0 0 1.959-1.949v-72.559a1.954 1.954 0 0 0 -1.953-1.951h-5.212a1 1 0 0 1 0-2h5.212a3.957 3.957 0 0 1 3.953 3.951v72.559a3.957 3.957 0 0 1 -3.953 3.952z"/><path d="m70.312 111.429h-66.359a3.957 3.957 0 0 1 -3.953-3.952v-72.559a3.957 3.957 0 0 1 3.953-3.951h13.366a1 1 0 0 1 0 2h-13.366a1.954 1.954 0 0 0 -1.953 1.951v72.559a1.955 1.955 0 0 0 1.953 1.952h66.359a1 1 0 0 1 0 2z"/><path d="m119.95 106.509h-3.994a1 1 0 0 1 -1-1v-22.762a1.9 1.9 0 0 0 -1.9-1.9h-33.656a1.906 1.906 0 0 0 -1.9 1.9v22.762a1 1 0 0 1 -1 1h-68.45a2.972 2.972 0 0 1 -2.969-2.968v-29.841a1 1 0 0 1 2 0v29.846a.97.97 0 0 0 .969.968h67.444v-21.767a3.908 3.908 0 0 1 3.9-3.9h33.654a3.907 3.907 0 0 1 3.9 3.9v21.762h2.994a.97.97 0 0 0 .969-.968v-64.683a1 1 0 1 1 2 0v64.683a2.972 2.972 0 0 1 -2.961 2.968z"/><path d="m6.081 66.168a1 1 0 0 1 -1-1v-26.314a2.972 2.972 0 0 1 2.969-2.968h4.764a1 1 0 0 1 0 2h-4.764a.97.97 0 0 0 -.969.968v26.314a1 1 0 0 1 -1 1z"/><path d="m17.319 32.967h-11.238a1 1 0 0 1 -1-1v-10.706a6.619 6.619 0 0 1 13.238 0c0 .1 0 .194-.01.291a1.078 1.078 0 0 1 .01.139v10.276a1 1 0 0 1 -1 1zm-10.238-2h9.238v-9.067a.969.969 0 0 1 -.02-.286c.011-.138.02-.245.02-.354a4.619 4.619 0 0 0 -9.238 0z"/><path d="m76.494 106.509h-59.175a1 1 0 0 1 -1-1v-83.621a.943.943 0 0 1 -.02-.272c.011-.141.02-.246.02-.354a4.623 4.623 0 0 0 -4.619-4.617 1 1 0 1 1 0-2h78.906a6.635 6.635 0 0 1 6.554 5.728 1 1 0 1 1 -1.982.268 4.628 4.628 0 0 0 -4.571-4h-74.17a6.592 6.592 0 0 1 1.882 4.616c0 .1 0 .194-.01.291a1.078 1.078 0 0 1 .01.139v82.818h57.175v-21.758a3.908 3.908 0 0 1 3.9-3.9h15.813l-.007-12.309a1 1 0 0 1 1-1 1 1 0 0 1 1 1l.012 13.308a1 1 0 0 1 -1 1h-16.812a1.906 1.906 0 0 0 -1.9 1.9v22.762a1 1 0 0 1 -1.006 1.001z"/><path d="m59.961 80.845h-36.1a1 1 0 0 1 -1-1v-33.377a1 1 0 0 1 1-1h36.1a1 1 0 0 1 1 1v33.377a1 1 0 0 1 -1 1zm-35.1-2h34.1v-31.377h-34.1z"/><path d="m74.5 36.242h-50.635a1 1 0 0 1 -1-1v-8.451a1 1 0 0 1 1-1h39.7a1 1 0 1 1 0 2h-38.7v6.451h48.635v-6.451h-4.013a1 1 0 0 1 0-2h5.013a1 1 0 0 1 1 1v8.451a1 1 0 0 1 -1 1z"/><path d="m74.5 47.468h-7.388a1 1 0 0 1 0-2h7.388a1 1 0 0 1 0 2z"/><path d="m74.5 55.941h-7.388a1 1 0 0 1 0-2h7.388a1 1 0 0 1 0 2z"/><path d="m78.4 64.5h-11.288a1 1 0 0 1 0-2h11.288a1 1 0 0 1 0 2z"/><path d="m89.679 72.974h-22.567a1 1 0 0 1 0-2h22.567a1 1 0 0 1 0 2z"/><path d="m70.806 80.845h-3.694a1 1 0 0 1 0-2h3.693a1 1 0 0 1 0 2z"/><path d="m76.494 106.509h-52.629a1 1 0 0 1 -1-1v-17.192a1 1 0 0 1 1-1h8.881a1 1 0 0 1 0 2h-7.881v15.191h50.629v-15.191h-35.176a1 1 0 0 1 0-2h36.176a1 1 0 0 1 1 1v17.191a1 1 0 0 1 -1 1.001z"/><path d="m118.835 23.322a1 1 0 0 1 -1-1 7.171 7.171 0 0 0 -7.165-7.161 1 1 0 0 1 0-2 7.171 7.171 0 0 0 7.165-7.161 1 1 0 0 1 2 0 7.171 7.171 0 0 0 7.165 7.161 1 1 0 0 1 0 2 7.171 7.171 0 0 0 -7.165 7.161 1 1 0 0 1 -1 1zm-4-9.161a9.222 9.222 0 0 1 4 4 9.222 9.222 0 0 1 4-4 9.222 9.222 0 0 1 -4-4 9.222 9.222 0 0 1 -4.004 4z"/><path d="m91.164 123a2.872 2.872 0 0 1 -2.547-1.5l-4.757-8.611a2.822 2.822 0 0 0 -2.47-1.457h-1.99a3.908 3.908 0 0 1 -3.9-3.9v-24.785a3.908 3.908 0 0 1 3.9-3.9h33.654a3.907 3.907 0 0 1 3.9 3.9v24.779a3.907 3.907 0 0 1 -3.9 3.9h-12.116a2.819 2.819 0 0 0 -2.469 1.457l-4.757 8.617a2.872 2.872 0 0 1 -2.548 1.5zm-11.764-42.155a1.906 1.906 0 0 0 -1.9 1.9v24.779a1.906 1.906 0 0 0 1.9 1.9h1.992a4.82 4.82 0 0 1 4.221 2.49l4.756 8.611a.912.912 0 0 0 1.595 0l4.757-8.611a4.818 4.818 0 0 1 4.22-2.49h12.114a1.9 1.9 0 0 0 1.9-1.9v-24.777a1.9 1.9 0 0 0 -1.9-1.9z"/><path d="m110.146 87.62h-27.846a1 1 0 0 1 0-2h27.843a1 1 0 0 1 0 2z"/><path d="m110.146 96.094h-27.846a1 1 0 0 1 0-2h27.843a1 1 0 1 1 0 2z"/><path d="m110.146 104.653h-27.846a1 1 0 0 1 0-2h27.843a1 1 0 0 1 0 2z"/><path d="m96.226 33.009a1 1 0 0 1 -1-1v-4.676a1 1 0 1 1 2 0v4.676a1 1 0 0 1 -1 1z"/></g></svg>