<svg id="Capa_1" enable-background="new 0 0 512 512" height="512" viewBox="0 0 512 512" width="512" xmlns="http://www.w3.org/2000/svg" xmlns:xlink="http://www.w3.org/1999/xlink"><linearGradient id="SVGID_1_" gradientUnits="userSpaceOnUse" x1="12.034" x2="499.966" y1="256" y2="256"><stop offset=".0485" stop-color="#ffdbed"/><stop offset=".9993" stop-color="#d2deff"/></linearGradient><linearGradient id="lg1"><stop offset=".0028" stop-color="#ff7eb8" stop-opacity="0"/><stop offset="1" stop-color="#ff7eb8" stop-opacity=".6"/></linearGradient><linearGradient id="SVGID_2_" gradientUnits="userSpaceOnUse" x1="334" x2="334" xlink:href="#lg1" y1="239.4" y2="423.33"/><linearGradient id="SVGID_3_" gradientUnits="userSpaceOnUse" x1="178" x2="178" xlink:href="#lg1" y1="88.67" y2="272.6"/><g><g><g><path d="m286.593 4.867c-94.351 27.746-75.427 93.585-85.98 166.539-13.171 91.052-70.095 44.365-135.496 93.538-113.054 85.001-30.931 272.636 109.468 244.14 74.552-15.131 89.786-70.095 120.193-128.824 39.333-75.973 104.558-55.26 163.066-104.857 118.655-100.582-37.403-309.897-171.251-270.536z" fill="url(#SVGID_1_)"/></g><g><g><g><g><g><path d="m477.24 249.4v163.93c0 5.52-4.47 10-10 10h-266.48c-5.53 0-10-4.48-10-10v-163.93c0-5.52 4.47-10 10-10h266.48c5.53 0 10 4.48 10 10z" fill="#9fb0fe"/><path d="m269.71 329.67v46.18c0 5.53-4.47 10-10 10h-57.48v13.55c0 6.58-5.87 10.73-11.47 9.92v-113.12c5.6-.81 11.47 3.34 11.47 9.92v13.55h57.48c5.53 0 10 4.48 10 10z" fill="#8399fe"/><path d="m321.243 239.4v46.7c0 5.52-4.47 10-10 10h-120.483v-46.7c0-5.52 4.47-10 10-10z" fill="#8399fe"/><path d="m477.24 249.4-137.56 95.01c-3.42 2.36-7.94 2.36-11.36 0l-69.95-48.31-67.61-46.7c0-5.52 4.47-10 10-10h266.48c2.76 0 5.26 1.12 7.07 2.93s2.93 4.31 2.93 7.07z" fill="#b7c5ff"/><path d="m321.243 239.4v46.7c0 5.52-4.47 10-10 10h-52.873l-67.61-46.7c0-5.52 4.47-10 10-10z" fill="#9fb0fe"/><g><g><g><path d="m393.759 381.716c-4.421 0-6.906-1.754-8.551-2.914-1.182-.834-1.538-1.086-2.786-1.086s-1.605.252-2.786 1.086c-1.645 1.161-4.131 2.914-8.552 2.914-4.419 0-6.904-1.754-8.548-2.915-1.18-.833-1.536-1.085-2.781-1.085-1.246 0-1.603.252-2.783 1.085-1.645 1.161-4.129 2.915-8.55 2.915-2.761 0-5-2.239-5-5s2.239-5 5-5c1.246 0 1.602-.251 2.783-1.085 1.645-1.161 4.129-2.915 8.55-2.915 4.42 0 6.905 1.754 8.549 2.915 1.179.833 1.536 1.085 2.78 1.085 1.248 0 1.604-.251 2.786-1.085 1.645-1.161 4.131-2.915 8.551-2.915 4.421 0 6.907 1.754 8.552 2.915 1.181.834 1.538 1.085 2.786 1.085 2.761 0 5 2.239 5 5s-2.238 5-5 5z" fill="#6583fe"/></g><g><path d="m393.759 399.716c-4.421 0-6.906-1.754-8.551-2.914-1.182-.834-1.538-1.086-2.786-1.086s-1.605.252-2.786 1.086c-1.645 1.161-4.131 2.914-8.552 2.914-4.419 0-6.904-1.754-8.548-2.915-1.18-.833-1.536-1.085-2.781-1.085-1.246 0-1.603.252-2.783 1.085-1.645 1.161-4.129 2.915-8.55 2.915-2.761 0-5-2.239-5-5s2.239-5 5-5c1.246 0 1.602-.251 2.783-1.085 1.645-1.161 4.129-2.915 8.55-2.915 4.42 0 6.905 1.754 8.549 2.915 1.179.833 1.536 1.085 2.78 1.085 1.248 0 1.604-.251 2.786-1.085 1.645-1.161 4.131-2.915 8.551-2.915 4.421 0 6.907 1.754 8.552 2.915 1.181.834 1.538 1.085 2.786 1.085 2.761 0 5 2.239 5 5s-2.238 5-5 5z" fill="#6583fe"/></g></g></g></g><path d="m444.5 401.089h-29.5c-3.314 0-6-2.686-6-6v-29.5c0-3.314 2.686-6 6-6h29.5c3.314 0 6 2.686 6 6v29.5c0 3.314-2.686 6-6 6z" fill="#ff7eb8"/></g><path d="m477.24 249.4v163.93c0 5.52-4.47 10-10 10h-266.48c-5.53 0-10-4.48-10-10v-163.93c0-5.52 4.47-10 10-10h266.48c5.53 0 10 4.48 10 10z" fill="url(#SVGID_2_)"/><path d="m138.524 336.333 46.64 46.64c6.3 6.3 17.071 1.838 17.071-7.071v-13.549h57.479c5.523 0 10-4.477 10-10v-46.183c0-5.523-4.477-10-10-10h-57.479v-13.549c0-8.909-10.771-13.371-17.071-7.071l-46.64 46.64c-3.906 3.906-3.906 10.238 0 14.143z" fill="#ff7eb8"/></g><g><g><path d="m321.24 98.67v164.13c-.11 5.43-4.54 9.8-10 9.8h-266.48c-5.53 0-10-4.48-10-10v-163.93c0-5.52 4.47-10 10-10h266.48c5.53 0 10 4.48 10 10z" fill="#02ffb3"/><path d="m321.24 149.68v113.12c-5.6.81-11.47-3.34-11.47-9.92v-13.55h-57.48c-5.53 0-10-4.48-10-10v-46.18c0-5.53 4.47-10 10-10h57.48v-13.55c0-6.58 5.87-10.73 11.47-9.92z" fill="#01eca5"/><path d="m34.757 98.67 137.56 95.007c3.42 2.362 7.945 2.362 11.366 0l137.56-95.007c0-5.523-4.477-10-10-10h-266.486c-5.523 0-10 4.477-10 10z" fill="#97ffd2"/><g><ellipse cx="82.547" cy="226.095" fill="#ff7eb8" rx="22.767" ry="22.767" transform="matrix(.707 -.707 .707 .707 -135.696 124.591)"/><g><g><path d="m132.76 230.987c-4.421 0-6.906-1.754-8.551-2.915-1.182-.834-1.538-1.085-2.786-1.085s-1.604.251-2.786 1.085c-1.645 1.161-4.131 2.915-8.552 2.915-4.42 0-6.904-1.754-8.548-2.915-1.18-.833-1.536-1.085-2.781-1.085-1.246 0-1.603.251-2.783 1.085-1.645 1.161-4.129 2.915-8.55 2.915-2.761 0-5-2.239-5-5s2.239-5 5-5c1.246 0 1.603-.251 2.783-1.085 1.645-1.161 4.129-2.915 8.55-2.915 4.42 0 6.905 1.754 8.549 2.915 1.179.833 1.536 1.085 2.78 1.085 1.248 0 1.604-.251 2.786-1.085 1.645-1.161 4.131-2.915 8.551-2.915 4.421 0 6.907 1.754 8.552 2.915 1.181.834 1.538 1.085 2.786 1.085 2.761 0 5 2.239 5 5s-2.239 5-5 5z" fill="#6583fe"/></g><g><path d="m132.76 248.987c-4.421 0-6.906-1.754-8.551-2.914-1.182-.834-1.538-1.086-2.786-1.086s-1.604.251-2.786 1.086c-1.645 1.161-4.131 2.914-8.552 2.914-4.42 0-6.904-1.754-8.548-2.915-1.18-.833-1.536-1.085-2.781-1.085-1.246 0-1.603.251-2.783 1.085-1.645 1.161-4.129 2.915-8.55 2.915-2.761 0-5-2.239-5-5s2.239-5 5-5c1.246 0 1.603-.251 2.783-1.085 1.645-1.161 4.129-2.915 8.55-2.915 4.42 0 6.905 1.754 8.549 2.915 1.179.833 1.536 1.085 2.78 1.085 1.248 0 1.604-.251 2.786-1.085 1.645-1.161 4.131-2.915 8.551-2.915 4.421 0 6.907 1.754 8.552 2.915 1.181.834 1.538 1.085 2.786 1.085 2.761 0 5 2.239 5 5s-2.239 5-5 5z" fill="#6583fe"/></g></g></g></g><path d="m321.24 98.67v164.13c-.11 5.43-4.54 9.8-10 9.8h-266.48c-5.53 0-10-4.48-10-10v-163.93c0-5.52 4.47-10 10-10h266.48c5.53 0 10 4.48 10 10z" fill="url(#SVGID_3_)"/><path d="m373.476 175.667-46.64-46.64c-6.3-6.3-17.071-1.838-17.071 7.071v13.549h-57.479c-5.523 0-10 4.477-10 10v46.183c0 5.523 4.477 10 10 10h57.479v13.549c0 8.909 10.771 13.371 17.071 7.071l46.64-46.64c3.906-3.906 3.906-10.238 0-14.143z" fill="#6583fe"/></g></g><path d="m343.422 480.32c-2.761 0-5-2.239-5-5 0-3.309-2.691-6-6-6-2.761 0-5-2.239-5-5s2.239-5 5-5c3.309 0 6-2.691 6-6 0-2.761 2.239-5 5-5s5 2.239 5 5c0 3.309 2.691 6 6 6 2.761 0 5 2.239 5 5s-2.239 5-5 5c-3.309 0-6 2.691-6 6 0 2.761-2.239 5-5 5z" fill="#01eca5"/><path d="m178 63.68c-1.28 0-2.559-.488-3.536-1.464l-11-11c-1.953-1.953-1.953-5.119 0-7.071l11-11c1.953-1.952 5.118-1.952 7.071 0l11 11c1.953 1.953 1.953 5.119 0 7.071l-11 11c-.976.975-2.255 1.464-3.535 1.464zm-3.929-16 3.929 3.928 3.929-3.929-3.929-3.928z" fill="#ff7eb8"/><path d="m409 144.648c-1.28 0-2.559-.488-3.536-1.464l-11-11c-1.953-1.953-1.953-5.119 0-7.071l11-11c1.953-1.952 5.118-1.952 7.071 0l11 11c1.953 1.953 1.953 5.119 0 7.071l-11 11c-.976.976-2.255 1.464-3.535 1.464zm-3.929-16 3.929 3.929 3.929-3.929-3.929-3.929z" fill="#6583fe"/><path d="m124.091 430.565c-1.28 0-2.559-.488-3.536-1.464l-11-11c-1.953-1.953-1.953-5.119 0-7.071l11-11c1.953-1.952 5.118-1.952 7.071 0l11 11c1.953 1.953 1.953 5.119 0 7.071l-11 11c-.976.976-2.255 1.464-3.535 1.464zm-3.929-16 3.929 3.929 3.929-3.929-3.929-3.929z" fill="#6583fe"/><path d="m88 386.514c-2.761 0-5-2.239-5-5 0-3.309-2.691-6-6-6-2.761 0-5-2.239-5-5s2.239-5 5-5c3.309 0 6-2.691 6-6 0-2.761 2.239-5 5-5s5 2.239 5 5c0 3.309 2.691 6 6 6 2.761 0 5 2.239 5 5s-2.239 5-5 5c-3.309 0-6 2.691-6 6 0 2.761-2.239 5-5 5z" fill="#ff7eb8"/></g></g></g></svg>