<?xml version="1.0" encoding="UTF-8"?>
<svg xmlns="http://www.w3.org/2000/svg" width="512" height="512" viewBox="0 0 512 512"><g><path d="M476,48H392V36a20.02,20.02,0,0,0-20-20H140a20.02,20.02,0,0,0-20,20V48H36A28.031,28.031,0,0,0,8,76V404a28.031,28.031,0,0,0,28,28H188.18l-9.6,24H136a8,8,0,0,0-8,8v24a8,8,0,0,0,8,8H376a8,8,0,0,0,8-8V464a8,8,0,0,0-8-8H333.42l-9.6-24H476a28.031,28.031,0,0,0,28-28V76A28.031,28.031,0,0,0,476,48ZM136,36a4,4,0,0,1,4-4H372a4,4,0,0,1,4,4V51.06l-120,60-120-60Zm0,32.94,116.42,58.22a8.049,8.049,0,0,0,7.16,0L376,68.94V188a4,4,0,0,1-4,4H140a4,4,0,0,1-4-4ZM24,76A12.01,12.01,0,0,1,36,64h84V188a20.02,20.02,0,0,0,20,20h76V368H24ZM368,472v8H144v-8ZM195.82,456l9.6-24H306.58l9.6,24ZM488,404a12.01,12.01,0,0,1-12,12H36a12.01,12.01,0,0,1-12-12V384H488Zm0-36H232V208h16v88a8,8,0,0,0,16,0V208h16v80a8,8,0,0,0,16,0V208h76a20.02,20.02,0,0,0,20-20V64h84a12.01,12.01,0,0,1,12,12Z"/><path d="M256,312a8,8,0,0,0-8,8v8a8,8,0,0,0,16,0v-8A8,8,0,0,0,256,312Z"/></g></svg>
