<?xml version="1.0"?>
<svg xmlns="http://www.w3.org/2000/svg" xmlns:xlink="http://www.w3.org/1999/xlink" xmlns:svgjs="http://svgjs.com/svgjs" version="1.1" width="512" height="512" x="0" y="0" viewBox="0 0 511.995 511.995" style="enable-background:new 0 0 512 512" xml:space="preserve" class=""><g><g xmlns="http://www.w3.org/2000/svg"><path d="m189.451 251.966c44.151 18.476 88.934 18.48 133.094-.001 6.91-2.893 11.375-9.591 11.375-17.064v-72.13l34.796-19.147c3.182-1.749 5.158-5.091 5.159-8.721.001-3.631-1.975-6.974-5.156-8.726l-107.918-59.385c-3.007-1.656-6.599-1.658-9.604-.002l-49.063 26.998c-3.629 1.997-4.951 6.558-2.955 10.188 1.998 3.629 6.557 4.952 10.188 2.955l46.631-25.66 97.458 53.629c-6.646 3.657-49.085 27.011-54.678 30.089l-37.631-35.541c-3.011-2.844-7.758-2.711-10.602.303-2.845 3.011-2.709 7.758.303 10.602l34.127 32.232-29.019 15.969c-7.249-3.782-30.571-17.154-97.387-53.67l23.991-13.201c3.629-1.997 4.951-6.558 2.955-10.188-1.997-3.627-6.557-4.952-10.188-2.955l-32.055 17.64c-3.18 1.751-5.154 5.094-5.153 8.724.001 3.629 1.977 6.971 5.179 8.731 13.145 7.174 24.661 13.482 34.776 19.038v72.227c.001 7.474 4.466 14.172 11.377 17.066zm60.668-49.556c1.628.814 3.778 1.891 6.236 1.891 1.43 0 2.964-.364 4.56-1.356l29.188-16.062v39.982c0 4.143 3.357 7.5 7.5 7.5s7.5-3.357 7.5-7.5v-48.236l13.816-7.603v63.874c0 1.41-.851 2.677-2.167 3.228-40.312 16.87-81.195 16.87-121.51.001-1.317-.552-2.168-1.818-2.168-3.229v-63.975c38.601 21.277 51.858 28.894 57.045 31.485z" fill="#27abe2" data-original="#000000" style="" class=""/><path d="m415.749 73.057c0-4.143-3.357-7.5-7.5-7.5h-34.717c-4.143 0-7.5 3.357-7.5 7.5s3.357 7.5 7.5 7.5h34.717c4.143 0 7.5-3.358 7.5-7.5z" fill="#27abe2" data-original="#000000" style="" class=""/><path d="m444.223 127.435c4.143 0 7.5-3.357 7.5-7.5v-64.18c0-12.727-10.354-23.08-23.08-23.08h-143.109v-3.138c0-16.287-13.25-29.537-29.537-29.537s-29.537 13.25-29.537 29.537v3.138h-143.108c-12.726 0-23.079 10.354-23.079 23.08v219.912c0 12.727 10.354 23.08 23.079 23.08h59.812v18.203c0 10.016 8.147 18.163 18.163 18.163h2.031c-17.185 30.058-31.678 56.86-44.764 82.329-1.893 3.685-.44 8.206 3.243 10.099 3.685 1.89 8.205.44 10.099-3.243 15.662-30.486 32.068-60.316 48.713-89.185h38.935c-1.966 3.253-3.924 6.472-5.809 9.563-27.084 44.431-55.704 88.117-85.661 129.67-5.273 7.272-10.037 13.754-14.563 19.812-2.851 3.819-8.943 3.912-11.743-.467-.632-.987-1.942-3.627-.473-6.811 3.125-6.765 6.554-14.039 10.475-22.221 2.185-4.528 4.403-9.037 6.625-13.544 1.831-3.715.304-8.212-3.412-10.043-3.717-1.83-8.212-.303-10.043 3.412-2.239 4.544-4.476 9.09-6.688 13.674-3.96 8.265-7.419 15.603-10.574 22.433-3.175 6.877-2.631 14.796 1.455 21.183 8.407 13.145 27.236 13.622 36.396 1.361 4.569-6.116 9.374-12.654 14.702-20.002 30.643-42.508 59.472-86.62 86.313-130.651.012-.02.025-.041.037-.062l5.89 112.746c.621 11.871 10.42 21.171 22.308 21.171s21.686-9.3 22.307-21.171l5.891-112.745c.012.02.025.041.037.06 26.828 44.013 55.705 88.192 86.325 130.668 5.316 7.331 10.121 13.869 14.69 19.986 9.155 12.251 27.984 11.79 36.397-1.362 4.086-6.387 4.629-14.306 1.454-21.181-3.128-6.774-6.586-14.112-10.583-22.453-17.869-37.031-38.483-76.549-65.058-123.028h4.39c10.016 0 18.164-8.147 18.164-18.163v-18.203h59.811c12.727 0 23.08-10.354 23.08-23.08v-125.744c0-4.143-3.357-7.5-7.5-7.5s-7.5 3.357-7.5 7.5v125.746c0 4.455-3.625 8.08-8.08 8.08h-345.292c-4.455 0-8.079-3.625-8.079-8.08v-219.912c0-4.455 3.624-8.08 8.079-8.08h345.291c4.455 0 8.08 3.625 8.08 8.08v64.18c0 4.142 3.357 7.5 7.5 7.5zm-182.079 336.95c-.203 3.899-3.422 6.954-7.326 6.954-3.905 0-7.124-3.055-7.327-6.954l-6.754-129.271h28.162zm135.674.258c3.957 8.257 7.386 15.531 10.483 22.24 1.47 3.183.159 5.823-.472 6.811-2.808 4.384-8.897 4.279-11.744.467-4.526-6.06-9.29-12.541-14.552-19.797-29.922-41.507-58.6-85.271-85.673-129.687-1.879-3.083-3.835-6.298-5.809-9.563h38.935c24.907 43.194 47.843 86.035 68.832 129.529zm-43.986-165.896v18.203c0 1.744-1.419 3.163-3.164 3.163h-189.342c-1.744 0-3.163-1.419-3.163-3.163v-18.203zm-112.372-266.072v-3.138c0-8.016 6.521-14.537 14.537-14.537s14.537 6.521 14.537 14.537v3.138z" fill="#27abe2" data-original="#000000" style="" class=""/></g></g></svg>
