<svg height="480pt" viewBox="0 0 480 480" width="480pt" xmlns="http://www.w3.org/2000/svg"><path d="m8 184c0 17.671875 14.328125 32 32 32h208c17.671875 0 32-14.328125 32-32zm0 0" fill="#9bc9ff"/><path d="m216 440h-16c0 17.671875 14.328125 32 32 32h208c17.671875 0 32-14.328125 32-32zm0 0" fill="#9bc9ff"/><path d="m264 8h-240v176h240zm-24 152h-192v-128h192zm0 0" fill="#9bc9ff"/><path d="m216 264v176h240v-176zm216 152h-192v-128h192zm0 0" fill="#9bc9ff"/><g fill="#1e81ce"><path d="m280 176h-8v-168c0-4.417969-3.582031-8-8-8h-240c-4.417969 0-8 3.582031-8 8v168h-8c-4.417969 0-8 3.582031-8 8 .0273438 22.082031 17.917969 39.972656 40 40h208c22.082031-.027344 39.972656-17.917969 40-40 0-4.417969-3.582031-8-8-8zm-248-160h224v160h-224zm216 192h-208c-10.167969-.011719-19.230469-6.417969-22.632812-16h253.265624c-3.402343 9.582031-12.464843 15.988281-22.632812 16zm0 0"/><path d="m40 168h56v-16h-40v-112h176v112h-40v16h56v-144h-208zm0 0"/><path d="m112 152h16v16h-16zm0 0"/><path d="m136 152h16v16h-16zm0 0"/><path d="m160 152h16v16h-16zm0 0"/><path d="m472 432h-8v-168c0-4.417969-3.582031-8-8-8h-240c-4.417969 0-8 3.582031-8 8v168h-8c-4.417969 0-8 3.582031-8 8 .027344 22.082031 17.917969 39.972656 40 40h208c22.082031-.027344 39.972656-17.917969 40-40 0-4.417969-3.582031-8-8-8zm-248-160h224v160h-224zm216 192h-208c-10.167969-.011719-19.230469-6.417969-22.632812-16h253.265624c-3.402343 9.582031-12.464843 15.988281-22.632812 16zm0 0"/><path d="m232 424h56v-16h-40v-112h176v112h-40v16h56v-144h-208zm0 0"/><path d="m304 408h16v16h-16zm0 0"/><path d="m328 408h16v16h-16zm0 0"/><path d="m352 408h16v16h-16zm0 0"/><path d="m366.726562 217.679688c-3.640624.003906-6.824218-2.449219-7.75-5.96875-.921874-3.523438.648438-7.226563 3.824219-9.007813 32.851563-18.367187 53.203125-53.066406 53.203125-90.703125s-20.351562-72.335938-53.203125-90.703125c-3.855469-2.164063-5.222656-7.042969-3.058593-10.898437 2.167968-3.851563 7.046874-5.21875 10.898437-3.054688 37.890625 21.203125 61.363281 61.234375 61.363281 104.65625s-23.472656 83.453125-61.363281 104.65625c-1.195313.671875-2.542969 1.023438-3.914063 1.023438zm0 0"/><path d="m350.726562 190c-3.644531.003906-6.832031-2.457031-7.75-5.988281-.917968-3.527344.667969-7.230469 3.855469-9.003907 22.925781-12.679687 37.15625-36.808593 37.15625-63.007812s-14.230469-50.328125-37.15625-63.007812c-3.863281-2.148438-5.25-7.019532-3.105469-10.878907 2.148438-3.863281 7.019532-5.253906 10.882813-3.105469 28.003906 15.5 45.382813 44.984376 45.382813 76.992188s-17.378907 61.492188-45.382813 76.992188c-1.1875.660156-2.523437 1.007812-3.882813 1.007812zm0 0"/><path d="m334.726562 162.320312c-3.660156.003907-6.859374-2.480468-7.761718-6.027343-.902344-3.550781.71875-7.257813 3.9375-9.003907 12.992187-6.984374 21.09375-20.539062 21.09375-35.289062s-8.101563-28.304688-21.09375-35.289062c-3.882813-2.105469-5.320313-6.964844-3.214844-10.847657 2.109375-3.882812 6.964844-5.324219 10.847656-3.214843 18.148438 9.78125 29.464844 28.734374 29.464844 49.351562s-11.316406 39.570312-29.464844 49.351562c-1.167968.632813-2.476562.96875-3.808594.96875zm0 0"/><path d="m312 136c-13.253906 0-24-10.746094-24-24s10.746094-24 24-24 24 10.746094 24 24-10.746094 24-24 24zm0-32c-4.417969 0-8 3.582031-8 8s3.582031 8 8 8 8-3.582031 8-8-3.582031-8-8-8zm0 0"/><path d="m113.273438 473.679688c-1.371094 0-2.71875-.351563-3.914063-1.023438-37.890625-21.203125-61.363281-61.234375-61.363281-104.65625s23.472656-83.453125 61.363281-104.65625c3.851563-2.164062 8.730469-.796875 10.898437 3.054688 2.164063 3.855468.796876 8.734374-3.058593 10.898437-32.851563 18.367187-53.203125 53.066406-53.203125 90.703125s20.351562 72.335938 53.203125 90.703125c3.175781 1.78125 4.746093 5.484375 3.824219 9.007813-.925782 3.519531-4.109376 5.972656-7.75 5.96875zm0 0"/><path d="m129.273438 446c-1.359376 0-2.695313-.347656-3.882813-1.007812-28.003906-15.5-45.382813-44.984376-45.382813-76.992188s17.378907-61.492188 45.382813-76.992188c3.863281-2.148437 8.734375-.757812 10.882813 3.105469 2.144531 3.859375.757812 8.730469-3.105469 10.878907-22.925781 12.679687-37.15625 36.808593-37.15625 63.007812s14.230469 50.328125 37.15625 63.007812c3.1875 1.773438 4.773437 5.476563 3.855469 9.003907-.917969 3.53125-4.105469 5.992187-7.75 5.988281zm0 0"/><path d="m145.273438 418.320312c-1.332032 0-2.640626-.335937-3.808594-.96875-18.148438-9.78125-29.464844-28.734374-29.464844-49.351562s11.316406-39.570312 29.464844-49.351562c3.882812-2.109376 8.738281-.667969 10.847656 3.214843 2.105469 3.882813.667969 8.742188-3.214844 10.847657-12.992187 6.984374-21.09375 20.539062-21.09375 35.289062s8.101563 28.304688 21.09375 35.289062c3.21875 1.746094 4.839844 5.453126 3.9375 9.003907-.902344 3.546875-4.101562 6.03125-7.761718 6.027343zm0 0"/><path d="m168 392c-13.253906 0-24-10.746094-24-24s10.746094-24 24-24 24 10.746094 24 24-10.746094 24-24 24zm0-32c-4.417969 0-8 3.582031-8 8s3.582031 8 8 8 8-3.582031 8-8-3.582031-8-8-8zm0 0"/></g></svg>