<svg id="Capa_1" enable-background="new 0 0 512 512" height="512" viewBox="0 0 512 512" width="512" xmlns="http://www.w3.org/2000/svg"><g><g><g><path d="m154.325 439.396h-96.65v-201.892l48.325-38.213 48.325 38.213z" fill="#ff7c48"/><path d="m154.325 439.396h-48.325v-248.468l48.325 46.576z" fill="#ff415b"/><path d="m303.197 439.396h-94.394v-219.969l47.197-47.197 47.197-30.372z" fill="#ffda44"/><path d="m303.197 439.396h-47.197v-267.166l47.197-30.372z" fill="#ff9f22"/><path d="m452.67 439.396h-93.34v-323.628l46.67 44.988 46.67-44.988z" fill="#69b1e9"/><path d="m452.67 439.396h-46.67v-278.64l46.67-44.988z" fill="#2681ff"/></g><g><g><g><path d="m0 424.396h512v30h-512z" fill="#00429c"/></g></g></g><g><path d="m256 424.396h256v30h-256z" fill="#00347b"/></g></g><g><g><g><path d="m27.106 286.583-21.212-21.212 95.656-95.657 67.876 67.877 167.984-167.985 69.938 69.937 70.018-70.019 21.213 21.213-91.231 91.233-69.938-69.937-167.984 167.985-67.876-67.877z" fill="#2681ff"/></g></g></g><path d="m409.172 57.604v30h50.115l-51.939 51.939-69.938-69.937-81.41 81.41v42.427l81.41-81.41 69.938 69.937 73.152-73.153v50.115h30v-101.328z" fill="#0051be"/></g></svg>