<?xml version="1.0" encoding="utf-8"?>
<!-- Generator: Adobe Illustrator 15.0.0, SVG Export Plug-In . SVG Version: 6.00 Build 0)  -->
<!DOCTYPE svg PUBLIC "-//W3C//DTD SVG 1.1//EN" "http://www.w3.org/Graphics/SVG/1.1/DTD/svg11.dtd">
<svg version="1.1" id="logo_x5F_tiles" xmlns="http://www.w3.org/2000/svg" xmlns:xlink="http://www.w3.org/1999/xlink" x="0px"
	 y="0px" width="600px" height="600px" viewBox="0 0 600 600" enable-background="new 0 0 600 600" xml:space="preserve">
<path fill="#E67E22" d="M330.932,536.257c-23.9,15.864-60.861,15.748-82.552-0.26L84.739,415.233
	c-21.691-16.008-19.898-41.845,4.003-57.709l180.326-119.687c23.902-15.865,60.862-15.749,82.552,0.259L515.262,358.86
	c21.69,16.008,19.898,41.844-4.004,57.709L330.932,536.257z"/>
<path fill="#FFA800" d="M330.932,451.721c-23.9,15.864-60.861,15.748-82.552-0.26L84.739,330.697
	c-21.691-16.008-19.898-41.845,4.003-57.709l180.326-119.687c23.902-15.865,60.862-15.749,82.552,0.259l163.642,120.764
	c21.69,16.008,19.898,41.844-4.004,57.709L330.932,451.721z"/>
<path fill="#FFCD02" d="M330.932,369.224c-23.9,15.864-60.861,15.748-82.552-0.26L84.739,248.2
	c-21.691-16.007-19.898-41.844,4.003-57.708L269.068,70.804c23.902-15.865,60.862-15.749,82.552,0.259l163.642,120.764
	c21.69,16.008,19.898,41.844-4.004,57.709L330.932,369.224z"/>
</svg>
